<?xml version="1.0" standalone="no"?>
<!DOCTYPE svg PUBLIC "-//W3C//DTD SVG 1.1//EN" "http://www.w3.org/Graphics/SVG/1.1/DTD/svg11.dtd" >
<svg xmlns="http://www.w3.org/2000/svg" xmlns:xlink="http://www.w3.org/1999/xlink" version="1.1">
<metadata></metadata>
<defs>
<font id="inconsolataregular" horiz-adv-x="1024" >
<font-face units-per-em="2048" ascent="1638" descent="-410" />
<missing-glyph horiz-adv-x="500" />
<glyph horiz-adv-x="0" />
<glyph horiz-adv-x="0" />
<glyph unicode=" " />
<glyph unicode="!" d="M369 96q0 49 35.5 86t84.5 37t86 -37t37 -86q0 -47 -36.5 -83t-86.5 -36q-49 0 -84.5 35t-35.5 84zM389 1217q0 72 27.5 111.5t77.5 39.5q104 0 104 -172l-55 -799h-103z" />
<glyph unicode="&#x22;" d="M276 1362h164q0 -172 -5 -253t-16 -177l-12 -98h-98l-12 98q-10 92 -15.5 174t-5.5 256zM584 1362h164q0 -172 -5 -253t-16 -177l-12 -98h-98l-12 98q-10 92 -15.5 174t-5.5 256z" />
<glyph unicode="#" d="M51 391l8 92h203l41 351h-223l6 94h227l41 350l125 4l-43 -350h226l40 342l127 2l-41 -340h187l-12 -96h-187l-43 -346h203l-10 -93h-203l-45 -372l-125 -9l45 375h-227l-43 -366l-121 -2l43 364h-199zM383 487h225l43 349h-227z" />
<glyph unicode="$" d="M123 193l88 122q6 -4 8 -21.5t6 -21.5q100 -109 256 -125v451q-164 55 -241.5 130t-77.5 185q0 113 89 195t230 102v123h131q2 -2 2 -6t-6 -15.5t-8 -21.5v-78q190 -20 305 -157l-88 -111q-8 4 -12 20.5t-10 22.5q-70 82 -195 105v-396q184 -59 263 -130.5t79 -194.5 q0 -78 -42 -151t-120 -124t-180 -63v-129h-119v125q-219 14 -358 164zM297 930q0 -117 184 -191v355q-88 -10 -136 -55.5t-48 -108.5zM600 152q96 18 152.5 77.5t56.5 132.5q0 72 -48 116t-161 81v-407z" />
<glyph unicode="%" d="M57 1032q0 74 31 134.5t84 96t115 35.5q61 0 114.5 -35.5t84 -97t30.5 -135.5q0 -117 -65.5 -191.5t-163.5 -74.5q-62 0 -115 35t-84 96t-31 137zM94 0l707 1276h117l-713 -1276h-111zM182 1032q0 -80 31 -120t74 -40t71.5 39t28.5 121t-30.5 121t-73.5 39q-41 0 -71 -39 t-30 -121zM530 244q0 74 31 134t84 96t115 36q94 0 160.5 -78t66.5 -188q0 -74 -30.5 -134.5t-83 -95t-113.5 -34.5q-62 0 -115 34.5t-84 95t-31 134.5zM651 246q0 -82 33 -123t78 -41t74.5 41t29.5 119q0 72 -29.5 118t-78.5 46q-45 0 -76 -40t-31 -120z" />
<glyph unicode="&#x26;" d="M74 289q0 127 69.5 236.5t188.5 176.5q-145 176 -146 318q0 76 38 137.5t102.5 96t140.5 34.5q80 0 143.5 -38t98 -99t34.5 -131q0 -100 -62.5 -200.5t-158.5 -143.5l230 -322q49 59 68.5 103.5t23.5 103.5q0 12 8 21l133 -93q-76 -133 -156 -237l144 -186l-121 -91 l-113 181q-63 -82 -155 -129t-191 -47q-90 0 -163.5 41.5t-114.5 112.5t-41 155zM229 311q0 -84 52.5 -142t126.5 -58q131 0 256 141l-261 354q-80 -49 -127 -131t-47 -164zM328 1018q0 -98 125 -254q71 35 113 104.5t42 139.5q0 68 -42 113.5t-97 45.5q-59 0 -100 -42 t-41 -107z" />
<glyph unicode="'" d="M430 1362h164q0 -172 -5 -253t-16 -177l-12 -98h-98l-12 98q-10 92 -15.5 174t-5.5 256z" />
<glyph unicode="(" d="M250 512q0 180 67.5 346t191.5 296t288 208l39 -127q-201 -109 -321 -305.5t-120 -423.5q0 -229 123 -430t330 -309l-39 -123q-168 77 -295 212.5t-195.5 305.5t-68.5 350z" />
<glyph unicode=")" d="M233 -233q207 109 330 309t123 430q0 227 -120 423.5t-320 305.5l39 127q164 -78 287.5 -208t191 -296t67.5 -346t-68.5 -350t-195.5 -305.5t-295 -212.5z" />
<glyph unicode="*" d="M84 758l53 133l332 -156l-33 363h160l-37 -363l326 148l53 -125l-350 -107l258 -309l-113 -88l-221 340l-229 -342l-111 90l266 307z" />
<glyph unicode="+" d="M92 596v125h363v350h129v-350h350v-125h-350v-383h-129v383h-363z" />
<glyph unicode="," d="M338 -283q57 53 95 115t38 100q0 18 -10 30.5t-37 37.5q-29 27 -43 45t-14 45q0 51 33.5 86t86.5 35q55 0 97.5 -48t42.5 -122q0 -160 -219 -385z" />
<glyph unicode="-" d="M145 575v138h738v-138h-738z" />
<glyph unicode="." d="M369 94q0 47 34.5 82t83.5 35q47 0 82 -35t35 -82t-34.5 -82t-82.5 -35q-49 0 -83.5 35t-34.5 82z" />
<glyph unicode="/" d="M131 -27l641 1389l123 -64l-643 -1384z" />
<glyph unicode="0" d="M117 631q0 305 103.5 479t291.5 174t291.5 -174t103.5 -479q0 -313 -102.5 -483.5t-292.5 -170.5t-292.5 170t-102.5 484zM264 631q0 -133 19 -236l434 561q-31 98 -83 150.5t-122 52.5q-117 0 -182.5 -142.5t-65.5 -385.5zM311 283q66 -180 201 -181q117 0 182.5 137.5 t65.5 391.5q0 119 -15 205z" />
<glyph unicode="1" d="M180 1104l334 174h100v-1278h-143v1100l-258 -76z" />
<glyph unicode="2" d="M119 1036q61 119 167.5 183.5t239.5 64.5q164 0 265.5 -98.5t101.5 -265.5q0 -111 -53.5 -215.5t-136 -198.5t-230.5 -240l-139 -141h475q33 0 48 4t28 16h14v-145h-749v115l165 168q166 166 249 260t132 187t49 194q0 125 -59 180t-158 55q-88 0 -162.5 -39t-99.5 -86 q-12 -23 -24.5 -46t-12.5 -27q0 -2 2 -3q2 0 8.5 3.5t8.5 -5.5l-6 -12l-19 10z" />
<glyph unicode="3" d="M141 123l95 113l2 2l2 -2q51 -66 105 -101t140 -35q119 0 180.5 70t61.5 186q0 127 -77 190.5t-216 63.5q-20 0 -65 -4v115q182 0 248.5 67.5t66.5 184.5q0 86 -50 137t-132 51q-133 0 -234 -94l-86 86q125 131 318 131q154 0 242.5 -87t88.5 -230q0 -104 -51 -182 t-149 -109q112 -37 177.5 -119t65.5 -207q0 -102 -45 -187t-131 -135.5t-206 -50.5q-102 0 -193.5 37t-157.5 109zM234.5 248q5.5 -4 7.5 -6l-4 -4q-9 14 -3.5 10zM242 242l8 10l10 -10q0 -6 -6 -5t-12 5z" />
<glyph unicode="4" d="M98 313v105l584 860h121v-846h164v-121h-164v-311h-152v313h-553zM264 434h387v586z" />
<glyph unicode="5" d="M131 174l115 86l2 2q2 0 2 -1v-1q53 -82 112.5 -120t155.5 -38q66 0 123 38t91 106.5t34 161.5q0 139 -75 221t-187 82q-66 0 -129.5 -32t-110.5 -89l-90 37l43 649h647v-129h-526l-21 -367q100 49 209 49q111 0 198 -52t137 -149.5t50 -226.5t-52 -225t-143 -147.5 t-206 -51.5q-117 0 -216 51.5t-163 145.5zM248 262q-10 16 4 2zM252 264l10 8l8 -10q0 -12 -18 2z" />
<glyph unicode="6" d="M137 582q0 225 55.5 384.5t157 241.5t238.5 82q160 0 280 -116l-90 -103l-2 -2q-43 53 -83 73.5t-101 20.5q-68 0 -137.5 -42t-121.5 -151.5t-54 -299.5q43 72 115.5 112.5t154.5 40.5q96 0 176 -52t127 -147.5t47 -217.5q0 -125 -48 -221.5t-132 -150.5t-184 -54 q-188 0 -293 160.5t-105 441.5zM283 473q0 -90 31.5 -174t91 -138.5t135.5 -54.5q92 0 155.5 79t63.5 218q0 96 -33 163t-84 99.5t-106 32.5q-72 0 -139.5 -48t-110.5 -124q-4 -33 -4 -53zM754 1065q0 12 18 -2l-8 -8zM772 1063l4 6q12 -16 5 -11t-9 5z" />
<glyph unicode="7" d="M162 1141v135h723v-80q-252 -635 -406 -1196h-162q179 584 390 1141h-545z" />
<glyph unicode="8" d="M123 322q0 111 69.5 207t186.5 149q-88 45 -141.5 126t-53.5 173q0 137 88 226t250 89q168 0 253 -85t85 -218q0 -92 -55 -175t-148 -132q111 -51 178.5 -146.5t67.5 -205.5q0 -98 -48 -178t-137 -126t-206 -46t-206 45t-136 122.5t-47 174.5zM270 336q0 -96 66.5 -161.5 t179.5 -65.5q115 0 178.5 62t63.5 159q0 94 -74 173t-199 118q-94 -39 -154.5 -117t-60.5 -168zM322 991q0 -86 55 -141t170 -117q76 43 125 111.5t49 140.5q0 78 -53.5 132t-149.5 54t-146 -52t-50 -128z" />
<glyph unicode="9" d="M139 868q0 117 49.5 212.5t133.5 149.5t184 54q119 0 208 -68.5t137 -191.5t48 -281q0 -377 -112.5 -568t-319.5 -195q-184 0 -305 116l88 101l2 2l2 -2q43 -51 88 -73t113 -22q139 0 214.5 135.5t90.5 337.5q-51 -45 -111.5 -68.5t-138.5 -23.5q-104 0 -189 49.5 t-133.5 136.5t-48.5 199zM252 199q-12 14 4 4zM256 203l8 10l10 -10q0 -14 -18 0zM279 870q0 -119 67.5 -190.5t165.5 -71.5q86 0 144.5 24.5t105.5 82.5q-8 225 -68.5 334.5t-181.5 109.5q-106 0 -169.5 -77.5t-63.5 -211.5z" />
<glyph unicode=":" d="M367 94q0 49 35.5 84t84.5 35t86 -35t37 -84q0 -47 -35.5 -82t-87.5 -35q-51 0 -85.5 34t-34.5 83zM367 748q0 49 35.5 83.5t84.5 34.5t86 -34.5t37 -83.5q0 -47 -36.5 -82t-86.5 -35q-47 0 -83.5 34.5t-36.5 82.5z" />
<glyph unicode=";" d="M338 -283q57 53 95 115t38 100q0 18 -10 30.5t-37 37.5q-29 27 -43 45t-14 45q0 51 33.5 86t86.5 35q55 0 97.5 -48t42.5 -122q0 -160 -219 -385zM367 748q0 49 35.5 83.5t84.5 34.5t86 -34.5t37 -83.5q0 -47 -36.5 -82t-86.5 -35q-47 0 -83.5 34.5t-36.5 82.5z" />
<glyph unicode="&#x3c;" d="M72 606v99l866 456v-145l-711 -363l717 -401v-156z" />
<glyph unicode="=" d="M92 451v124h842v-124h-842zM92 772v125h842v-125h-842z" />
<glyph unicode="&#x3e;" d="M82 96v156l715 401l-711 363v145l868 -456v-99z" />
<glyph unicode="?" d="M131 1149q72 106 162 159.5t233 53.5q164 0 263.5 -86t99.5 -234q0 -117 -41 -186.5t-119 -142.5q-68 -68 -99.5 -119t-31.5 -131v-84h-135v84q0 100 37 161.5t108 131.5q70 70 105 127t35 149t-63.5 148.5t-164.5 56.5q-94 0 -160.5 -27.5t-87.5 -62.5q-39 -61 -39 -70 q0 -2 7.5 1t9.5 -5l-6 -12l-19 10zM416 94q0 47 34.5 82t84.5 35q47 0 81.5 -35t34.5 -82t-34.5 -82t-81.5 -35q-50 0 -84.5 35t-34.5 82z" />
<glyph unicode="@" d="M63 641q0 215 72 362.5t184.5 220t235.5 72.5q104 0 195.5 -52t146.5 -156.5t55 -251.5v-478h-123v78q-80 -94 -198 -94q-117 0 -195 77t-78 193q0 133 104.5 216t299.5 83q41 0 61 -2q0 119 -74.5 198t-199.5 79q-100 0 -184 -57.5t-133.5 -175t-49.5 -289.5 q0 -186 61.5 -314.5t161 -192t211.5 -63.5q119 0 220 68l55 -101q-133 -84 -287 -84q-141 0 -265 74t-200 223.5t-76 366.5zM485 621q0 -78 42 -122t122 -44q96 0 138 79.5t42 272.5q-49 4 -69 4q-133 0 -204 -50t-71 -140z" />
<glyph unicode="A" d="M33 0l471 1298h16l471 -1298h-147l-129 373h-412l-129 -373h-141zM342 483h336l-168 488z" />
<glyph unicode="B" d="M98 0v1276h363q213 0 318.5 -83t105.5 -226q0 -94 -50.5 -173t-138.5 -110q106 -37 173 -128t67 -198q0 -168 -119 -263t-358 -95h-361zM240 125h243q301 0 301 242q0 260 -335 260h-209v-502zM240 748h200q301 0 301 202q0 92 -67.5 148.5t-210.5 56.5h-223v-407z" />
<glyph unicode="C" d="M84 631q0 236 71.5 382t182.5 209.5t237 63.5q135 0 234.5 -67.5t151.5 -184.5l-123 -57q-2 0 -2 1v1q-53 106 -119 149t-146 43q-162 0 -255 -140t-93 -390q0 -158 47 -280.5t128 -190.5t180 -68q75 0 145 42t113 114l106 -70q-63 -104 -149 -156t-209 -52 q-143 0 -255 70.5t-178.5 216t-66.5 364.5zM813 983l4 4q4 0 17 -12l-15 -6zM834 975l4 2q8 -18 -4 -2z" />
<glyph unicode="D" d="M111 -2v1278h297q158 0 250 -42t159 -132q125 -168 125 -471q-12 -309 -143 -472q-129 -161 -409 -161h-7h-272zM246 111h131q422 0 422 512q-2 260 -96.5 396t-303.5 136h-153v-1044z" />
<glyph unicode="E" d="M121 0v1278h782v-127h-647v-420h535v-131h-535v-473h641v-127h-776z" />
<glyph unicode="F" d="M160 0v1278h735v-125h-592v-401h477v-125h-477v-627h-143z" />
<glyph unicode="G" d="M74 623v13q0 245 74 390q75 148 185.5 206t223.5 58q115 0 221.5 -59.5t159.5 -155.5l-100 -80l-2 -2q-70 92 -129.5 131t-147.5 39q-154 0 -249 -118.5t-95 -391.5q0 -262 93 -404.5t259 -142.5q61 0 129 19.5t113 58.5v303h-231v125h364v-499q-182 -133 -375 -133 q-152 0 -263 79.5t-170.5 225t-59.5 338.5zM813 993q0 12 18 -2l-10 -10zM831 991l5 2q9 -14 -5 -2z" />
<glyph unicode="H" d="M102 0v1276h168v-14q-12 -12 -15 -26.5t-3 -49.5v-455h500v545h168v-14q-12 -12 -15.5 -26.5t-3.5 -49.5v-1186h-151v608h-498v-608h-150z" />
<glyph unicode="I" d="M166 0v121h252v1034h-238v121h633v-121h-252v-1036h264v-119h-659z" />
<glyph unicode="J" d="M100 119l82 102l2 2l2 -2q57 -61 105.5 -89t109.5 -28q104 0 150.5 73t46.5 249v729h-246v121h584v-121h-197v-727v-25q0 -139 -41 -231q-45 -100 -121.5 -147.5t-170.5 -47.5q-188 0 -306 142zM180 231q6 -2 8 -4l-4 -4q-10 10 -4 8zM188 227l9 11l10 -9q0 -8 -6 -7 t-13 5z" />
<glyph unicode="K" d="M86 0v1276h172v-14q-12 -12 -15 -26.5t-3 -49.5v-498l532 598q51 -10 107 -10h53l-483 -551l516 -725l-185 -8l-440 647l-100 -111v-528h-154z" />
<glyph unicode="L" d="M135 0v1276h168v-14q-12 -12 -15 -26.5t-3 -49.5v-1063h614v-123h-764z" />
<glyph unicode="M" d="M84 0v1276h113l315 -625l322 627h108v-1278h-135v963l-277 -514h-55l-258 507v-956h-133z" />
<glyph unicode="N" d="M102 0v1276h140l536 -946v946h156v-14q-12 -12 -15.5 -26.5t-3.5 -49.5v-1186h-112l-563 1004v-1004h-138z" />
<glyph unicode="O" d="M55 631q0 305 120 479t337 174t337 -174t120 -479q0 -313 -119 -483.5t-338 -170.5t-338 170t-119 484zM203 631q0 -254 81 -391.5t228 -137.5t228 137.5t81 391.5q0 244 -82 386t-227 142t-227 -142.5t-82 -385.5z" />
<glyph unicode="P" d="M121 0v1276h409q203 0 303.5 -100.5t100.5 -260.5q0 -158 -98.5 -255t-294.5 -97h-273v-563h-147zM268 690h256q135 0 198.5 58.5t63.5 162.5q0 100 -65.5 165t-194.5 65h-258v-451z" />
<glyph unicode="Q" d="M59 631q0 238 70 385t173.5 210.5t211.5 63.5q123 0 227.5 -69.5t166.5 -216.5q57 -139 57 -341v-26q0 -283 -95.5 -446.5t-281.5 -204.5q4 -76 37.5 -115t113.5 -39l166 10l-4 -139h-80q-22 -1 -42 -1q-165 0 -236 58q-80 64 -80 226q-106 14 -198.5 91t-149 217 t-56.5 337zM199 662q0 -246 87 -397.5t238 -151.5q76 0 144.5 50t113.5 159.5t45 279.5q0 213 -48 338t-118.5 175t-146.5 50q-152 0 -233.5 -146.5t-81.5 -356.5z" />
<glyph unicode="R" d="M115 0v1276h377q217 0 320 -96.5t103 -268.5q0 -113 -72.5 -213t-187.5 -129l295 -569h-159l-283 563h-248v-563h-145zM260 690h248q133 0 196.5 58.5t63.5 162.5q0 102 -64.5 166t-195.5 64h-248v-451z" />
<glyph unicode="S" d="M106 141l74 129v2q2 0 2 -1v-1q55 -74 142.5 -117.5t201.5 -43.5q113 0 189 63.5t76 155.5q0 59 -24 99t-85 79t-184 92q-188 74 -269.5 168t-81.5 211q0 143 104.5 229t285.5 86q104 0 195 -42t159 -117l-80 -107l-2 -2q-61 84 -128 117t-167 33q-98 0 -158.5 -54.5 t-60.5 -132.5q0 -59 25.5 -103t93 -86t196.5 -93q183 -76 252.5 -156t69.5 -201q0 -94 -46 -178t-142.5 -137t-237.5 -53q-248 0 -400 161zM180 272q-12 17 4 9zM184 281l4 8l15 -8v-2q0 -6 -8.5 -2t-10.5 4zM786 1018v2q0 6 8.5 2t10.5 -4l-6 -8zM805 1018l4 6 q12 -16 5 -11t-9 5z" />
<glyph unicode="T" d="M63 1149v129h885v-129h-377v-1149h-145v1149h-363z" />
<glyph unicode="U" d="M102 440v836h160v-14q-12 -12 -15 -26.5t-3 -49.5v-748q0 -164 63.5 -252t208.5 -88q147 0 212 88t65 258v832h137v-830q0 -236 -109.5 -352.5t-306.5 -116.5q-203 0 -307.5 121t-104.5 342z" />
<glyph unicode="V" d="M51 1278h150l327 -981l310 979h141l-428 -1284h-66z" />
<glyph unicode="W" d="M35 1276h133l137 -862l205 768h45l207 -772l117 866h120l-202 -1276h-56l-219 834l-223 -834h-59z" />
<glyph unicode="X" d="M84 0l348 651l-342 627h154l268 -485l264 485h144l-324 -625l362 -653h-161l-283 506l-274 -506h-156z" />
<glyph unicode="Y" d="M57 1276h164l314 -619l282 619h152l-363 -772v-504h-155v504z" />
<glyph unicode="Z" d="M102 0v100l643 1047h-618v129h788v-100l-632 -1049h575q33 0 48.5 4t27.5 16h14v-147h-846z" />
<glyph unicode="[" d="M268 -182v1554h586v-123h-455v-1315h457v-116h-588z" />
<glyph unicode="\" d="M131 1298l121 64l643 -1389l-121 -59z" />
<glyph unicode="]" d="M268 -66h457v1315h-455v123h586v-1554h-588v116z" />
<glyph unicode="^" d="M190 752l314 524h45l276 -522l-108 -52l-199 359l-225 -359z" />
<glyph unicode="_" d="M72 -39h882v-125h-882v125z" />
<glyph unicode="`" d="M315 1315l113 82l172 -305l-78 -54z" />
<glyph unicode="a" d="M100 236q0 98 63.5 171.5t171 113.5t236.5 40q117 0 211 -12q-12 158 -82.5 222.5t-210.5 64.5q-70 0 -134 -27t-117 -78l-72 94q131 131 334 131q200 0 305.5 -104t105.5 -354v-498h-159v143q-86 -166 -320 -166q-156 0 -244 71t-88 188zM248 244q0 -154 198 -154 q152 0 240 89t96 257q-92 14 -198 15q-156 0 -246 -51.5t-90 -155.5z" />
<glyph unicode="b" d="M123 0v1362h168v-14q-12 -12 -15.5 -26.5t-3.5 -49.5v-479q45 76 122 120.5t157 44.5q176 0 280.5 -122.5t104.5 -358.5q0 -160 -55.5 -273.5t-145.5 -170t-190 -56.5q-84 0 -156 38t-121 108l-51 -123h-94zM272 465q0 -356 254 -356q111 0 184.5 87t73.5 273 q0 180 -68.5 271t-185.5 91q-115 0 -186.5 -102t-71.5 -264z" />
<glyph unicode="c" d="M115 467q0 139 60.5 249.5t167 174t239.5 63.5q113 0 205 -46t149 -128l-92 -90l-2 -2q-59 78 -122 109.5t-155 31.5q-80 0 -148.5 -44t-109.5 -123.5t-41 -184.5q0 -104 42 -188t117 -131t167 -47h2q140 0 242 114l86 -100q-137 -147 -338 -148q-135 0 -241.5 63.5 t-167 175.5t-60.5 251zM819 686q1 12 19 -2l-9 -8zM838 684l4 4q10 -14 5 -10t-9 6z" />
<glyph unicode="d" d="M92 477q0 162 57.5 270.5t147.5 161t190 52.5q94 0 165 -43.5t108 -118.5v563h155v-14q-12 -12 -15 -26.5t-3 -49.5l2 -1127q0 -49 3 -80.5t18 -64.5h-146q-14 33 -17 64.5t-3 80.5q-45 -78 -116 -121.5t-159 -43.5q-100 0 -188 56t-143.5 168.5t-55.5 272.5zM236 500 q0 -180 68.5 -285.5t197.5 -105.5q127 0 186.5 100t59.5 264q0 166 -65 266.5t-194 100.5q-123 0 -188 -91.5t-65 -248.5z" />
<glyph unicode="e" d="M100 465q0 154 57.5 265.5t155 169.5t217.5 58q170 0 275.5 -112.5t105.5 -331.5q0 -23 -4 -68h-665q8 -172 96 -260t223 -88q147 0 242 105l82 -80q-119 -143 -328 -143t-333 126.5t-124 358.5zM248 561h514q0 131 -66.5 208t-175.5 77q-102 0 -178 -72t-94 -213z" />
<glyph unicode="f" d="M129 819v117h203v78q0 180 93 270t251 90q90 0 167 -32.5t126 -96.5l-78 -108l-2 -2q-57 72 -97 96t-112 24q-96 0 -151.5 -57t-55.5 -184v-78h307v-117h-307v-819h-141v819h-203zM866 1128v2q0 6 8.5 2t10.5 -4l-6 -8zM885 1128l4 7q12 -16 5 -11.5t-9 4.5z" />
<glyph unicode="g" d="M78 -111q0 74 41 127.5t104 83.5q-67 44 -67 123q0 84 84 174q-51 45 -78 108.5t-27 139.5q0 90 40 165t115 118t173 43q150 0 239 -97q49 45 101.5 67t116.5 22l34 -2l19 -121q-18 2 -53 2q-98 0 -164 -43q35 -70 35 -154q0 -92 -40 -167t-115 -118t-173 -43 q-78 0 -146 29q-36 -44 -36 -84q0 -51 62.5 -72.5t223.5 -21.5q199 0 271.5 -60.5t72.5 -177.5q0 -121 -98 -201.5t-307 -80.5q-201 0 -314.5 61.5t-113.5 179.5zM213 -94q0 -70 78 -109t217 -39q135 0 201.5 40t66.5 110q0 49 -17.5 76.5t-68.5 41t-153 13.5 q-147 0 -236 27q-49 -33 -68.5 -68t-19.5 -92zM258 645q0 -86 58.5 -145.5t146.5 -59.5t146.5 59.5t58.5 145.5t-58.5 145.5t-146.5 59.5t-146.5 -59.5t-58.5 -145.5z" />
<glyph unicode="h" d="M150 0v1362h161v-14q-12 -12 -15 -26.5t-3 -49.5v-502q55 86 138 137t169 51q133 0 209 -94t76 -297v-567h-144v563q0 139 -47 202.5t-125 63.5q-66 0 -129 -35.5t-105 -102t-42 -152.5v-539h-143z" />
<glyph unicode="i" d="M205 0v119h239v698h-227v119h375v-817h219v-119h-606zM406 1237q0 45 29.5 75.5t74.5 30.5q43 0 75 -31.5t32 -74.5t-32 -73.5t-75 -30.5t-73.5 30.5t-30.5 73.5z" />
<glyph unicode="j" d="M98 -225l82 110l2 2l2 -2q41 -53 91.5 -83.5t119.5 -30.5q96 0 153.5 65.5t57.5 200.5v778h-348v121h498v-891q0 -203 -100.5 -302t-258.5 -99q-90 0 -167.5 32.5t-131.5 98.5zM178 -102q2 0 8 -4l-4 -7q-6 11 -4 11zM186 -106l7 8l12 -8v-3q0 -6 -6 -4t-13 7zM566 1237 q0 45 29.5 75.5t74.5 30.5q43 0 75 -31.5t32 -74.5t-32 -73.5t-75 -30.5t-73.5 30.5t-30.5 73.5z" />
<glyph unicode="k" d="M135 0v1362h168v-14q-12 -12 -15 -26.5t-3 -49.5v-766l469 434q51 -10 108 -10h53l-393 -371l459 -559l-190 -8l-383 477l-123 -115v-354h-150z" />
<glyph unicode="l" d="M162 0v119h276v1124h-264v119h414v-1243h274v-119h-700z" />
<glyph unicode="m" d="M78 0v936h135v-92q33 51 84 82.5t106 31.5q61 0 107.5 -38.5t58.5 -98.5q27 61 84.5 99t126.5 38q92 0 138 -66q43 -61 43 -156v-17v-719h-136v664q0 117 -22.5 151.5t-65.5 34.5q-37 0 -71.5 -35t-56 -89t-21.5 -108v-618h-137v651q0 115 -21.5 155t-81.5 40 q-31 0 -62.5 -27.5t-52 -78t-20.5 -115.5v-625h-135z" />
<glyph unicode="n" d="M147 0v936h144v-166q55 86 139 137t178 51q125 0 200 -95t75 -296v-567h-144v563q0 139 -47 202.5t-125 63.5q-63 0 -127.5 -36.5t-106.5 -103t-42 -150.5v-539h-144z" />
<glyph unicode="o" d="M80 469q0 141 55 251.5t153.5 173t223.5 62.5t223.5 -62.5t153.5 -173t55 -251.5t-55 -252t-153.5 -172t-223.5 -61t-223.5 61t-153.5 172t-55 252zM236 471q0 -104 35.5 -187t98 -130.5t142.5 -47.5t142.5 47.5t98 130.5t35.5 187q0 160 -77.5 261.5t-198.5 101.5 t-198.5 -101.5t-77.5 -261.5z" />
<glyph unicode="p" d="M123 -342v1278h149v-184q31 102 107 153t178 51q106 0 195.5 -54t142.5 -162.5t53 -264.5q0 -158 -55 -271.5t-146.5 -171t-193.5 -57.5q-84 0 -157.5 39t-121.5 109v-465h-151zM272 436q4 -162 72 -246t184 -84q113 0 190 85t77 278q0 174 -68 267t-192 93 q-117 0 -190 -97t-73 -296z" />
<glyph unicode="q" d="M86 471q0 150 55.5 261.5t149.5 170t207 58.5q96 0 163.5 -42t104.5 -120v137h139v-1278h-147v492q-43 -80 -119 -125t-168 -45q-106 0 -194.5 62t-139.5 174t-51 255zM236 477q0 -170 70.5 -269t191.5 -99q114 0 185 95t71 290q0 346 -240 346q-123 0 -200.5 -92.5 t-77.5 -270.5z" />
<glyph unicode="r" d="M244 -2v938h153l-4 -172q39 92 120 143t177 51q150 0 248 -102l-66 -115v-2q-59 55 -99 73.5t-93 18.5q-74 0 -139.5 -36.5t-106.5 -111.5t-41 -187v-498h-149zM850 731v2q0 6 6 5t12 -5l-4 -10zM868 733l4 6q15 -12 7.5 -10t-11.5 4z" />
<glyph unicode="s" d="M117 127l82 139l2 2l2 -2q63 -82 130.5 -123t184.5 -41q111 0 174.5 40t63.5 110q0 59 -51.5 98t-184.5 82q-352 100 -352 291q0 109 89 172t255 63q127 0 214 -35.5t159 -111.5l-84 -102l-2 -2q-43 66 -122 103.5t-161 37.5q-88 0 -144.5 -31t-56.5 -86q0 -51 57.5 -94 t207.5 -86q176 -53 248.5 -115.5t72.5 -163.5q0 -127 -99.5 -209.5t-287.5 -82.5q-238 0 -397 147zM197 279q2 0 8 -5l-4 -6q-6 11 -4 11zM205 274l6 11l12 -9v-2q0 -8 -18 0zM776 702q1 10 17 -2l-7 -8zM793 700l6 7q6 -9 5 -11t-5 0t-6 4z" />
<glyph unicode="t" d="M143 815v121h215l15 250l164 26l20 2l2 -12q-14 -20 -21.5 -34.5t-9.5 -45.5l-22 -186h311v-121h-319l-19 -317q-4 -82 -4 -109q0 -164 38 -222t122 -58q61 0 112.5 22.5t116.5 71.5l45 -117q-135 -100 -297 -100q-156 0 -220 94t-64 307q0 35 4 121l18 307h-207z" />
<glyph unicode="u" d="M131 414l2 522h143v-522q0 -168 58.5 -243t154.5 -75q106 0 179 83t73 241v516h144v-791q0 -49 3 -80.5t17 -64.5h-141q-14 31 -17.5 63.5t-3.5 79.5q-45 -78 -121.5 -122t-168.5 -44q-148 0 -236 110q-86 108 -86 317v10z" />
<glyph unicode="v" d="M82 936h147l289 -733l152 346q94 213 123 387h139q-33 -166 -137 -410l-228 -526h-114z" />
<glyph unicode="w" d="M33 936h129l151 -752l160 664h90l199 -662q57 383 71.5 503t14.5 216v31h137q-61 -475 -156 -938h-139l-172 606l-164 -606h-133z" />
<glyph unicode="x" d="M96 0l330 475l-324 461h162l244 -346l233 346h152l-303 -455l344 -481h-168l-258 365l-244 -365h-168z" />
<glyph unicode="y" d="M45 -276l64 100l2 2l2 -2q33 -31 69.5 -45.5t85.5 -14.5q76 0 121 53.5t88 176.5l-383 942h154l291 -750l123 377q45 141 66.5 216t31.5 157h147q-12 -84 -37.5 -166t-72.5 -217l-234 -659q-47 -131 -122.5 -190.5t-180.5 -59.5q-131 0 -215 80zM105.5 -166 q5.5 -2 7.5 -2l-2 -6q-11 10 -5.5 8zM113 -168l8 10l12 -8v-2q0 -4 -4 -4z" />
<glyph unicode="z" d="M102 0v100l580 707h-537v129h727v-100l-569 -709h528q33 0 48.5 4t27.5 16h15v-147h-820z" />
<glyph unicode="{" d="M109 467v115h38q96 0 143.5 52t47.5 167l-4 147q0 356 373 357h129v-117h-168q-190 0 -191 -217l4 -144q0 -225 -178 -303q174 -57 174 -317l-6 -172q0 -137 59.5 -191.5t198.5 -54.5h105v-115h-74q-156 0 -252 31t-142.5 108.5t-39.5 219.5l8 205q0 129 -45 179t-139 50 h-41z" />
<glyph unicode="|" d="M444 -309v1644h138v-1644h-138z" />
<glyph unicode="}" d="M111 1188v117h129q373 0 372 -357l-4 -147q0 -115 47 -167t144 -52h39v-115h-41q-94 0 -139.5 -50t-45.5 -179l9 -205q6 -141 -40 -219t-142.5 -109t-252.5 -31h-73v115h104q139 0 198.5 54.5t59.5 191.5l-6 172q0 260 174 317q-178 78 -178 303l4 144q0 217 -190 217 h-168z" />
<glyph unicode="~" d="M145 604q35 74 98.5 119t153.5 45q49 0 85 -15.5t85 -43.5q41 -27 72 -39.5t66 -12.5q45 0 74.5 20.5t70.5 78.5l94 -58q-53 -86 -104.5 -119.5t-126.5 -33.5q-51 0 -91 16.5t-87 44.5q-45 25 -73 37t-61 12q-49 0 -85.5 -21.5t-69.5 -74.5z" />
<glyph unicode="&#xa0;" />
<glyph unicode="&#xa1;" d="M369 1106q0 49 35.5 84t84.5 35q50 0 86.5 -36t36.5 -83q0 -49 -36.5 -86t-86.5 -37q-49 0 -84.5 37t-35.5 86zM389 -14l51 819h103l55 -799q0 -172 -104 -172q-49 0 -77 40t-28 112z" />
<glyph unicode="&#xa2;" d="M115 555q0 135 57 243.5t158.5 174t228.5 69.5l33 234h100l-30 -240q86 -14 157.5 -57t116.5 -111l-92 -90l-2 -2q-47 61 -93.5 93t-105.5 42l-92 -710q12 -2 41 -2q142 -1 244 114l86 -100q-137 -147 -338 -147q-35 0 -52 2l-28 -218h-107l33 240q-143 47 -229 172 t-86 293zM266 565q0 -114 49.5 -202.5t133.5 -131.5l94 687q-74 -6 -137.5 -51.5t-101.5 -124t-38 -177.5zM819 774q1 12 19 -2l-9 -8zM838 772l4 4q10 -14 5 -10t-9 6z" />
<glyph unicode="&#xa3;" d="M80 100q127 61 175 136t48 219q0 78 -31 202h-135v117h107q-14 66 -15 131q0 109 48.5 194t131.5 131t181 46q154 0 266 -105l-90 -112q-43 51 -86 75.5t-127 24.5t-135 -67.5t-51 -184.5q0 -45 16 -133h266v-117h-237q27 -109 26 -198q0 -154 -73 -275q12 2 34 2 q47 0 93.5 -11t107.5 -34q61 -20 95 -28.5t69 -8.5q76 0 145 58l54 -107q-106 -86 -213 -86q-35 0 -156 39q-86 27 -135 40t-90 13q-90 0 -236 -77z" />
<glyph unicode="&#xa4;" d="M139 408l115 116q-57 82 -57 183q0 104 59 184l-117 117l74 71l115 -114q84 59 186 59q98 0 182 -57l115 112l74 -71l-115 -113q61 -86 61 -188t-59 -187l113 -112l-74 -72l-113 113q-80 -59 -184 -60q-102 0 -188 62l-113 -115zM307 707q0 -86 55.5 -145.5t149.5 -59.5 q96 0 151.5 59.5t55.5 145.5q0 88 -55.5 147t-151.5 59q-94 0 -149.5 -59t-55.5 -147z" />
<glyph unicode="&#xa5;" d="M74 1278h159l297 -535l273 533h151l-356 -672v-43h274v-117h-274v-129h274v-114h-274v-201h-139v201h-287v114h287v129h-287v117h287v43z" />
<glyph unicode="&#xa6;" d="M444 -309v710h138v-710h-138zM444 604v731h138v-731h-138z" />
<glyph unicode="&#xa7;" d="M133 63l107 125q14 -4 17 -19t13.5 -33.5t44.5 -51.5q66 -59 164 -59q96 0 153.5 46t57.5 115q0 72 -50 115t-189 84q-158 51 -223.5 110.5t-65.5 151.5q0 68 46 124t122 83q-137 82 -137 231q0 78 44 144.5t120.5 106.5t168.5 40q100 0 185.5 -48t134.5 -134l-117 -102 q-8 8 -12 22q-8 55 -63.5 98t-129.5 43q-76 0 -129 -46t-53 -111q0 -55 27.5 -90t81 -61.5t167.5 -69.5l50 -19q188 -90 188 -233q0 -61 -42 -115.5t-109 -81.5q131 -88 131 -227q0 -88 -45.5 -160t-125 -112t-178.5 -40q-106 0 -199 45.5t-155 128.5zM311 688 q0 -68 50.5 -112t162.5 -76l41 -13q55 -16 64 -20q73 41 73 131q0 66 -48 108t-162 80l-89 31q-41 -14 -66.5 -49t-25.5 -80z" />
<glyph unicode="&#xa8;" d="M229 1257q0 41 31 73t74 32q41 0 71.5 -31t30.5 -74q0 -41 -30.5 -71.5t-71.5 -30.5q-43 0 -74 31t-31 71zM596 1257q0 43 29.5 74t72.5 31q41 0 72 -31t31 -74q0 -41 -31 -71.5t-72 -30.5q-43 0 -72.5 29.5t-29.5 72.5z" />
<glyph unicode="&#xa9;" d="M29 561q0 141 66.5 262t181 191.5t247.5 70.5t247 -70.5t181.5 -191.5t67.5 -262q0 -217 -148 -371q-145 -152 -350 -151q-133 0 -246.5 70.5t-180 190.5t-66.5 261zM121 561q0 -119 54 -218t147.5 -157.5t203.5 -58.5q109 0 202 59.5t148.5 159.5t55.5 217t-54.5 217.5 t-147.5 159.5t-204 59t-204 -58t-147 -158.5t-54 -221.5zM236 565q0 84 40.5 153.5t107.5 109.5t136 40q109 0 180.5 -51t92.5 -139l-107 -39q-8 12 -9 30.5t-10.5 34t-48.5 41.5q-33 20 -81 21q-68 0 -127.5 -48t-59.5 -143q0 -90 56.5 -154.5t136.5 -64.5q49 0 90 25 t63 68l90 -60q-43 -66 -110.5 -102.5t-140.5 -36.5q-82 0 -151 43t-108.5 115.5t-39.5 156.5z" />
<glyph unicode="&#xaa;" d="M156 311v111h714v-111h-714zM209 741q0 238 356 238q31 0 101 -4q0 100 -35 145t-117 45q-127 0 -192 -90l-70 84q102 115 274 115q143 -4 207 -74t64 -207v-446h-129v67q-94 -88 -209 -88q-111 0 -180.5 62.5t-69.5 152.5zM340 743q0 -43 36 -74.5t97 -31.5 q94 0 146.5 59.5t52.5 171.5q-37 4 -103 4q-117 0 -173 -31.5t-56 -97.5z" />
<glyph unicode="&#xab;" d="M137 471v47l312 301l79 -84l-247 -241l262 -287l-82 -82zM510 471v47l309 301l80 -84l-248 -241l262 -287l-82 -82z" />
<glyph unicode="&#xac;" d="M186 582v129h662v-389h-131v260h-531z" />
<glyph unicode="&#xad;" d="M145 575v138h738v-138h-738z" />
<glyph unicode="&#xae;" d="M29 561q0 141 66.5 262t181 191.5t247.5 70.5t247 -70.5t181.5 -191.5t67.5 -262q0 -217 -148 -371q-145 -152 -350 -151q-133 0 -246.5 70.5t-180 190.5t-66.5 261zM121 561q0 -119 54 -218t147.5 -157.5t203.5 -58.5q109 0 202 59.5t148.5 159.5t55.5 217t-54.5 217.5 t-147.5 159.5t-204 59t-204 -58t-147 -158.5t-54 -221.5zM317 272v598h193q127 0 186.5 -47t59.5 -127q0 -53 -31 -97t-86 -60l131 -256l-96 -15l-127 256h-135v-252h-95zM412 606h106q145 0 146 90q0 90 -152 90h-100v-180z" />
<glyph unicode="&#xaf;" d="M252 1157v115h520v-115h-520z" />
<glyph unicode="&#xb0;" d="M248 1032q0 76 38 139.5t101.5 100.5t136.5 37q74 0 137.5 -38t101.5 -101.5t38 -137.5t-37 -136t-100.5 -100t-139.5 -38q-75 0 -138.5 36.5t-100.5 99t-37 138.5zM373 1034q0 -66 44 -115t107 -49q66 0 110 48.5t44 115.5q0 66 -44 116t-108 50q-63 0 -108 -50 t-45 -116z" />
<glyph unicode="&#xb1;" d="M92 702v125h363v351h129v-351h350v-125h-350v-385h-129v385h-363zM94 35v129h842v-129h-842z" />
<glyph unicode="&#xb2;" d="M227 1135q49 82 132 129t188 47q119 0 183.5 -65.5t64.5 -170.5q0 -66 -38 -124t-95.5 -109t-163.5 -133q-23 -18 -49.5 -38t-53.5 -42h334q33 0 48.5 4t27.5 16h14v-131h-571v111q162 133 246 209.5t124.5 133t40.5 103.5q0 57 -30.5 87t-83.5 30q-61 0 -118.5 -20.5 t-66.5 -38.5q-37 -72 -36 -74q0 -2 2 -2t8 3t8 -5l-6 -13l-19 11z" />
<glyph unicode="&#xb3;" d="M229 647l84 96l2 2q43 -68 90.5 -97.5t126.5 -29.5q76 0 123 34t47 89q0 63 -49 96t-129 33q-16 0 -61 -4v113q14 -2 41 -2q82 0 117.5 28.5t35.5 84.5q0 104 -131 104q-113 0 -192 -98l-82 90q106 125 276 125q115 0 186.5 -53.5t71.5 -143.5q0 -63 -24.5 -106 t-75.5 -72q68 -16 108 -65.5t40 -118.5q0 -68 -41 -124.5t-111 -89t-152 -32.5q-184 0 -301 141zM310 756q1 2 5 0t7 -4l-7 -7q-6 9 -5 11zM322 752l6 8l10 -10q0 -10 -16 2z" />
<glyph unicode="&#xb4;" d="M442 1122l172 305l113 -81l-207 -277z" />
<glyph unicode="&#xb5;" d="M49 -342q1 74 19 340q23 360 22 416v522h135v-555q0 -156 53.5 -220.5t145.5 -72.5q100 8 153.5 87t53.5 218v543h131v-698q0 -141 82 -142q29 0 58.5 23.5t41.5 52.5l12 25l56 -105q-76 -113 -181 -112q-66 0 -112.5 45t-54.5 112q-35 -76 -103.5 -116.5t-148.5 -40.5 q-78 0 -141.5 36.5t-92.5 106.5q0 -309 -2 -465h-127z" />
<glyph unicode="&#xb6;" d="M131 1028q0 147 121 240.5t385 93.5h256v-1501h-119v1384h-156v-1384h-120v798q-100 4 -184.5 55.5t-133.5 134.5t-49 179z" />
<glyph unicode="&#xb7;" d="M367 678q0 49 35.5 83t84.5 34q47 0 85 -35t38 -82t-35.5 -82t-87.5 -35q-51 0 -85.5 34t-34.5 83z" />
<glyph unicode="&#xb8;" d="M346 -340l51 86q78 -61 178 -61q102 0 103 73q0 33 -27.5 50.5t-77.5 17.5h-61l23 174h90l-13 -96q86 -8 130 -46t44 -87q0 -74 -61 -124t-176 -50q-109 0 -203 63z" />
<glyph unicode="&#xb9;" d="M250 1145l272 151h90v-778h-131v635l-198 -72z" />
<glyph unicode="&#xba;" d="M156 311v111h714v-111h-714zM197 889q0 111 43 199t114.5 137t155.5 49q131 0 217 -99.5t86 -271.5q0 -115 -43 -201t-113.5 -132t-154.5 -46t-153.5 46t-110.5 129t-41 190zM319 897q0 -119 53.5 -186.5t131.5 -67.5q80 0 133 66.5t53 185.5q0 121 -53 192.5t-131 71.5 t-132.5 -71.5t-54.5 -190.5z" />
<glyph unicode="&#xbb;" d="M147 207l263 287l-248 241l80 84l309 -301v-47l-322 -346zM518 207l262 287l-248 241l80 84l312 -301v-47l-324 -346z" />
<glyph unicode="&#xbc;" d="M10 1268l219 118h70v-620h-104v491l-158 -40zM156 -33l641 1395l98 -55l-643 -1393zM483 16v60l328 420h63v-404h103v-76h-103v-159h-94v159h-297zM590 92h192v244z" />
<glyph unicode="&#xbd;" d="M10 1268l219 118h70v-620h-104v491l-158 -40zM156 -33l641 1395l98 -55l-643 -1393zM539 344q80 137 258 137q84 0 142 -56t58 -132q0 -45 -13 -76t-50 -63.5t-119 -90.5q-90 -66 -141 -122h299q4 0 17.5 7t21.5 7v-105h-459v72q86 115 215 211q78 61 104.5 91t26.5 63 q0 51 -34 80.5t-89 29.5q-94 0 -145 -69q-4 -4 -8.5 -16.5t-8.5 -18.5z" />
<glyph unicode="&#xbe;" d="M23 872l77 86q4 -4 10.5 -22t12.5 -25q53 -53 129 -53q59 0 105 30t46 68q0 49 -33.5 74t-111.5 25q-33 0 -49 -2v82q12 -4 18 -5l27 3q61 0 93 24.5t32 59.5q0 37 -35 67.5t-88 30.5q-92 0 -152 -78l-59 61q86 102 217 103q90 0 151.5 -51.5t61.5 -124.5 q0 -45 -25.5 -80t-66.5 -49q53 -8 87 -48t34 -92q0 -80 -74 -135t-174 -55q-139 0 -233 106zM166 -33l641 1395l98 -55l-643 -1393zM483 16v60l328 420h63v-404h103v-76h-103v-159h-94v159h-297zM590 92h192v244z" />
<glyph unicode="&#xbf;" d="M131 68q0 117 41 186.5t119 142.5q68 68 99.5 119t31.5 131v84h135v-84q0 -100 -37 -161.5t-108 -131.5q-70 -70 -105 -127t-35 -149t63.5 -148.5t164.5 -56.5q94 0 160.5 27.5t87.5 62.5q39 61 38 70q0 2 -7 -1t-9 5l6 12l19 -10l94 -78q-72 -106 -162 -159.5 t-233 -53.5q-164 0 -263.5 86t-99.5 234zM369 1016q0 47 34.5 82t81.5 35q50 0 84.5 -35t34.5 -82t-34.5 -82t-84.5 -35q-47 0 -81.5 35t-34.5 82z" />
<glyph unicode="&#xc0;" d="M33 0l471 1298h16l471 -1298h-147l-129 373h-412l-129 -373h-141zM252 1477l82 143l313 -182l-47 -86zM342 483h336l-168 488z" />
<glyph unicode="&#xc1;" d="M33 0l471 1298h16l471 -1298h-147l-129 373h-412l-129 -373h-141zM315 1438l312 182l82 -143l-347 -125zM342 483h336l-168 488z" />
<glyph unicode="&#xc2;" d="M33 0l471 1298h16l471 -1298h-147l-129 373h-412l-129 -373h-141zM188 1419l293 201h45l310 -203l-62 -74l-266 144l-252 -146zM342 483h336l-168 488z" />
<glyph unicode="&#xc3;" d="M33 0l471 1298h16l471 -1298h-147l-129 373h-412l-129 -373h-141zM195 1468q31 74 83 119t128 45q43 0 73.5 -15t73.5 -44q35 -27 61.5 -39t57.5 -12q33 0 54.5 20.5t49.5 77.5l94 -57q-45 -86 -87 -120t-103 -34q-43 0 -77 15.5t-79 45.5q-39 25 -62.5 37.5t-51.5 12.5 q-37 0 -63.5 -21.5t-51.5 -75.5zM342 483h336l-168 488z" />
<glyph unicode="&#xc4;" d="M33 0l471 1298h16l471 -1298h-147l-129 373h-412l-129 -373h-141zM225 1511q0 41 31 73t72 32q43 0 73.5 -31t30.5 -74q0 -41 -30.5 -71.5t-73.5 -30.5q-41 0 -72 30.5t-31 71.5zM342 483h336l-168 488zM592 1511q0 43 29.5 74t70.5 31q43 0 74 -31t31 -74 q0 -41 -31 -71.5t-74 -30.5q-41 0 -70.5 29.5t-29.5 72.5z" />
<glyph unicode="&#xc5;" d="M33 0l461 1268q-72 8 -121 59t-49 121q0 74 56 127t132 53t131 -53t55 -129q0 -68 -48 -119t-120 -59l461 -1268h-147l-129 373h-412l-129 -373h-141zM342 483h336l-168 488zM428 1448q0 -39 25.5 -65.5t60.5 -26.5t59.5 26.5t24.5 65.5q0 41 -24.5 67.5t-59.5 26.5 q-37 0 -61.5 -26.5t-24.5 -67.5z" />
<glyph unicode="&#xc6;" d="M31 0l401 1278h582v-127h-350v-420h297v-131h-297v-473h346v-127h-471v346h-267l-110 -346h-131zM301 465h238v686h-23z" />
<glyph unicode="&#xc7;" d="M84 631q0 236 71.5 382t182.5 209.5t237 63.5q135 0 234.5 -67.5t151.5 -184.5l-123 -57q-2 0 -2 1v1q-53 106 -119 149t-146 43q-162 0 -255 -140t-93 -390q0 -158 47 -280.5t128 -190.5t180 -68q75 0 145 42t113 114l106 -70q-55 -92 -128 -143t-173 -63l-10 -78 q86 -8 130 -46t44 -87q0 -74 -61.5 -124t-176.5 -50q-109 0 -202 63l51 86q78 -61 178 -61q102 0 102 73q0 33 -27.5 50.5t-76.5 17.5h-62l21 154q-209 12 -337 175.5t-130 475.5zM813 983l4 4q4 0 17 -12l-15 -6zM834 975l4 2q8 -18 -4 -2z" />
<glyph unicode="&#xc8;" d="M121 0v1278h782v-127h-647v-420h535v-131h-535v-473h641v-127h-776zM293 1477l82 143l313 -182l-47 -86z" />
<glyph unicode="&#xc9;" d="M121 0v1278h782v-127h-647v-420h535v-131h-535v-473h641v-127h-776zM356 1438l312 182l82 -143l-347 -125z" />
<glyph unicode="&#xca;" d="M121 0v1278h782v-127h-647v-420h535v-131h-535v-473h641v-127h-776zM229 1419l293 201h45l310 -203l-62 -74l-266 144l-252 -146z" />
<glyph unicode="&#xcb;" d="M121 0v1278h782v-127h-647v-420h535v-131h-535v-473h641v-127h-776zM266 1511q0 41 31 73t72 32q43 0 73.5 -31t30.5 -74q0 -41 -30.5 -71.5t-73.5 -30.5q-41 0 -72 30.5t-31 71.5zM633 1511q0 43 29.5 74t70.5 31q43 0 74 -31t31 -74q0 -41 -31 -71.5t-74 -30.5 q-41 0 -70.5 29.5t-29.5 72.5z" />
<glyph unicode="&#xcc;" d="M166 0v121h252v1034h-238v121h633v-121h-252v-1036h264v-119h-659zM229 1477l82 143l313 -182l-47 -86z" />
<glyph unicode="&#xcd;" d="M166 0v121h252v1034h-238v121h633v-121h-252v-1036h264v-119h-659zM293 1438l312 182l82 -143l-347 -125z" />
<glyph unicode="&#xce;" d="M165 1419l293 201h45l310 -203l-62 -74l-266 144l-252 -146zM166 0v121h252v1034h-238v121h633v-121h-252v-1036h264v-119h-659z" />
<glyph unicode="&#xcf;" d="M166 0v121h252v1034h-238v121h633v-121h-252v-1036h264v-119h-659zM202 1511q0 41 31 73t72 32q43 0 73.5 -31t30.5 -74q0 -41 -30.5 -71.5t-73.5 -30.5q-41 0 -72 30.5t-31 71.5zM569 1511q0 43 29.5 74t70.5 31q43 0 74 -31t31 -74q0 -41 -31 -71.5t-74 -30.5 q-41 0 -70.5 29.5t-29.5 72.5z" />
<glyph unicode="&#xd0;" d="M61 616v119h101v541h284q262 0 385 -172t123 -477q0 -190 -80.5 -358.5t-220.5 -231.5q-78 -39 -231 -39h-260v618h-101zM293 117h123q195 0 298 133t103 377q0 254 -93 391t-286 137h-145v-420h215v-119h-215v-499z" />
<glyph unicode="&#xd1;" d="M102 0v1276h140l536 -946v946h156v-14q-12 -12 -15.5 -26.5t-3.5 -49.5v-1186h-112l-563 1004v-1004h-138zM195 1468q31 74 83 119t128 45q43 0 73.5 -15t73.5 -44q35 -27 61.5 -39t57.5 -12q33 0 54.5 20.5t49.5 77.5l94 -57q-45 -86 -87 -120t-103 -34q-43 0 -77 15.5 t-79 45.5q-39 25 -62.5 37.5t-51.5 12.5q-37 0 -63.5 -21.5t-51.5 -75.5z" />
<glyph unicode="&#xd2;" d="M55 631q0 305 120 479t337 174t337 -174t120 -479q0 -313 -119 -483.5t-338 -170.5t-338 170t-119 484zM203 631q0 -254 81 -391.5t228 -137.5t228 137.5t81 391.5q0 244 -82 386t-227 142t-227 -142.5t-82 -385.5zM252 1477l82 143l313 -182l-47 -86z" />
<glyph unicode="&#xd3;" d="M55 631q0 305 120 479t337 174t337 -174t120 -479q0 -313 -119 -483.5t-338 -170.5t-338 170t-119 484zM203 631q0 -254 81 -391.5t228 -137.5t228 137.5t81 391.5q0 244 -82 386t-227 142t-227 -142.5t-82 -385.5zM315 1438l312 182l82 -143l-347 -125z" />
<glyph unicode="&#xd4;" d="M55 631q0 305 120 479t337 174t337 -174t120 -479q0 -313 -119 -483.5t-338 -170.5t-338 170t-119 484zM188 1419l293 201h45l310 -203l-62 -74l-266 144l-252 -146zM203 631q0 -254 81 -391.5t228 -137.5t228 137.5t81 391.5q0 244 -82 386t-227 142t-227 -142.5 t-82 -385.5z" />
<glyph unicode="&#xd5;" d="M55 631q0 305 120 479t337 174t337 -174t120 -479q0 -313 -119 -483.5t-338 -170.5t-338 170t-119 484zM195 1468q31 74 83 119t128 45q43 0 73.5 -15t73.5 -44q35 -27 61.5 -39t57.5 -12q33 0 54.5 20.5t49.5 77.5l94 -57q-45 -86 -87 -120t-103 -34q-43 0 -77 15.5 t-79 45.5q-39 25 -62.5 37.5t-51.5 12.5q-37 0 -63.5 -21.5t-51.5 -75.5zM203 631q0 -254 81 -391.5t228 -137.5t228 137.5t81 391.5q0 244 -82 386t-227 142t-227 -142.5t-82 -385.5z" />
<glyph unicode="&#xd6;" d="M55 631q0 305 120 479t337 174t337 -174t120 -479q0 -313 -119 -483.5t-338 -170.5t-338 170t-119 484zM203 631q0 -254 81 -391.5t228 -137.5t228 137.5t81 391.5q0 244 -82 386t-227 142t-227 -142.5t-82 -385.5zM225 1511q0 41 31 73t72 32q43 0 73.5 -31t30.5 -74 q0 -41 -30.5 -71.5t-73.5 -30.5q-41 0 -72 30.5t-31 71.5zM592 1511q0 43 29.5 74t70.5 31q43 0 74 -31t31 -74q0 -41 -31 -71.5t-74 -30.5q-41 0 -70.5 29.5t-29.5 72.5z" />
<glyph unicode="&#xd7;" d="M174 395l258 269l-258 272l96 94l254 -268l258 268l99 -90l-267 -274l260 -275l-94 -94l-260 272l-256 -264z" />
<glyph unicode="&#xd8;" d="M55 631q0 305 120 479t337 174q135 0 242 -74l98 187l86 -45l-113 -211q70 -84 107 -214t37 -296q0 -313 -119 -483.5t-338 -170.5q-154 0 -260 84l-78 -147l-90 41l96 182q-125 168 -125 494zM203 631q0 -211 57 -344l426 798q-74 74 -174 74q-145 0 -227 -142.5 t-82 -385.5zM319 188q78 -86 193 -86q147 0 228 137.5t81 391.5q0 229 -71 366z" />
<glyph unicode="&#xd9;" d="M102 440v836h160v-14q-12 -12 -15 -26.5t-3 -49.5v-748q0 -164 63.5 -252t208.5 -88q147 0 212 88t65 258v832h137v-830q0 -236 -109.5 -352.5t-306.5 -116.5q-203 0 -307.5 121t-104.5 342zM252 1477l82 143l313 -182l-47 -86z" />
<glyph unicode="&#xda;" d="M102 440v836h160v-14q-12 -12 -15 -26.5t-3 -49.5v-748q0 -164 63.5 -252t208.5 -88q147 0 212 88t65 258v832h137v-830q0 -236 -109.5 -352.5t-306.5 -116.5q-203 0 -307.5 121t-104.5 342zM315 1438l312 182l82 -143l-347 -125z" />
<glyph unicode="&#xdb;" d="M102 440v836h160v-14q-12 -12 -15 -26.5t-3 -49.5v-748q0 -164 63.5 -252t208.5 -88q147 0 212 88t65 258v832h137v-830q0 -236 -109.5 -352.5t-306.5 -116.5q-203 0 -307.5 121t-104.5 342zM188 1419l293 201h45l310 -203l-62 -74l-266 144l-252 -146z" />
<glyph unicode="&#xdc;" d="M102 440v836h160v-14q-12 -12 -15 -26.5t-3 -49.5v-748q0 -164 63.5 -252t208.5 -88q147 0 212 88t65 258v832h137v-830q0 -236 -109.5 -352.5t-306.5 -116.5q-203 0 -307.5 121t-104.5 342zM225 1511q0 41 31 73t72 32q43 0 73.5 -31t30.5 -74q0 -41 -30.5 -71.5 t-73.5 -30.5q-41 0 -72 30.5t-31 71.5zM592 1511q0 43 29.5 74t70.5 31q43 0 74 -31t31 -74q0 -41 -31 -71.5t-74 -30.5q-41 0 -70.5 29.5t-29.5 72.5z" />
<glyph unicode="&#xdd;" d="M57 1276h164l314 -619l282 619h152l-363 -772v-504h-155v504zM315 1438l312 182l82 -143l-347 -125z" />
<glyph unicode="&#xde;" d="M121 0v1276h160q4 -4 4 -6q0 -4 -8.5 -20.5t-12.5 -30.5v-183h266q201 0 298.5 -99t105.5 -261q-8 -160 -102.5 -256t-290.5 -96h-277v-324h-143zM264 449h277q227 0 245 223q-8 102 -70.5 165.5t-189.5 63.5h-262v-452z" />
<glyph unicode="&#xdf;" d="M113 0v866q0 246 97 375t263 129q106 0 195.5 -50t140.5 -133t51 -177q0 -88 -43 -162t-119 -113q117 -37 184.5 -136t67.5 -228q0 -109 -46 -198t-131 -141t-198 -52q-119 0 -213 63l72 115q61 -49 150 -49q57 0 111.5 37.5t87 103t32.5 145.5q0 119 -79 193t-236 74 h-62v116h74q82 0 145.5 60.5t63.5 165.5q0 104 -65.5 175.5t-161.5 71.5q-115 0 -178.5 -103.5t-63.5 -277.5v-870h-139z" />
<glyph unicode="&#xe0;" d="M100 236q0 98 63.5 171.5t171 113.5t236.5 40q117 0 211 -12q-12 158 -82.5 222.5t-210.5 64.5q-70 0 -134 -27t-117 -78l-72 94q131 131 334 131q200 0 305.5 -104t105.5 -354v-498h-159v143q-86 -166 -320 -166q-156 0 -244 71t-88 188zM248 244q0 -154 198 -154 q152 0 240 89t96 257q-92 14 -198 15q-156 0 -246 -51.5t-90 -155.5zM292 1315l113 82l172 -305l-78 -54z" />
<glyph unicode="&#xe1;" d="M100 236q0 98 63.5 171.5t171 113.5t236.5 40q117 0 211 -12q-12 158 -82.5 222.5t-210.5 64.5q-70 0 -134 -27t-117 -78l-72 94q131 131 334 131q200 0 305.5 -104t105.5 -354v-498h-159v143q-86 -166 -320 -166q-156 0 -244 71t-88 188zM248 244q0 -154 198 -154 q152 0 240 89t96 257q-92 14 -198 15q-156 0 -246 -51.5t-90 -155.5zM419 1092l172 305l113 -82l-207 -277z" />
<glyph unicode="&#xe2;" d="M100 236q0 98 63.5 171.5t171 113.5t236.5 40q117 0 211 -12q-12 158 -82.5 222.5t-210.5 64.5q-70 0 -134 -27t-117 -78l-72 94q131 131 334 131q200 0 305.5 -104t105.5 -354v-498h-159v143q-86 -166 -320 -166q-156 0 -244 71t-88 188zM203 1116l284 287h50l284 -287 l-82 -69l-227 225l-227 -225zM248 244q0 -154 198 -154q152 0 240 89t96 257q-92 14 -198 15q-156 0 -246 -51.5t-90 -155.5z" />
<glyph unicode="&#xe3;" d="M100 236q0 98 63.5 171.5t171 113.5t236.5 40q117 0 211 -12q-12 158 -82.5 222.5t-210.5 64.5q-70 0 -134 -27t-117 -78l-72 94q131 131 334 131q200 0 305.5 -104t105.5 -354v-498h-159v143q-86 -166 -320 -166q-156 0 -244 71t-88 188zM187 1235q31 74 83 119t128 45 q43 0 73.5 -15.5t73.5 -44.5q35 -27 61.5 -39t57.5 -12q33 0 54.5 20.5t49.5 77.5l95 -57q-45 -86 -87 -119.5t-104 -33.5q-43 0 -76.5 15t-78.5 46q-39 25 -62.5 37t-52.5 12q-37 0 -63.5 -21.5t-51.5 -74.5zM248 244q0 -154 198 -154q152 0 240 89t96 257q-92 14 -198 15 q-156 0 -246 -51.5t-90 -155.5z" />
<glyph unicode="&#xe4;" d="M100 236q0 98 63.5 171.5t171 113.5t236.5 40q117 0 211 -12q-12 158 -82.5 222.5t-210.5 64.5q-70 0 -134 -27t-117 -78l-72 94q131 131 334 131q200 0 305.5 -104t105.5 -354v-498h-159v143q-86 -166 -320 -166q-156 0 -244 71t-88 188zM227 1257q0 41 31 73t74 32 q41 0 71.5 -31t30.5 -74q0 -41 -30.5 -71.5t-71.5 -30.5q-43 0 -74 31t-31 71zM248 244q0 -154 198 -154q152 0 240 89t96 257q-92 14 -198 15q-156 0 -246 -51.5t-90 -155.5zM594 1257q0 43 29.5 74t72.5 31q41 0 72 -31t31 -74q0 -41 -31 -71.5t-72 -30.5 q-43 0 -72.5 29.5t-29.5 72.5z" />
<glyph unicode="&#xe5;" d="M100 236q0 98 63.5 171.5t171 113.5t236.5 40q117 0 211 -12q-12 158 -82.5 222.5t-210.5 64.5q-70 0 -134 -27t-117 -78l-72 94q131 131 334 131q200 0 305.5 -104t105.5 -354v-498h-159v143q-86 -166 -320 -166q-156 0 -244 71t-88 188zM248 244q0 -154 198 -154 q152 0 240 89t96 257q-92 14 -198 15q-156 0 -246 -51.5t-90 -155.5zM324 1239q0 74 56.5 127t129.5 53q78 0 133.5 -52t55.5 -128q0 -74 -56.5 -127t-132.5 -53q-73 0 -129.5 53t-56.5 127zM428 1241q0 -39 25 -66.5t59 -27.5q35 0 60.5 27.5t25.5 66.5t-25.5 66.5 t-60.5 27.5t-59.5 -27.5t-24.5 -66.5z" />
<glyph unicode="&#xe6;" d="M20 252q0 150 109 230.5t324 88.5q0 137 -39 204t-123 67q-92 0 -156 -88l-72 90q88 113 238 112q74 0 134.5 -33.5t92.5 -93.5q35 59 93.5 93t119.5 34q262 0 263 -407v-78l-426 -14v-99q0 -119 57 -190.5t156 -71.5q94 0 149 76l72 -86q-90 -109 -234 -109 q-78 0 -146.5 38t-109.5 104q-35 -66 -96 -104t-135 -38q-137 0 -204 76t-67 199zM152 250q0 -82 34.5 -115t108.5 -33q98 0 128 87t30 260q-168 -8 -234.5 -50.5t-66.5 -148.5zM578 571l307 11q0 131 -34 195.5t-110 64.5q-78 0 -120.5 -71t-42.5 -200z" />
<glyph unicode="&#xe7;" d="M115 467q0 139 60.5 249.5t167 174t239.5 63.5q113 0 205 -46t149 -128l-92 -90l-2 -2q-59 78 -122 109.5t-155 31.5q-80 0 -148.5 -44t-109.5 -123.5t-41 -184.5q0 -104 42 -188t117 -131t167 -47q142 -1 244 114l86 -100q-117 -123 -269 -143l-10 -78q86 -8 130 -46 t44 -87q0 -74 -61.5 -124t-175.5 -50q-109 0 -203 63l51 86q78 -61 178 -61q102 0 103 73q0 33 -28 50.5t-77 17.5h-61l20 151q-129 4 -231.5 70t-159.5 175.5t-57 244.5zM819 686q1 12 19 -2l-9 -8zM838 684l4 4q10 -14 5 -10t-9 6z" />
<glyph unicode="&#xe8;" d="M100 465q0 154 57.5 265.5t155 169.5t217.5 58q170 0 275.5 -112.5t105.5 -331.5q0 -23 -4 -68h-665q8 -172 96 -260t223 -88q147 0 242 105l82 -80q-119 -143 -328 -143t-333 126.5t-124 358.5zM248 561h514q0 131 -66.5 208t-175.5 77q-102 0 -178 -72t-94 -213z M313 1315l113 82l172 -305l-78 -54z" />
<glyph unicode="&#xe9;" d="M100 465q0 154 57.5 265.5t155 169.5t217.5 58q170 0 275.5 -112.5t105.5 -331.5q0 -23 -4 -68h-665q8 -172 96 -260t223 -88q147 0 242 105l82 -80q-119 -143 -328 -143t-333 126.5t-124 358.5zM248 561h514q0 131 -66.5 208t-175.5 77q-102 0 -178 -72t-94 -213z M440 1092l172 305l113 -82l-207 -277z" />
<glyph unicode="&#xea;" d="M100 465q0 154 57.5 265.5t155 169.5t217.5 58q170 0 275.5 -112.5t105.5 -331.5q0 -23 -4 -68h-665q8 -172 96 -260t223 -88q147 0 242 105l82 -80q-119 -143 -328 -143t-333 126.5t-124 358.5zM223 1116l284 287h50l284 -287l-82 -69l-227 225l-227 -225zM248 561h514 q0 131 -66.5 208t-175.5 77q-102 0 -178 -72t-94 -213z" />
<glyph unicode="&#xeb;" d="M100 465q0 154 57.5 265.5t155 169.5t217.5 58q170 0 275.5 -112.5t105.5 -331.5q0 -23 -4 -68h-665q8 -172 96 -260t223 -88q147 0 242 105l82 -80q-119 -143 -328 -143t-333 126.5t-124 358.5zM247 1257q0 41 31 73t74 32q41 0 71.5 -31t30.5 -74q0 -41 -30.5 -71.5 t-71.5 -30.5q-43 0 -74 31t-31 71zM248 561h514q0 131 -66.5 208t-175.5 77q-102 0 -178 -72t-94 -213zM614 1257q0 43 29.5 74t72.5 31q41 0 72 -31t31 -74q0 -41 -31 -71.5t-72 -30.5q-43 0 -72.5 29.5t-29.5 72.5z" />
<glyph unicode="&#xec;" d="M205 0v119h239v698h-227v119h375v-817h219v-119h-606zM267 1346l129 86l180 -302l-103 -61z" />
<glyph unicode="&#xed;" d="M205 0v119h239v698h-227v119h375v-817h219v-119h-606zM426 1122l172 305l113 -81l-207 -277z" />
<glyph unicode="&#xee;" d="M205 0v119h239v698h-227v119h375v-817h219v-119h-606zM213 1116l248 287h45l246 -289l-91 -53l-180 211l-194 -217z" />
<glyph unicode="&#xef;" d="M205 0v119h239v698h-227v119h375v-817h219v-119h-606zM213 1257q0 41 31 73t74 32q41 0 71.5 -31t30.5 -74q0 -41 -30.5 -71.5t-71.5 -30.5q-43 0 -74 31t-31 71zM580 1257q0 43 29.5 74t72.5 31q41 0 72 -31t31 -74q0 -41 -31 -71.5t-72 -30.5q-43 0 -72.5 29.5 t-29.5 72.5z" />
<glyph unicode="&#xf0;" d="M82 457q0 133 59.5 247.5t154.5 183t200 68.5q160 0 260 -106q-68 162 -176 280l-263 -73l-36 98l213 57q-98 82 -209 131l166 33q98 -55 178 -127l221 60l35 -90l-174 -52q231 -262 231 -649q0 -250 -109.5 -396.5t-308.5 -146.5q-118 0 -219.5 62.5t-162 173.5 t-60.5 246zM240 475q0 -109 37.5 -193.5t103 -132t143.5 -47.5q113 0 191 94.5t78 278.5q0 182 -82 269t-193 87q-70 0 -133 -40.5t-104 -121.5t-41 -194z" />
<glyph unicode="&#xf1;" d="M147 0v936h144v-166q55 86 139 137t178 51q125 0 200 -95t75 -296v-567h-144v563q0 139 -47 202.5t-125 63.5q-63 0 -127.5 -36.5t-106.5 -103t-42 -150.5v-539h-144zM217 1235q31 74 83 119t128 45q43 0 73.5 -15.5t73.5 -44.5q35 -27 61.5 -39t57.5 -12q33 0 54.5 20.5 t49.5 77.5l95 -57q-45 -86 -87 -119.5t-104 -33.5q-43 0 -76.5 15t-78.5 46q-39 25 -62.5 37t-52.5 12q-37 0 -63.5 -21.5t-51.5 -74.5z" />
<glyph unicode="&#xf2;" d="M80 469q0 141 55 251.5t153.5 173t223.5 62.5t223.5 -62.5t153.5 -173t55 -251.5t-55 -252t-153.5 -172t-223.5 -61t-223.5 61t-153.5 172t-55 252zM236 471q0 -104 35.5 -187t98 -130.5t142.5 -47.5t142.5 47.5t98 130.5t35.5 187q0 160 -77.5 261.5t-198.5 101.5 t-198.5 -101.5t-77.5 -261.5zM292 1315l113 82l172 -305l-78 -54z" />
<glyph unicode="&#xf3;" d="M80 469q0 141 55 251.5t153.5 173t223.5 62.5t223.5 -62.5t153.5 -173t55 -251.5t-55 -252t-153.5 -172t-223.5 -61t-223.5 61t-153.5 172t-55 252zM236 471q0 -104 35.5 -187t98 -130.5t142.5 -47.5t142.5 47.5t98 130.5t35.5 187q0 160 -77.5 261.5t-198.5 101.5 t-198.5 -101.5t-77.5 -261.5zM419 1092l172 305l113 -82l-207 -277z" />
<glyph unicode="&#xf4;" d="M80 469q0 141 55 251.5t153.5 173t223.5 62.5t223.5 -62.5t153.5 -173t55 -251.5t-55 -252t-153.5 -172t-223.5 -61t-223.5 61t-153.5 172t-55 252zM203 1116l284 287h50l284 -287l-82 -69l-227 225l-227 -225zM236 471q0 -104 35.5 -187t98 -130.5t142.5 -47.5 t142.5 47.5t98 130.5t35.5 187q0 160 -77.5 261.5t-198.5 101.5t-198.5 -101.5t-77.5 -261.5z" />
<glyph unicode="&#xf5;" d="M80 469q0 141 55 251.5t153.5 173t223.5 62.5t223.5 -62.5t153.5 -173t55 -251.5t-55 -252t-153.5 -172t-223.5 -61t-223.5 61t-153.5 172t-55 252zM187 1235q31 74 83 119t128 45q43 0 73.5 -15.5t73.5 -44.5q35 -27 61.5 -39t57.5 -12q33 0 54.5 20.5t49.5 77.5l95 -57 q-45 -86 -87 -119.5t-104 -33.5q-43 0 -76.5 15t-78.5 46q-39 25 -62.5 37t-52.5 12q-37 0 -63.5 -21.5t-51.5 -74.5zM236 471q0 -104 35.5 -187t98 -130.5t142.5 -47.5t142.5 47.5t98 130.5t35.5 187q0 160 -77.5 261.5t-198.5 101.5t-198.5 -101.5t-77.5 -261.5z" />
<glyph unicode="&#xf6;" d="M80 469q0 141 55 251.5t153.5 173t223.5 62.5t223.5 -62.5t153.5 -173t55 -251.5t-55 -252t-153.5 -172t-223.5 -61t-223.5 61t-153.5 172t-55 252zM227 1257q0 41 31 73t74 32q41 0 71.5 -31t30.5 -74q0 -41 -30.5 -71.5t-71.5 -30.5q-43 0 -74 31t-31 71zM236 471 q0 -104 35.5 -187t98 -130.5t142.5 -47.5t142.5 47.5t98 130.5t35.5 187q0 160 -77.5 261.5t-198.5 101.5t-198.5 -101.5t-77.5 -261.5zM594 1257q0 43 29.5 74t72.5 31q41 0 72 -31t31 -74q0 -41 -31 -71.5t-72 -30.5q-43 0 -72.5 29.5t-29.5 72.5z" />
<glyph unicode="&#xf7;" d="M145 575v138h738v-138h-738zM430 324q0 41 28.5 67.5t65.5 26.5q35 0 62.5 -29t27.5 -65q0 -37 -26.5 -64t-63.5 -27t-65.5 27t-28.5 64zM432 954q0 39 27.5 67t62.5 28q37 0 64.5 -29t27.5 -66t-26.5 -63.5t-65.5 -26.5q-37 0 -63.5 27t-26.5 63z" />
<glyph unicode="&#xf8;" d="M82 453q0 143 60.5 257.5t163 180t220.5 65.5q78 0 160 -34l76 141l108 -59l-79 -150q152 -139 151 -377q0 -154 -56.5 -267.5t-151.5 -174t-212 -60.5q-102 0 -190 45l-82 -151l-107 55l90 166q-152 145 -151 363zM238 481q0 -156 69 -256l316 580q-51 27 -107 26 q-74 0 -138.5 -45t-102 -124.5t-37.5 -180.5zM397 137q59 -35 125 -35q74 0 136.5 43t99.5 124t37 188q0 168 -76 268z" />
<glyph unicode="&#xf9;" d="M131 414l2 522h143v-522q0 -168 58.5 -243t154.5 -75q106 0 179 83t73 241v516h144v-791q0 -49 3 -80.5t17 -64.5h-141q-14 31 -17.5 63.5t-3.5 79.5q-45 -78 -121.5 -122t-168.5 -44q-148 0 -236 110t-86 327zM292 1315l113 82l172 -305l-78 -54z" />
<glyph unicode="&#xfa;" d="M131 414l2 522h143v-522q0 -168 58.5 -243t154.5 -75q106 0 179 83t73 241v516h144v-791q0 -49 3 -80.5t17 -64.5h-141q-14 31 -17.5 63.5t-3.5 79.5q-45 -78 -121.5 -122t-168.5 -44q-148 0 -236 110t-86 327zM419 1092l172 305l113 -82l-207 -277z" />
<glyph unicode="&#xfb;" d="M131 414l2 522h143v-522q0 -168 58.5 -243t154.5 -75q106 0 179 83t73 241v516h144v-791q0 -49 3 -80.5t17 -64.5h-141q-14 31 -17.5 63.5t-3.5 79.5q-45 -78 -121.5 -122t-168.5 -44q-148 0 -236 110t-86 327zM203 1116l284 287h50l284 -287l-82 -69l-227 225l-227 -225 z" />
<glyph unicode="&#xfc;" d="M131 414l2 522h143v-522q0 -168 58.5 -243t154.5 -75q106 0 179 83t73 241v516h144v-791q0 -49 3 -80.5t17 -64.5h-141q-14 31 -17.5 63.5t-3.5 79.5q-45 -78 -121.5 -122t-168.5 -44q-148 0 -236 110t-86 327zM227 1257q0 41 31 73t74 32q41 0 71.5 -31t30.5 -74 q0 -41 -30.5 -71.5t-71.5 -30.5q-43 0 -74 31t-31 71zM594 1257q0 43 29.5 74t72.5 31q41 0 72 -31t31 -74q0 -41 -31 -71.5t-72 -30.5q-43 0 -72.5 29.5t-29.5 72.5z" />
<glyph unicode="&#xfd;" d="M45 -276l64 100l2 2l2 -2q33 -31 69.5 -45.5t85.5 -14.5q76 0 121 53.5t88 176.5l-383 942h154l291 -750l123 377q45 141 66.5 216t31.5 157h147q-12 -84 -37.5 -166t-72.5 -217l-234 -659q-47 -131 -122.5 -190.5t-180.5 -59.5q-131 0 -215 80zM105.5 -166 q5.5 -2 7.5 -2l-2 -6q-11 10 -5.5 8zM113 -168l8 10l12 -8v-2q0 -4 -4 -4zM426 1092l172 305l113 -82l-207 -277z" />
<glyph unicode="&#xfe;" d="M123 -342v1704h164q0 -14 -7.5 -40t-7.5 -48v-481q47 74 126 118.5t159 44.5q106 0 195.5 -54t142.5 -162.5t53 -264.5q0 -158 -55 -271.5t-145.5 -171t-192.5 -57.5q-86 0 -159.5 39t-121.5 109v-465h-151zM272 451q4 -184 69 -264.5t183 -80.5q117 0 194 80t77 263 q0 180 -70 281t-195 101q-117 0 -187.5 -98t-70.5 -282z" />
<glyph unicode="&#xff;" d="M45 -276l64 100l2 2l2 -2q33 -31 69.5 -45.5t85.5 -14.5q76 0 121 53.5t88 176.5l-383 942h154l291 -750l123 377q45 141 66.5 216t31.5 157h147q-12 -84 -37.5 -166t-72.5 -217l-234 -659q-47 -131 -122.5 -190.5t-180.5 -59.5q-131 0 -215 80zM105.5 -166 q5.5 -2 7.5 -2l-2 -6q-11 10 -5.5 8zM113 -168l8 10l12 -8v-2q0 -4 -4 -4zM233 1257q0 41 31 73t74 32q41 0 71.5 -31t30.5 -74q0 -41 -30.5 -71.5t-71.5 -30.5q-43 0 -74 31t-31 71zM600 1257q0 43 29.5 74t72.5 31q41 0 72 -31t31 -74q0 -41 -31 -71.5t-72 -30.5 q-43 0 -72.5 29.5t-29.5 72.5z" />
<glyph unicode="&#x100;" d="M33 0l471 1298h16l471 -1298h-147l-129 373h-412l-129 -373h-141zM252 1497v115h520v-115h-520zM342 483h336l-168 488z" />
<glyph unicode="&#x101;" d="M100 236q0 98 63.5 171.5t171 113.5t236.5 40q117 0 211 -12q-12 158 -82.5 222.5t-210.5 64.5q-70 0 -134 -27t-117 -78l-72 94q131 131 334 131q200 0 305.5 -104t105.5 -354v-498h-159v143q-86 -166 -320 -166q-156 0 -244 71t-88 188zM248 244q0 -154 198 -154 q152 0 240 89t96 257q-92 14 -198 15q-156 0 -246 -51.5t-90 -155.5zM252 1157v115h520v-115h-520z" />
<glyph unicode="&#x102;" d="M33 0l471 1298h16l471 -1298h-147l-129 373h-412l-129 -373h-141zM221 1563l107 49q33 -72 78 -105.5t106 -33.5t106.5 33.5t77.5 105.5l107 -49q-47 -90 -122 -139.5t-169 -49.5t-169 49.5t-122 139.5zM342 483h336l-168 488z" />
<glyph unicode="&#x103;" d="M100 236q0 98 63.5 171.5t171 113.5t236.5 40q117 0 211 -12q-12 158 -82.5 222.5t-210.5 64.5q-70 0 -134 -27t-117 -78l-72 94q131 131 334 131q200 0 305.5 -104t105.5 -354v-498h-159v143q-86 -166 -320 -166q-156 0 -244 71t-88 188zM222 1290l106 49 q33 -72 78 -105.5t106 -33.5t106.5 34t78.5 105l106 -49q-47 -90 -121.5 -139t-169.5 -49q-94 0 -168.5 49t-121.5 139zM248 244q0 -154 198 -154q152 0 240 89t96 257q-92 14 -198 15q-156 0 -246 -51.5t-90 -155.5z" />
<glyph unicode="&#x104;" d="M33 0l471 1298h16l471 -1298h-41q-78 -61 -123 -129t-45 -123q0 -45 32 -75.5t95 -39.5l-32 -98q-104 14 -167 61.5t-63 122.5q0 72 50.5 145t146.5 138l-129 371h-412l-129 -373h-141zM342 483h336l-168 488z" />
<glyph unicode="&#x105;" d="M100 236q0 98 63.5 171.5t171 113.5t236.5 40q117 0 211 -12q-12 158 -82.5 222.5t-210.5 64.5q-70 0 -134 -27t-117 -78l-72 94q131 131 334 131q201 0 306 -104t105 -354v-498h-47q-172 -154 -172 -209q0 -25 16.5 -41t41.5 -16q59 0 118 47v-94q-59 -47 -137 -47 q-80 0 -123 34.5t-43 89.5q0 102 164 236h23v143q-86 -166 -320 -166q-156 0 -244 71t-88 188zM248 244q0 -154 198 -154q152 0 240 89t96 257q-92 14 -198 15q-156 0 -246 -51.5t-90 -155.5z" />
<glyph unicode="&#x106;" d="M84 631q0 236 71.5 382t182.5 209.5t237 63.5q135 0 234.5 -67.5t151.5 -184.5l-123 -57q-2 0 -2 1v1q-53 106 -119 149t-146 43q-162 0 -255 -140t-93 -390q0 -158 47 -280.5t128 -190.5t180 -68q75 0 145 42t113 114l106 -70q-63 -104 -149 -156t-209 -52 q-143 0 -255 70.5t-178.5 216t-66.5 364.5zM356 1438l312 182l82 -143l-347 -125zM813 983l4 4q4 0 17 -12l-15 -6zM834 975l4 2q8 -18 -4 -2z" />
<glyph unicode="&#x107;" d="M115 467q0 139 60.5 249.5t167 174t239.5 63.5q113 0 205 -46t149 -128l-92 -90l-2 -2q-59 78 -122 109.5t-155 31.5q-80 0 -148.5 -44t-109.5 -123.5t-41 -184.5q0 -104 42 -188t117 -131t167 -47q142 -1 244 114l86 -100q-137 -147 -338 -148q-135 0 -241.5 63.5 t-167 175.5t-60.5 251zM493 1092l172 305l113 -82l-207 -277zM819 686q1 12 19 -2l-9 -8zM838 684l4 4q10 -14 5 -10t-9 6z" />
<glyph unicode="&#x108;" d="M84 631q0 236 71.5 382t182.5 209.5t237 63.5q135 0 234.5 -67.5t151.5 -184.5l-123 -57q-2 0 -2 1v1q-53 106 -119 149t-146 43q-162 0 -255 -140t-93 -390q0 -158 47 -280.5t128 -190.5t180 -68q75 0 145 42t113 114l106 -70q-63 -104 -149 -156t-209 -52 q-143 0 -255 70.5t-178.5 216t-66.5 364.5zM229 1419l293 201h45l310 -203l-62 -74l-266 144l-252 -146zM813 983l4 4q4 0 17 -12l-15 -6zM834 975l4 2q8 -18 -4 -2z" />
<glyph unicode="&#x109;" d="M115 467q0 139 60.5 249.5t167 174t239.5 63.5q113 0 205 -46t149 -128l-92 -90l-2 -2q-59 78 -122 109.5t-155 31.5q-80 0 -148.5 -44t-109.5 -123.5t-41 -184.5q0 -104 42 -188t117 -131t167 -47q142 -1 244 114l86 -100q-137 -147 -338 -148q-135 0 -241.5 63.5 t-167 175.5t-60.5 251zM277 1116l284 287h50l284 -287l-82 -69l-227 225l-227 -225zM819 686q1 12 19 -2l-9 -8zM838 684l4 4q10 -14 5 -10t-9 6z" />
<glyph unicode="&#x10a;" d="M84 631q0 236 71.5 382t182.5 209.5t237 63.5q135 0 234.5 -67.5t151.5 -184.5l-123 -57q-2 0 -2 1v1q-53 106 -119 149t-146 43q-162 0 -255 -140t-93 -390q0 -158 47 -280.5t128 -190.5t180 -68q75 0 145 42t113 114l106 -70q-63 -104 -149 -156t-209 -52 q-143 0 -255 70.5t-178.5 216t-66.5 364.5zM447 1516q0 43 30.5 73.5t73.5 30.5t75 -30.5t32 -73.5t-32 -74t-75 -31q-41 0 -72.5 31t-31.5 74zM813 983l4 4q4 0 17 -12l-15 -6zM834 975l4 2q8 -18 -4 -2z" />
<glyph unicode="&#x10b;" d="M115 467q0 139 60.5 249.5t167 174t239.5 63.5q113 0 205 -46t149 -128l-92 -90l-2 -2q-59 78 -122 109.5t-155 31.5q-80 0 -148.5 -44t-109.5 -123.5t-41 -184.5q0 -104 42 -188t117 -131t167 -47q142 -1 244 114l86 -100q-137 -147 -338 -148q-135 0 -241.5 63.5 t-167 175.5t-60.5 251zM479 1237q0 45 29.5 75.5t74.5 30.5q43 0 75 -31.5t32 -74.5t-32 -73.5t-75 -30.5t-73.5 30.5t-30.5 73.5zM819 686q1 12 19 -2l-9 -8zM838 684l4 4q10 -14 5 -10t-9 6z" />
<glyph unicode="&#x10c;" d="M84 631q0 236 71.5 382t182.5 209.5t237 63.5q135 0 234.5 -67.5t151.5 -184.5l-123 -57q-2 0 -2 1v1q-53 106 -119 149t-146 43q-162 0 -255 -140t-93 -390q0 -158 47 -280.5t128 -190.5t180 -68q75 0 145 42t113 114l106 -70q-63 -104 -149 -156t-209 -52 q-143 0 -255 70.5t-178.5 216t-66.5 364.5zM270 1542l68 78l211 -145l229 139l58 -68l-269 -205h-45zM813 983l4 4q4 0 17 -12l-15 -6zM834 975l4 2q8 -18 -4 -2z" />
<glyph unicode="&#x10d;" d="M115 467q0 139 60.5 249.5t167 174t239.5 63.5q113 0 205 -46t149 -128l-92 -90l-2 -2q-59 78 -122 109.5t-155 31.5q-80 0 -148.5 -44t-109.5 -123.5t-41 -184.5q0 -104 42 -188t117 -131t167 -47q142 -1 244 114l86 -100q-137 -147 -338 -148q-135 0 -241.5 63.5 t-167 175.5t-60.5 251zM274 1339l82 70l227 -225l228 225l81 -70l-284 -286h-49zM819 686q1 12 19 -2l-9 -8zM838 684l4 4q10 -14 5 -10t-9 6z" />
<glyph unicode="&#x10e;" d="M111 -2v1278h297q158 0 250 -42t159 -132q125 -168 125 -471q-12 -309 -143 -472t-416 -161h-272zM168 1542l68 78l211 -145l229 139l58 -68l-269 -205h-45zM246 111h131q422 0 422 512q-2 260 -96.5 396t-303.5 136h-153v-1044z" />
<glyph unicode="&#x10f;" d="M51 477q0 162 48 270.5t124 161t160 52.5q74 0 129 -43.5t84 -118.5v563h158q0 -12 -10.5 -32.5t-10.5 -35.5l2 -1206q0 -47 10 -88h-147q-8 23 -8 70v80q-35 -78 -96.5 -124t-122.5 -46q-88 0 -161 55t-116 167.5t-43 274.5zM195 500q0 -180 53 -285.5t151 -105.5 q84 0 134.5 104t50.5 260q0 166 -47.5 266.5t-130.5 100.5q-104 0 -157.5 -90.5t-53.5 -249.5zM778 1022l29 90q12 41 12 102v66q0 39 23.5 60.5t60.5 21.5q33 0 54.5 -20.5t21.5 -53.5q0 -18 -10 -45l-105 -254z" />
<glyph unicode="&#x110;" d="M61 616v119h101v541h284q262 0 385 -172t123 -477q0 -190 -80.5 -358.5t-220.5 -231.5q-78 -39 -231 -39h-260v618h-101zM293 117h123q195 0 298 133t103 377q0 254 -93 391t-286 137h-145v-420h215v-119h-215v-499z" />
<glyph unicode="&#x111;" d="M92 477q0 162 57.5 270.5t147.5 161t190 52.5q94 0 165 -43.5t108 -118.5v266h-289v117h289v180h155v-14q-12 -12 -15 -26.5t-3 -49.5v-90h127v-117h-127l2 -920q0 -49 3 -80.5t18 -64.5h-146q-14 33 -17 64.5t-3 80.5q-45 -78 -116 -121.5t-159 -43.5q-100 0 -188 56 t-143.5 168.5t-55.5 272.5zM236 500q0 -180 68.5 -285.5t197.5 -105.5q127 0 186.5 100t59.5 264q0 166 -65 266.5t-194 100.5q-123 0 -188 -91.5t-65 -248.5z" />
<glyph unicode="&#x112;" d="M121 0v1278h782v-127h-647v-420h535v-131h-535v-473h641v-127h-776zM293 1497v115h520v-115h-520z" />
<glyph unicode="&#x113;" d="M100 465q0 154 57.5 265.5t155 169.5t217.5 58q170 0 275.5 -112.5t105.5 -331.5q0 -23 -4 -68h-665q8 -172 96 -260t223 -88q147 0 242 105l82 -80q-119 -143 -328 -143t-333 126.5t-124 358.5zM248 561h514q0 131 -66.5 208t-175.5 77q-102 0 -178 -72t-94 -213z M272 1157v115h520v-115h-520z" />
<glyph unicode="&#x114;" d="M121 0v1278h782v-127h-647v-420h535v-131h-535v-473h641v-127h-776zM262 1563l107 49q33 -72 78 -105.5t106 -33.5t106.5 33.5t77.5 105.5l107 -49q-47 -90 -122 -139.5t-169 -49.5t-169 49.5t-122 139.5z" />
<glyph unicode="&#x115;" d="M100 465q0 154 57.5 265.5t155 169.5t217.5 58q170 0 275.5 -112.5t105.5 -331.5q0 -23 -4 -68h-665q8 -172 96 -260t223 -88q147 0 242 105l82 -80q-119 -143 -328 -143t-333 126.5t-124 358.5zM242 1290l106 49q33 -72 78 -105.5t106 -33.5t106.5 34t78.5 105l106 -49 q-47 -90 -121.5 -139t-169.5 -49q-94 0 -168.5 49t-121.5 139zM248 561h514q0 131 -66.5 208t-175.5 77q-102 0 -178 -72t-94 -213z" />
<glyph unicode="&#x116;" d="M121 0v1278h782v-127h-647v-420h535v-131h-535v-473h641v-127h-776zM447 1516q0 43 30.5 73.5t73.5 30.5t75 -30.5t32 -73.5t-32 -74t-75 -31q-41 0 -72.5 31t-31.5 74z" />
<glyph unicode="&#x117;" d="M100 465q0 154 57.5 265.5t155 169.5t217.5 58q170 0 275.5 -112.5t105.5 -331.5q0 -23 -4 -68h-665q8 -172 96 -260t223 -88q147 0 242 105l82 -80q-119 -143 -328 -143t-333 126.5t-124 358.5zM248 561h514q0 131 -66.5 208t-175.5 77q-102 0 -178 -72t-94 -213z M426 1237q0 45 29.5 75.5t74.5 30.5q43 0 75 -31.5t32 -74.5t-32 -73.5t-75 -30.5t-73.5 30.5t-30.5 73.5z" />
<glyph unicode="&#x118;" d="M121 0v1278h782v-127h-647v-420h535v-131h-535v-473h641v-127h-776zM565 -236q0 102 164 236h135q-172 -154 -172 -209q0 -25 16.5 -41t41.5 -16q59 0 118 47v-94q-59 -47 -137 -47q-80 0 -123 34.5t-43 89.5z" />
<glyph unicode="&#x119;" d="M100 465q0 154 57.5 265.5t155 169.5t217.5 58q170 0 275.5 -112.5t105.5 -331.5q0 -23 -4 -68h-665q8 -172 96 -260t223 -88q147 0 242 105l82 -80q-119 -143 -328 -143t-333 126.5t-124 358.5zM248 561h514q0 131 -66.5 208t-175.5 77q-102 0 -178 -72t-94 -213z M565 -236q0 102 164 236h135q-172 -154 -172 -209q0 -25 16.5 -41t41.5 -16q59 0 118 47v-94q-59 -47 -137 -47q-80 0 -123 34.5t-43 89.5z" />
<glyph unicode="&#x11a;" d="M121 0v1278h782v-127h-647v-420h535v-131h-535v-473h641v-127h-776zM270 1542l68 78l211 -145l229 139l58 -68l-269 -205h-45z" />
<glyph unicode="&#x11b;" d="M100 465q0 154 57.5 265.5t155 169.5t217.5 58q170 0 275.5 -112.5t105.5 -331.5q0 -23 -4 -68h-665q8 -172 96 -260t223 -88q147 0 242 105l82 -80q-119 -143 -328 -143t-333 126.5t-124 358.5zM221 1339l82 70l227 -225l228 225l81 -70l-284 -286h-49zM248 561h514 q0 131 -66.5 208t-175.5 77q-102 0 -178 -72t-94 -213z" />
<glyph unicode="&#x11c;" d="M74 623q-2 254 73.5 402.5t186 206.5t223.5 58q115 0 221.5 -59.5t159.5 -155.5l-100 -80l-2 -2q-70 92 -129.5 131t-147.5 39q-154 0 -249 -118.5t-95 -391.5q0 -262 93 -404.5t259 -142.5q61 0 129 19.5t113 58.5v303h-231v125h364v-499q-182 -133 -375 -133 q-152 0 -263 79.5t-170.5 225t-59.5 338.5zM237 1419l293 201h45l310 -203l-62 -74l-266 144l-252 -146zM813 993q0 12 18 -2l-10 -10zM831 991l5 2q9 -14 -5 -2z" />
<glyph unicode="&#x11d;" d="M78 -111q0 74 41 127.5t104 83.5q-68 45 -67 125q0 82 84 172q-51 45 -78 108.5t-27 139.5q0 90 40 165t115 118t173 43q150 0 239 -97q49 45 101.5 67t116.5 22l34 -2l19 -121q-18 2 -53 2q-98 0 -164 -43q35 -70 35 -154q0 -92 -40 -167t-115 -118t-173 -43 q-78 0 -146 29q-37 -45 -36 -86q0 -49 62.5 -70.5t223.5 -21.5q199 0 271.5 -60.5t72.5 -177.5q0 -121 -98 -201.5t-307 -80.5q-201 0 -314.5 61.5t-113.5 179.5zM154 1116l284 287h50l284 -287l-82 -69l-227 225l-227 -225zM213 -94q0 -70 78 -109t217 -39q135 0 201.5 40 t66.5 110q0 49 -17.5 76.5t-68.5 41t-153 13.5q-147 0 -236 27q-49 -33 -68.5 -68t-19.5 -92zM258 645q0 -86 58.5 -145.5t146.5 -59.5t146.5 59.5t58.5 145.5t-58.5 145.5t-146.5 59.5t-146.5 -59.5t-58.5 -145.5z" />
<glyph unicode="&#x11e;" d="M74 623q-2 254 73.5 402.5t186 206.5t223.5 58q115 0 221.5 -59.5t159.5 -155.5l-100 -80l-2 -2q-70 92 -129.5 131t-147.5 39q-154 0 -249 -118.5t-95 -391.5q0 -262 93 -404.5t259 -142.5q61 0 129 19.5t113 58.5v303h-231v125h364v-499q-182 -133 -375 -133 q-152 0 -263 79.5t-170.5 225t-59.5 338.5zM270 1563l107 49q33 -72 78 -105.5t106 -33.5t106.5 33.5t77.5 105.5l107 -49q-47 -90 -122 -139.5t-169 -49.5t-169 49.5t-122 139.5zM813 993q0 12 18 -2l-10 -10zM831 991l5 2q9 -14 -5 -2z" />
<glyph unicode="&#x11f;" d="M78 -111q0 74 41 127.5t104 83.5q-68 45 -67 125q0 82 84 172q-51 45 -78 108.5t-27 139.5q0 90 40 165t115 118t173 43q150 0 239 -97q49 45 101.5 67t116.5 22l34 -2l19 -121q-18 2 -53 2q-98 0 -164 -43q35 -70 35 -154q0 -92 -40 -167t-115 -118t-173 -43 q-78 0 -146 29q-37 -45 -36 -86q0 -49 62.5 -70.5t223.5 -21.5q199 0 271.5 -60.5t72.5 -177.5q0 -121 -98 -201.5t-307 -80.5q-201 0 -314.5 61.5t-113.5 179.5zM213 -94q0 -70 78 -109t217 -39q135 0 201.5 40t66.5 110q0 49 -17.5 76.5t-68.5 41t-153 13.5 q-147 0 -236 27q-49 -33 -68.5 -68t-19.5 -92zM225 1231l74 92q41 -63 101 -103t130 -40q131 0 244 143l57 -86q-57 -76 -136 -120t-163 -44q-174 0 -307 158zM258 645q0 -86 58.5 -145.5t146.5 -59.5t146.5 59.5t58.5 145.5t-58.5 145.5t-146.5 59.5t-146.5 -59.5 t-58.5 -145.5z" />
<glyph unicode="&#x120;" d="M74 623q-2 254 73.5 402.5t186 206.5t223.5 58q115 0 221.5 -59.5t159.5 -155.5l-100 -80l-2 -2q-70 92 -129.5 131t-147.5 39q-154 0 -249 -118.5t-95 -391.5q0 -262 93 -404.5t259 -142.5q61 0 129 19.5t113 58.5v303h-231v125h364v-499q-182 -133 -375 -133 q-152 0 -263 79.5t-170.5 225t-59.5 338.5zM455 1516q0 43 30.5 73.5t73.5 30.5t75 -30.5t32 -73.5t-32 -74t-75 -31q-41 0 -72.5 31t-31.5 74zM813 993q0 12 18 -2l-10 -10zM831 991l5 2q9 -14 -5 -2z" />
<glyph unicode="&#x121;" d="M78 -111q0 74 41 127.5t104 83.5q-68 45 -67 125q0 82 84 172q-51 45 -78 108.5t-27 139.5q0 90 40 165t115 118t173 43q150 0 239 -97q49 45 101.5 67t116.5 22l34 -2l19 -121q-18 2 -53 2q-98 0 -164 -43q35 -70 35 -154q0 -92 -40 -167t-115 -118t-173 -43 q-78 0 -146 29q-37 -45 -36 -86q0 -49 62.5 -70.5t223.5 -21.5q199 0 271.5 -60.5t72.5 -177.5q0 -121 -98 -201.5t-307 -80.5q-201 0 -314.5 61.5t-113.5 179.5zM213 -94q0 -70 78 -109t217 -39q135 0 201.5 40t66.5 110q0 49 -17.5 76.5t-68.5 41t-153 13.5 q-147 0 -236 27q-49 -33 -68.5 -68t-19.5 -92zM258 645q0 -86 58.5 -145.5t146.5 -59.5t146.5 59.5t58.5 145.5t-58.5 145.5t-146.5 59.5t-146.5 -59.5t-58.5 -145.5zM357 1237q0 45 29.5 75.5t74.5 30.5q43 0 75 -31.5t32 -74.5t-32 -73.5t-75 -30.5t-73.5 30.5t-30.5 73.5 z" />
<glyph unicode="&#x122;" d="M74 623q-2 254 73.5 402.5t186 206.5t223.5 58q115 0 221.5 -59.5t159.5 -155.5l-100 -80l-2 -2q-70 92 -129.5 131t-147.5 39q-154 0 -249 -118.5t-95 -391.5q0 -262 93 -404.5t259 -142.5q61 0 129 19.5t113 58.5v303h-231v125h364v-499q-182 -133 -375 -133 q-152 0 -263 79.5t-170.5 225t-59.5 338.5zM421 -508q51 47 86 102.5t35 90.5q0 16 -9 27.5t-34 33.5q-27 25 -39 41t-12 41q0 45 31 77t78 32q51 0 88 -44.5t37 -109.5q0 -143 -197 -346zM813 993q0 12 18 -2l-10 -10zM831 991l5 2q9 -14 -5 -2z" />
<glyph unicode="&#x123;" d="M78 -111q0 74 41 127.5t104 83.5q-68 45 -67 125q0 82 84 172q-51 45 -78 108.5t-27 139.5q0 90 40 165t115 118t173 43q150 0 239 -97q49 45 101.5 67t116.5 22l34 -2l19 -121q-18 2 -53 2q-98 0 -164 -43q35 -70 35 -154q0 -92 -40 -167t-115 -118t-173 -43 q-78 0 -146 29q-37 -45 -36 -86q0 -49 62.5 -70.5t223.5 -21.5q199 0 271.5 -60.5t72.5 -177.5q0 -121 -98 -201.5t-307 -80.5q-201 0 -314.5 61.5t-113.5 179.5zM213 -94q0 -70 78 -109t217 -39q135 0 201.5 40t66.5 110q0 49 -17.5 76.5t-68.5 41t-153 13.5 q-147 0 -236 27q-49 -33 -68.5 -68t-19.5 -92zM258 645q0 -86 58.5 -145.5t146.5 -59.5t146.5 59.5t58.5 145.5t-58.5 145.5t-146.5 59.5t-146.5 -59.5t-58.5 -145.5zM320 1276q0 160 219 385l70 -61q-57 -53 -95 -114.5t-38 -100.5q0 -18 10 -30.5t37 -37.5q29 -27 43 -45 t14 -45q0 -51 -34 -86t-87 -35q-55 0 -97 48.5t-42 121.5z" />
<glyph unicode="&#x124;" d="M102 0v1276h168v-14q-12 -12 -15 -26.5t-3 -49.5v-455h500v545h168v-14q-12 -12 -15.5 -26.5t-3.5 -49.5v-1186h-151v608h-498v-608h-150zM188 1419l293 201h45l310 -203l-62 -74l-266 144l-252 -146z" />
<glyph unicode="&#x125;" d="M-82 1505l293 201h45l310 -203l-62 -74l-266 144l-252 -146zM150 0v1362h161v-14q-12 -12 -15 -26.5t-3 -49.5v-502q55 86 138 137t169 51q133 0 209 -94t76 -297v-567h-144v563q0 139 -47 202.5t-125 63.5q-66 0 -129 -35.5t-105 -102t-42 -152.5v-539h-143z" />
<glyph unicode="&#x126;" d="M102 0v1276h168v-14q-12 -12 -15 -26.5t-3 -49.5v-455h500v545h168v-14q-12 -12 -15.5 -26.5t-3.5 -49.5v-1186h-151v569h-498v-569h-150z" />
<glyph unicode="&#x127;" d="M0 1065v117h150v180h161v-14q-12 -12 -15 -26.5t-3 -49.5v-90h260v-117h-260v-295q55 86 138 137t169 51q133 0 209 -94t76 -297v-567h-144v563q0 139 -47 202.5t-125 63.5q-66 0 -129 -35.5t-105 -102t-42 -152.5v-539h-143v1065h-150z" />
<glyph unicode="&#x128;" d="M164 1575q31 74 83 119t128 45q43 0 73.5 -15.5t73.5 -43.5q35 -27 61.5 -39.5t57.5 -12.5q33 0 54.5 20.5t49.5 78.5l95 -58q-45 -86 -87 -119.5t-104 -33.5q-43 0 -76.5 15.5t-78.5 45.5q-39 25 -62.5 37t-52.5 12q-37 0 -63.5 -21.5t-51.5 -74.5zM166 0v121h252v1034 h-238v121h633v-121h-252v-1036h264v-119h-659z" />
<glyph unicode="&#x129;" d="M205 0v119h239v698h-227v119h375v-817h219v-119h-606zM213 1174q47 197 193 196q43 0 74.5 -18.5t68.5 -51.5q25 -23 42.5 -34t35.5 -11q27 0 45.5 19.5t38.5 66.5l94 -49q-74 -145 -172 -145q-43 0 -76.5 19.5t-68.5 52.5q-33 27 -51.5 38t-38.5 11q-31 0 -50.5 -30 t-33.5 -93z" />
<glyph unicode="&#x12a;" d="M166 0v121h252v1034h-238v121h633v-121h-252v-1036h264v-119h-659zM229 1497v115h520v-115h-520z" />
<glyph unicode="&#x12b;" d="M205 0v119h239v698h-227v119h375v-817h219v-119h-606zM252 1157v115h520v-115h-520z" />
<glyph unicode="&#x12c;" d="M166 0v121h252v1034h-238v121h633v-121h-252v-1036h264v-119h-659zM198 1563l107 49q33 -72 78 -105.5t106 -33.5t106.5 33.5t77.5 105.5l107 -49q-47 -90 -122 -139.5t-169 -49.5t-169 49.5t-122 139.5z" />
<glyph unicode="&#x12d;" d="M205 0v119h239v698h-227v119h375v-817h219v-119h-606zM222 1290l106 49q33 -72 78 -105.5t106 -33.5t106.5 34t78.5 105l106 -49q-47 -90 -121.5 -139t-169.5 -49q-94 0 -168.5 49t-121.5 139z" />
<glyph unicode="&#x12e;" d="M166 0v121h252v1034h-238v121h633v-121h-252v-1036h264v-119q-77 -61 -122.5 -129t-45.5 -123q0 -45 32 -75.5t95 -39.5l-32 -98q-104 14 -167 61.5t-63 122.5q0 72 49.5 143.5t143.5 137.5h-549z" />
<glyph unicode="&#x12f;" d="M205 0v119h239v698h-227v119h375v-817h219v-119q-78 -61 -123 -129t-45 -123q0 -45 32 -75.5t95 -39.5l-33 -98q-104 14 -166.5 61.5t-62.5 122.5q0 72 49 143.5t143 137.5h-495zM406 1237q0 45 29.5 75.5t74.5 30.5q43 0 74.5 -31.5t31.5 -74.5t-31.5 -73.5t-74.5 -30.5 t-73.5 30.5t-30.5 73.5z" />
<glyph unicode="&#x130;" d="M166 0v121h252v1034h-238v121h633v-121h-252v-1036h264v-119h-659zM383 1516q0 43 30.5 73.5t73.5 30.5t75 -30.5t32 -73.5t-32 -74t-75 -31q-41 0 -72.5 31t-31.5 74z" />
<glyph unicode="&#x131;" d="M205 0v119h239v698h-227v119h375v-817h219v-119h-606z" />
<glyph unicode="&#x134;" d="M100 119l82 102l2 2l2 -2q57 -61 105.5 -89t109.5 -28q104 0 150.5 73t46.5 249v729h-246v121h584v-121h-197v-727q4 -156 -41 -256t-121.5 -147.5t-170.5 -47.5q-188 0 -306 142zM180 231q6 -2 8 -4l-4 -4q-10 10 -4 8zM188 227l9 11l10 -9q0 -8 -6 -7t-13 5zM352 1419 l293 201h45l310 -203l-62 -74l-266 144l-252 -146z" />
<glyph unicode="&#x135;" d="M98 -225l82 110l2 2l2 -2q41 -53 91.5 -83.5t119.5 -30.5q96 0 153.5 65.5t57.5 200.5v778h-348v121h498v-891q0 -203 -100.5 -302t-258.5 -99q-90 0 -167.5 32.5t-131.5 98.5zM178 -102q2 0 8 -4l-4 -7q-6 11 -4 11zM186 -106l7 8l12 -8v-3q0 -6 -6 -4t-13 7zM363 1116 l284 287h50l284 -287l-82 -69l-227 225l-227 -225z" />
<glyph unicode="&#x136;" d="M86 0v1276h172v-14q-12 -12 -15 -26.5t-3 -49.5v-498l532 598q51 -10 107 -10h53l-483 -551l516 -725l-185 -8l-440 647l-100 -111v-528h-154zM360 -508q51 47 86 102.5t35 90.5q0 16 -9 27.5t-34 33.5q-27 25 -39 41t-12 41q0 45 31 77t78 32q51 0 88 -44.5t37 -109.5 q0 -143 -197 -346z" />
<glyph unicode="&#x137;" d="M135 0v1362h168v-14q-12 -12 -15 -26.5t-3 -49.5v-766l469 434q51 -10 108 -10h53l-393 -371l459 -559l-190 -8l-383 477l-123 -115v-354h-150zM389 -508q51 47 86 102.5t35 90.5q0 16 -9 27.5t-34 33.5q-27 25 -39 41t-12 41q0 45 31 77t78 32q51 0 88 -44.5t37 -109.5 q0 -143 -197 -346z" />
<glyph unicode="&#x138;" d="M135 0v936h168q0 -8 -9 -26.5t-9 -26.5v-377l471 440q51 -10 108 -10h54l-396 -377l459 -559l-190 -8l-383 477l-123 -115v-354h-150z" />
<glyph unicode="&#x139;" d="M135 0v1276h168v-14q-12 -12 -15 -26.5t-3 -49.5v-1063h614v-123h-764zM213 1438l312 182l82 -143l-347 -125z" />
<glyph unicode="&#x13a;" d="M162 0v119h276v1124h-264v119h414v-1243h274v-119h-700zM315 1524l312 182l82 -143l-347 -125z" />
<glyph unicode="&#x13b;" d="M135 0v1276h168v-14q-12 -12 -15 -26.5t-3 -49.5v-1063h614v-123h-764zM389 -508q51 47 86 102.5t35 90.5q0 16 -9 27.5t-34 33.5q-27 25 -39 41t-12 41q0 45 31 77t78 32q51 0 88 -44.5t37 -109.5q0 -143 -197 -346z" />
<glyph unicode="&#x13c;" d="M162 0v119h276v1124h-264v119h414v-1243h274v-119h-700zM389 -508q51 47 86 102.5t35 90.5q0 16 -9 27.5t-34 33.5q-27 25 -39 41t-12 41q0 45 31 77t78 32q51 0 88 -44.5t37 -109.5q0 -143 -197 -346z" />
<glyph unicode="&#x13d;" d="M135 0v1276h168v-14q-12 -12 -15 -26.5t-3 -49.5v-1063h614v-123h-764zM637 891q47 41 76.5 91t29.5 81q0 23 -38 57q-45 37 -46 70q0 41 28 68.5t71 27.5q45 0 77.5 -39t32.5 -96q0 -135 -174 -309z" />
<glyph unicode="&#x13e;" d="M162 0v119h276v1124h-264v119h414v-1243h274v-119h-700zM705 979q47 41 76.5 92t29.5 82q0 14 -11 26.5t-26 24.5q-25 23 -36 37t-11 37q0 41 27.5 68.5t70.5 27.5q45 0 78 -39t33 -96q0 -135 -174 -309z" />
<glyph unicode="&#x13f;" d="M135 0v1276h168v-14q-12 -12 -15 -26.5t-3 -49.5v-1063h614v-123h-764zM490 678q0 49 35.5 83t84.5 34q47 0 85 -35t38 -82t-35.5 -82t-87.5 -35q-51 0 -85.5 34t-34.5 83z" />
<glyph unicode="&#x140;" d="M141 0v119h236v1124h-223v119h372v-1243h316v-119h-701zM674 678q0 49 35.5 83t85.5 34q47 0 85 -35t38 -82t-36 -82t-87 -35q-52 0 -86.5 34t-34.5 83z" />
<glyph unicode="&#x141;" d="M41 463v125l109 37v651h165q4 0 4 -4t-8 -26.5t-12 -39.5v-534l340 110q43 16 51 21v-131l-391 -125v-424h614v-125h-763v500z" />
<glyph unicode="&#x142;" d="M162 0v119h276v452l-162 -55v135l162 56v536h-264v119h414v-604l186 67v-141l-186 -63v-502h274v-119h-700z" />
<glyph unicode="&#x143;" d="M102 0v1276h140l536 -946v946h156v-14q-12 -12 -15.5 -26.5t-3.5 -49.5v-1186h-112l-563 1004v-1004h-138zM315 1438l312 182l82 -143l-347 -125z" />
<glyph unicode="&#x144;" d="M147 0v936h144v-166q55 86 139 137t178 51q125 0 200 -95t75 -296v-567h-144v563q0 139 -47 202.5t-125 63.5q-63 0 -127.5 -36.5t-106.5 -103t-42 -150.5v-539h-144zM450 1092l172 305l113 -82l-207 -277z" />
<glyph unicode="&#x145;" d="M102 0v1276h140l536 -946v946h156v-14q-12 -12 -15.5 -26.5t-3.5 -49.5v-1186h-112l-563 1004v-1004h-138zM389 -508q51 47 86 102.5t35 90.5q0 16 -9 27.5t-34 33.5q-27 25 -39 41t-12 41q0 45 31 77t78 32q51 0 88 -44.5t37 -109.5q0 -143 -197 -346z" />
<glyph unicode="&#x146;" d="M147 0v936h144v-166q55 86 139 137t178 51q125 0 200 -95t75 -296v-567h-144v563q0 139 -47 202.5t-125 63.5q-63 0 -127.5 -36.5t-106.5 -103t-42 -150.5v-539h-144zM409 -508q51 47 86 102.5t35 90.5q0 16 -9 27.5t-34 33.5q-27 25 -39 41t-12 41q0 45 31 77t78 32 q51 0 88 -44.5t37 -109.5q0 -143 -197 -346z" />
<glyph unicode="&#x147;" d="M102 0v1276h140l536 -946v946h156v-14q-12 -12 -15.5 -26.5t-3.5 -49.5v-1186h-112l-563 1004v-1004h-138zM229 1542l68 78l211 -145l229 139l58 -68l-269 -205h-45z" />
<glyph unicode="&#x148;" d="M147 0v936h144v-166q55 86 139 137t178 51q125 0 200 -95t75 -296v-567h-144v563q0 139 -47 202.5t-125 63.5q-63 0 -127.5 -36.5t-106.5 -103t-42 -150.5v-539h-144zM231 1339l82 70l227 -225l228 225l81 -70l-284 -286h-49z" />
<glyph unicode="&#x14a;" d="M102 0v1276h140l536 -946v946h152q0 -6 -7.5 -22.5t-7.5 -32.5v-1221q0 -186 -82.5 -282.5t-228.5 -96.5q-96 0 -178 51l72 127q12 -4 26.5 -18t30.5 -22.5t55 -8.5q92 0 128 68.5t40 226.5l-538 959v-1004h-138z" />
<glyph unicode="&#x14b;" d="M139 0v936h152v-166q53 86 136 137t169 51q133 0 211 -94t78 -297v-452q0 -240 -95.5 -357.5t-252.5 -117.5q-111 -1 -199 69l70 137q4 -2 16 -21.5t38.5 -33.5t78.5 -14q199 0 198 315v471q0 139 -47 202.5t-125 63.5q-66 0 -130 -36.5t-105 -103t-41 -150.5v-539h-152z " />
<glyph unicode="&#x14c;" d="M55 631q0 305 120 479t337 174t337 -174t120 -479q0 -313 -119 -483.5t-338 -170.5t-338 170t-119 484zM203 631q0 -254 81 -391.5t228 -137.5t228 137.5t81 391.5q0 244 -82 386t-227 142t-227 -142.5t-82 -385.5zM252 1497v115h520v-115h-520z" />
<glyph unicode="&#x14d;" d="M80 469q0 141 55 251.5t153.5 173t223.5 62.5t223.5 -62.5t153.5 -173t55 -251.5t-55 -252t-153.5 -172t-223.5 -61t-223.5 61t-153.5 172t-55 252zM236 471q0 -104 35.5 -187t98 -130.5t142.5 -47.5t142.5 47.5t98 130.5t35.5 187q0 160 -77.5 261.5t-198.5 101.5 t-198.5 -101.5t-77.5 -261.5zM252 1157v115h520v-115h-520z" />
<glyph unicode="&#x14e;" d="M55 631q0 305 120 479t337 174t337 -174t120 -479q0 -313 -119 -483.5t-338 -170.5t-338 170t-119 484zM203 631q0 -254 81 -391.5t228 -137.5t228 137.5t81 391.5q0 244 -82 386t-227 142t-227 -142.5t-82 -385.5zM221 1563l107 49q33 -72 78 -105.5t106 -33.5 t106.5 33.5t77.5 105.5l107 -49q-47 -90 -122 -139.5t-169 -49.5t-169 49.5t-122 139.5z" />
<glyph unicode="&#x14f;" d="M80 469q0 141 55 251.5t153.5 173t223.5 62.5t223.5 -62.5t153.5 -173t55 -251.5t-55 -252t-153.5 -172t-223.5 -61t-223.5 61t-153.5 172t-55 252zM222 1290l106 49q33 -72 78 -105.5t106 -33.5t106.5 34t78.5 105l106 -49q-47 -90 -121.5 -139t-169.5 -49 q-94 0 -168.5 49t-121.5 139zM236 471q0 -104 35.5 -187t98 -130.5t142.5 -47.5t142.5 47.5t98 130.5t35.5 187q0 160 -77.5 261.5t-198.5 101.5t-198.5 -101.5t-77.5 -261.5z" />
<glyph unicode="&#x150;" d="M55 631q0 305 120 479t337 174t337 -174t120 -479q0 -313 -119 -483.5t-338 -170.5t-338 170t-119 484zM147 1405l269 254l96 -131l-299 -207zM203 631q0 -254 81 -391.5t228 -137.5t228 137.5t81 391.5q0 244 -82 386t-227 142t-227 -142.5t-82 -385.5zM512 1405 l268 254l94 -131l-297 -207z" />
<glyph unicode="&#x151;" d="M80 469q0 141 55 251.5t153.5 173t223.5 62.5t223.5 -62.5t153.5 -173t55 -251.5t-55 -252t-153.5 -172t-223.5 -61t-223.5 61t-153.5 172t-55 252zM236 471q0 -104 35.5 -187t98 -130.5t142.5 -47.5t142.5 47.5t98 130.5t35.5 187q0 160 -77.5 261.5t-198.5 101.5 t-198.5 -101.5t-77.5 -261.5zM281 1130l180 302l129 -86l-207 -277zM598 1130l181 302l129 -86l-207 -277z" />
<glyph unicode="&#x152;" d="M18 639q0 322 87.5 488.5t248.5 166.5q96 0 164 -75v59h473v-127h-346v-420h293v-131h-293v-473h342v-127h-471v63q-66 -78 -164 -77q-157 0 -245.5 162.5t-88.5 490.5zM150 641q0 -252 56 -391t161 -139q53 0 94 43t55 110v729q-66 182 -166 183q-90 0 -145 -123 t-55 -412z" />
<glyph unicode="&#x153;" d="M12 467q0 252 90.5 369.5t227.5 117.5q123 0 192 -94q80 94 207 94q131 0 203 -95t72 -279v-127h-467q2 -143 25.5 -220t67.5 -107t113 -30q125 0 197 78l72 -88q-106 -111 -250 -111q-142 0 -244 84q-88 -82 -203 -82q-125 0 -214 112t-89 378zM135 489 q0 -193 52.5 -290t146.5 -97q43 0 72.5 22.5t29.5 57.5l-6 47q-20 121 -20 258q0 117 9 180.5t9 73.5q0 39 -28.5 64.5t-69.5 25.5q-82 0 -138.5 -83.5t-56.5 -258.5zM539 569h344q0 145 -39 209t-127 64q-82 0 -130 -72t-48 -201z" />
<glyph unicode="&#x154;" d="M115 0v1276h377q217 0 320 -96.5t103 -268.5q0 -113 -72.5 -213t-187.5 -129l295 -569h-159l-283 563h-248v-563h-145zM260 690h248q133 0 196.5 58.5t63.5 162.5q0 102 -64.5 166t-195.5 64h-248v-451zM315 1438l312 182l82 -143l-347 -125z" />
<glyph unicode="&#x155;" d="M244 -2v938h153l-4 -172q39 92 120 143t177 51q150 0 248 -102l-66 -115v-2q-59 55 -99 73.5t-93 18.5q-74 0 -139.5 -36.5t-106.5 -111.5t-41 -187v-498h-149zM419 1092l172 305l113 -82l-207 -277zM850 731v2q0 6 6 5t12 -5l-4 -10zM868 733l4 6q15 -12 7.5 -10 t-11.5 4z" />
<glyph unicode="&#x156;" d="M115 0v1276h377q217 0 320 -96.5t103 -268.5q0 -113 -72.5 -213t-187.5 -129l295 -569h-159l-283 563h-248v-563h-145zM260 690h248q133 0 196.5 58.5t63.5 162.5q0 102 -64.5 166t-195.5 64h-248v-451zM389 -508q51 47 86 102.5t35 90.5q0 16 -9 27.5t-34 33.5 q-27 25 -39 41t-12 41q0 45 31 77t78 32q51 0 88 -44.5t37 -109.5q0 -143 -197 -346z" />
<glyph unicode="&#x157;" d="M244 -2v938h153l-4 -172q39 92 120 143t177 51q150 0 248 -102l-66 -115v-2q-59 55 -99 73.5t-93 18.5q-74 0 -139.5 -36.5t-106.5 -111.5t-41 -187v-498h-149zM430 -508q51 47 86 102.5t35 90.5q0 16 -9 27.5t-34 33.5q-27 25 -39 41t-12 41q0 45 31 77t78 32 q51 0 88 -44.5t37 -109.5q0 -143 -197 -346zM850 731v2q0 6 6 5t12 -5l-4 -10zM868 733l4 6q15 -12 7.5 -10t-11.5 4z" />
<glyph unicode="&#x158;" d="M115 0v1276h377q217 0 320 -96.5t103 -268.5q0 -113 -72.5 -213t-187.5 -129l295 -569h-159l-283 563h-248v-563h-145zM229 1542l68 78l211 -145l229 139l58 -68l-269 -205h-45zM260 690h248q133 0 196.5 58.5t63.5 162.5q0 102 -64.5 166t-195.5 64h-248v-451z" />
<glyph unicode="&#x159;" d="M201 1339l82 70l227 -225l228 225l81 -70l-284 -286h-49zM244 -2v938h153l-4 -172q39 92 120 143t177 51q150 0 248 -102l-66 -115v-2q-59 55 -99 73.5t-93 18.5q-74 0 -139.5 -36.5t-106.5 -111.5t-41 -187v-498h-149zM850 731v2q0 6 6 5t12 -5l-4 -10zM868 733l4 6 q15 -12 7.5 -10t-11.5 4z" />
<glyph unicode="&#x15a;" d="M106 141l74 129v2q2 0 2 -1v-1q55 -74 142.5 -117.5t201.5 -43.5q113 0 189 63.5t76 155.5q0 59 -24 99t-85 79t-184 92q-188 74 -269.5 168t-81.5 211q0 143 104.5 229t285.5 86q104 0 195 -42t159 -117l-80 -107l-2 -2q-61 84 -128 117t-167 33q-98 0 -158.5 -54.5 t-60.5 -132.5q0 -59 25.5 -103t93 -86t196.5 -93q183 -76 252.5 -156t69.5 -201q0 -94 -46 -178t-142.5 -137t-237.5 -53q-248 0 -400 161zM180 272q-12 17 4 9zM184 281l4 8l15 -8v-2q0 -6 -8.5 -2t-10.5 4zM338 1438l312 182l82 -143l-347 -125zM786 1018v2q0 6 8.5 2 t10.5 -4l-6 -8zM805 1018l4 6q12 -16 5 -11t-9 5z" />
<glyph unicode="&#x15b;" d="M117 127l82 139l2 2l2 -2q63 -82 130.5 -123t184.5 -41q111 0 174.5 40t63.5 110q0 59 -51.5 98t-184.5 82q-352 100 -352 291q0 109 89 172t255 63q127 0 214 -35.5t159 -111.5l-84 -102l-2 -2q-43 66 -122 103.5t-161 37.5q-88 0 -144.5 -31t-56.5 -86q0 -51 57.5 -94 t207.5 -86q176 -53 248.5 -115.5t72.5 -163.5q0 -127 -99.5 -209.5t-287.5 -82.5q-238 0 -397 147zM197 279q2 0 8 -5l-4 -6q-6 11 -4 11zM205 274l6 11l12 -9v-2q0 -8 -18 0zM442 1092l172 305l113 -82l-207 -277zM776 702q1 10 17 -2l-7 -8zM793 700l6 7q6 -9 5 -11t-5 0 t-6 4z" />
<glyph unicode="&#x15c;" d="M106 141l74 129v2q2 0 2 -1v-1q55 -74 142.5 -117.5t201.5 -43.5q113 0 189 63.5t76 155.5q0 59 -24 99t-85 79t-184 92q-188 74 -269.5 168t-81.5 211q0 143 104.5 229t285.5 86q104 0 195 -42t159 -117l-80 -107l-2 -2q-61 84 -128 117t-167 33q-98 0 -158.5 -54.5 t-60.5 -132.5q0 -59 25.5 -103t93 -86t196.5 -93q183 -76 252.5 -156t69.5 -201q0 -94 -46 -178t-142.5 -137t-237.5 -53q-248 0 -400 161zM180 272q-12 17 4 9zM184 281l4 8l15 -8v-2q0 -6 -8.5 -2t-10.5 4zM211 1419l293 201h45l310 -203l-62 -74l-266 144l-252 -146z M786 1018v2q0 6 8.5 2t10.5 -4l-6 -8zM805 1018l4 6q12 -16 5 -11t-9 5z" />
<glyph unicode="&#x15d;" d="M117 127l82 139l2 2l2 -2q63 -82 130.5 -123t184.5 -41q111 0 174.5 40t63.5 110q0 59 -51.5 98t-184.5 82q-352 100 -352 291q0 109 89 172t255 63q127 0 214 -35.5t159 -111.5l-84 -102l-2 -2q-43 66 -122 103.5t-161 37.5q-88 0 -144.5 -31t-56.5 -86q0 -51 57.5 -94 t207.5 -86q176 -53 248.5 -115.5t72.5 -163.5q0 -127 -99.5 -209.5t-287.5 -82.5q-238 0 -397 147zM197 279q2 0 8 -5l-4 -6q-6 11 -4 11zM203 1116l284 287h50l284 -287l-82 -69l-227 225l-227 -225zM205 274l6 11l12 -9v-2q0 -8 -18 0zM776 702q1 10 17 -2l-7 -8zM793 700 l6 7q6 -9 5 -11t-5 0t-6 4z" />
<glyph unicode="&#x15e;" d="M106 141l74 129v2q2 0 2 -1v-1q55 -74 142.5 -117.5t201.5 -43.5q113 0 189 63.5t76 155.5q0 59 -24 99t-85 79t-184 92q-188 74 -269.5 168t-81.5 211q0 143 104.5 229t285.5 86q104 0 195 -42t159 -117l-80 -107l-2 -2q-61 84 -128 117t-167 33q-98 0 -158.5 -54.5 t-60.5 -132.5q0 -59 25.5 -103t93 -86t196.5 -93q182 -76 252 -156t70 -201q0 -86 -39 -164t-120 -133t-200 -67l-10 -80q86 -8 130 -46t44 -87q0 -74 -61.5 -124t-175.5 -50q-109 0 -203 63l51 86q78 -61 178 -61q102 0 103 73q0 33 -28 50.5t-77 17.5h-61l20 154 q-233 8 -377 161zM180 272q-12 17 4 9zM184 281l4 8l15 -8v-2q0 -6 -8.5 -2t-10.5 4zM786 1018v2q0 6 8.5 2t10.5 -4l-6 -8zM805 1018l4 6q12 -16 5 -11t-9 5z" />
<glyph unicode="&#x15f;" d="M117 127l82 139l2 2l2 -2q63 -82 130.5 -123t184.5 -41q111 0 174.5 40t63.5 110q0 59 -51.5 98t-184.5 82q-352 100 -352 291q0 109 89 172t255 63q127 0 214 -35.5t159 -111.5l-84 -102l-2 -2q-43 66 -122 103.5t-161 37.5q-88 0 -144.5 -31t-56.5 -86q0 -51 57.5 -94 t207.5 -86q176 -53 248.5 -115.5t72.5 -163.5q0 -104 -71.5 -182t-206.5 -102l-11 -84q86 -8 130 -46t44 -87q0 -74 -61 -124t-176 -50q-109 0 -203 63l51 86q78 -61 178 -61q102 0 103 73q0 33 -27.5 50.5t-77.5 17.5h-61l20 154h-18q-238 0 -397 147zM197 279q2 0 8 -5 l-4 -6q-6 11 -4 11zM205 274l6 11l12 -9v-2q0 -8 -18 0zM776 702q1 10 17 -2l-7 -8zM793 700l6 7q6 -9 5 -11t-5 0t-6 4z" />
<glyph unicode="&#x160;" d="M106 141l74 129v2q2 0 2 -1v-1q55 -74 142.5 -117.5t201.5 -43.5q113 0 189 63.5t76 155.5q0 59 -24 99t-85 79t-184 92q-188 74 -269.5 168t-81.5 211q0 143 104.5 229t285.5 86q104 0 195 -42t159 -117l-80 -107l-2 -2q-61 84 -128 117t-167 33q-98 0 -158.5 -54.5 t-60.5 -132.5q0 -59 25.5 -103t93 -86t196.5 -93q183 -76 252.5 -156t69.5 -201q0 -94 -46 -178t-142.5 -137t-237.5 -53q-248 0 -400 161zM180 272q-12 17 4 9zM184 281l4 8l15 -8v-2q0 -6 -8.5 -2t-10.5 4zM252 1542l68 78l211 -145l229 139l58 -68l-269 -205h-45z M786 1018v2q0 6 8.5 2t10.5 -4l-6 -8zM805 1018l4 6q12 -16 5 -11t-9 5z" />
<glyph unicode="&#x161;" d="M117 127l82 139l2 2l2 -2q63 -82 130.5 -123t184.5 -41q111 0 174.5 40t63.5 110q0 59 -51.5 98t-184.5 82q-352 100 -352 291q0 109 89 172t255 63q127 0 214 -35.5t159 -111.5l-84 -102l-2 -2q-43 66 -122 103.5t-161 37.5q-88 0 -144.5 -31t-56.5 -86q0 -51 57.5 -94 t207.5 -86q176 -53 248.5 -115.5t72.5 -163.5q0 -127 -99.5 -209.5t-287.5 -82.5q-238 0 -397 147zM197 279q2 0 8 -5l-4 -6q-6 11 -4 11zM205 274l6 11l12 -9v-2q0 -8 -18 0zM213 1339l82 70l227 -225l228 225l81 -70l-284 -286h-49zM776 702q1 10 17 -2l-7 -8zM793 700 l6 7q6 -9 5 -11t-5 0t-6 4z" />
<glyph unicode="&#x162;" d="M63 1149v129h885v-129h-377v-1149h-145v1149h-363zM303 -340l51 86q76 -61 178 -61t103 73q0 33 -27.5 50.5t-77.5 17.5h-61l23 174h90l-13 -96q86 -8 130 -46t44 -87q0 -74 -61 -124t-176 -50q-109 0 -203 63z" />
<glyph unicode="&#x163;" d="M143 815v121h215l15 250l164 26l20 2l2 -12q-14 -20 -21.5 -34.5t-9.5 -45.5l-22 -186h311v-121h-319l-19 -317q-4 -82 -4 -109q0 -164 38 -222t122 -58q61 0 112.5 22.5t116.5 71.5l45 -117q-135 -100 -297 -100q-23 0 -32 2l-11 -84q86 -8 130 -46t44 -87 q0 -74 -61 -124t-176 -50q-109 0 -203 63l51 86q78 -61 178 -61q102 0 103 73q0 33 -27.5 50.5t-77.5 17.5h-61l23 174h12q-94 31 -135 124t-41 265q0 33 4 119l18 307h-207z" />
<glyph unicode="&#x164;" d="M63 1149v129h885v-129h-377v-1149h-145v1149h-363zM229 1542l68 78l211 -145l229 139l58 -68l-269 -205h-45z" />
<glyph unicode="&#x165;" d="M143 815v121h215l15 250l164 26l20 2l2 -12q-14 -20 -21.5 -34.5t-9.5 -45.5l-22 -186h311v-121h-319l-19 -317q-4 -82 -4 -109q0 -164 38 -222t122 -58q61 0 112.5 22.5t116.5 71.5l45 -117q-135 -100 -297 -100q-156 0 -220 94t-64 307q0 35 4 121l18 307h-207z M725 1051q47 41 76.5 92t29.5 82q0 14 -11 26.5t-26 24.5q-25 23 -36 37t-11 37q0 41 27.5 68.5t70.5 27.5q45 0 78 -39t33 -96q0 -135 -174 -309z" />
<glyph unicode="&#x166;" d="M63 1149v129h885v-129h-377v-453h273v-116h-273v-580h-145v580h-246v116h246v453h-363z" />
<glyph unicode="&#x167;" d="M125 451v116h211l14 248h-207v121h215l15 250l164 26l20 2l2 -12q-14 -20 -21.5 -34.5t-9.5 -45.5l-22 -186h311v-121h-319l-15 -248h316v-116h-322q-4 -139 11.5 -213t51 -101.5t95.5 -27.5q61 0 112.5 22.5t116.5 71.5l45 -117q-135 -100 -297 -100q-156 0 -220 94 t-64 301l2 70h-205z" />
<glyph unicode="&#x168;" d="M102 440v836h160v-14q-12 -12 -15 -26.5t-3 -49.5v-748q0 -164 63.5 -252t208.5 -88q147 0 212 88t65 258v832h137v-830q0 -236 -109.5 -352.5t-306.5 -116.5q-203 0 -307.5 121t-104.5 342zM195 1468q31 74 83 119t128 45q43 0 73.5 -15t73.5 -44q35 -27 61.5 -39 t57.5 -12q33 0 54.5 20.5t49.5 77.5l94 -57q-45 -86 -87 -120t-103 -34q-43 0 -77 15.5t-79 45.5q-39 25 -62.5 37.5t-51.5 12.5q-37 0 -63.5 -21.5t-51.5 -75.5z" />
<glyph unicode="&#x169;" d="M131 414l2 522h143v-522q0 -168 58.5 -243t154.5 -75q106 0 179 83t73 241v516h144v-791q0 -49 3 -80.5t17 -64.5h-141q-14 31 -17.5 63.5t-3.5 79.5q-45 -78 -121.5 -122t-168.5 -44q-148 0 -236 110t-86 327zM187 1235q31 74 83 119t128 45q43 0 73.5 -15.5t73.5 -44.5 q35 -27 61.5 -39t57.5 -12q33 0 54.5 20.5t49.5 77.5l95 -57q-45 -86 -87 -119.5t-104 -33.5q-43 0 -76.5 15t-78.5 46q-39 25 -62.5 37t-52.5 12q-37 0 -63.5 -21.5t-51.5 -74.5z" />
<glyph unicode="&#x16a;" d="M102 440v836h160v-14q-12 -12 -15 -26.5t-3 -49.5v-748q0 -164 63.5 -252t208.5 -88q147 0 212 88t65 258v832h137v-830q0 -236 -109.5 -352.5t-306.5 -116.5q-203 0 -307.5 121t-104.5 342zM252 1497v115h520v-115h-520z" />
<glyph unicode="&#x16b;" d="M131 414l2 522h143v-522q0 -168 58.5 -243t154.5 -75q106 0 179 83t73 241v516h144v-791q0 -49 3 -80.5t17 -64.5h-141q-14 31 -17.5 63.5t-3.5 79.5q-45 -78 -121.5 -122t-168.5 -44q-148 0 -236 110t-86 327zM252 1157v115h520v-115h-520z" />
<glyph unicode="&#x16c;" d="M102 440v836h160v-14q-12 -12 -15 -26.5t-3 -49.5v-748q0 -164 63.5 -252t208.5 -88q147 0 212 88t65 258v832h137v-830q0 -236 -109.5 -352.5t-306.5 -116.5q-203 0 -307.5 121t-104.5 342zM221 1563l107 49q33 -72 78 -105.5t106 -33.5t106.5 33.5t77.5 105.5l107 -49 q-47 -90 -122 -139.5t-169 -49.5t-169 49.5t-122 139.5z" />
<glyph unicode="&#x16d;" d="M131 414l2 522h143v-522q0 -168 58.5 -243t154.5 -75q106 0 179 83t73 241v516h144v-791q0 -49 3 -80.5t17 -64.5h-141q-14 31 -17.5 63.5t-3.5 79.5q-45 -78 -121.5 -122t-168.5 -44q-148 0 -236 110t-86 327zM222 1290l106 49q33 -72 78 -105.5t106 -33.5t106.5 34 t78.5 105l106 -49q-47 -90 -121.5 -139t-169.5 -49q-94 0 -168.5 49t-121.5 139z" />
<glyph unicode="&#x16e;" d="M102 440v836h160v-14q-12 -12 -15 -26.5t-3 -49.5v-748q0 -164 63.5 -252t208.5 -88q147 0 212 88t65 258v832h137v-830q0 -236 -109.5 -352.5t-306.5 -116.5q-203 0 -307.5 121t-104.5 342zM324 1448q0 74 56 127t132 53t131 -53t55 -129q0 -74 -54 -126t-132 -52 t-133 53t-55 127zM428 1448q0 -39 25.5 -65.5t60.5 -26.5t59.5 26.5t24.5 65.5q0 41 -24.5 67.5t-59.5 26.5q-37 0 -61.5 -26.5t-24.5 -67.5z" />
<glyph unicode="&#x16f;" d="M131 414l2 522h143v-522q0 -168 58.5 -243t154.5 -75q106 0 179 83t73 241v516h144v-791q0 -49 3 -80.5t17 -64.5h-141q-14 31 -17.5 63.5t-3.5 79.5q-45 -78 -121.5 -122t-168.5 -44q-148 0 -236 110t-86 327zM324 1239q0 74 56.5 127t129.5 53q78 0 133.5 -52 t55.5 -128q0 -74 -56.5 -127t-132.5 -53q-73 0 -129.5 53t-56.5 127zM428 1241q0 -39 25 -66.5t59 -27.5q35 0 60.5 27.5t25.5 66.5t-25.5 66.5t-60.5 27.5t-59.5 -27.5t-24.5 -66.5z" />
<glyph unicode="&#x170;" d="M102 440v836h160v-14q-12 -12 -15 -26.5t-3 -49.5v-748q0 -164 63.5 -252t208.5 -88q147 0 212 88t65 258v832h137v-830q0 -236 -109.5 -352.5t-306.5 -116.5q-203 0 -307.5 121t-104.5 342zM147 1405l269 254l96 -131l-299 -207zM512 1405l268 254l94 -131l-297 -207z " />
<glyph unicode="&#x171;" d="M131 414l2 522h143v-522q0 -168 58.5 -243t154.5 -75q106 0 179 83t73 241v516h144v-791q0 -49 3 -80.5t17 -64.5h-141q-14 31 -17.5 63.5t-3.5 79.5q-45 -78 -121.5 -122t-168.5 -44q-148 0 -236 110t-86 327zM281 1130l180 302l129 -86l-207 -277zM598 1130l181 302 l129 -86l-207 -277z" />
<glyph unicode="&#x172;" d="M102 440v836h160v-14q-12 -12 -15 -26.5t-3 -49.5v-748q0 -164 63.5 -252t208.5 -88q147 0 212 88t65 258v832h137v-830q0 -164 -54.5 -270t-154.5 -156q-78 -61 -123 -128.5t-45 -122.5q0 -45 31.5 -76t95.5 -39l-33 -98q-104 14 -166.5 61t-62.5 123q0 59 35.5 120.5 t103.5 119.5q-14 -2 -43 -3q-203 0 -307.5 121t-104.5 342z" />
<glyph unicode="&#x173;" d="M131 414l2 522h143v-522q0 -168 58.5 -243t154.5 -75q106 0 179 83t73 241v516h144v-791q0 -49 3 -80.5t17 -64.5q-78 -61 -123 -129t-45 -123q0 -45 32 -75.5t95 -39.5l-33 -98q-104 14 -166.5 61.5t-62.5 122.5q0 72 49 143.5t144 137.5h-31q-14 31 -17.5 63.5 t-3.5 79.5q-45 -78 -121.5 -122t-168.5 -44q-147 0 -235.5 110t-86.5 327z" />
<glyph unicode="&#x174;" d="M35 1276h133l137 -862l205 768h45l207 -772l117 866h120l-202 -1276h-56l-219 834l-223 -834h-59zM208 1419l293 201h45l310 -203l-62 -74l-266 144l-252 -146z" />
<glyph unicode="&#x175;" d="M33 936h129l151 -752l160 664h90l199 -662q57 383 71.5 503t14.5 216v31h137q-61 -475 -156 -938h-139l-172 606l-164 -606h-133zM203 1116l284 287h50l284 -287l-82 -69l-227 225l-227 -225z" />
<glyph unicode="&#x176;" d="M57 1276h164l314 -619l282 619h152l-363 -772v-504h-155v504zM188 1419l293 201h45l310 -203l-62 -74l-266 144l-252 -146z" />
<glyph unicode="&#x177;" d="M45 -276l64 100l2 2l2 -2q33 -31 69.5 -45.5t85.5 -14.5q76 0 121 53.5t88 176.5l-383 942h154l291 -750l123 377q45 141 66.5 216t31.5 157h147q-12 -84 -37.5 -166t-72.5 -217l-234 -659q-47 -131 -122.5 -190.5t-180.5 -59.5q-131 0 -215 80zM105.5 -166 q5.5 -2 7.5 -2l-2 -6q-11 10 -5.5 8zM113 -168l8 10l12 -8v-2q0 -4 -4 -4zM209 1116l284 287h50l284 -287l-82 -69l-227 225l-227 -225z" />
<glyph unicode="&#x178;" d="M57 1276h164l314 -619l282 619h152l-363 -772v-504h-155v504zM225 1511q0 41 31 73t72 32q43 0 73.5 -31t30.5 -74q0 -41 -30.5 -71.5t-73.5 -30.5q-41 0 -72 30.5t-31 71.5zM592 1511q0 43 29.5 74t70.5 31q43 0 74 -31t31 -74q0 -41 -31 -71.5t-74 -30.5 q-41 0 -70.5 29.5t-29.5 72.5z" />
<glyph unicode="&#x179;" d="M102 0v100l643 1047h-618v129h788v-100l-632 -1049h575q33 0 48.5 4t27.5 16h14v-147h-846zM336 1438l312 182l82 -143l-347 -125z" />
<glyph unicode="&#x17a;" d="M102 0v100l580 707h-537v129h727v-100l-569 -709h528q33 0 48.5 4t27.5 16h15v-147h-820zM419 1092l172 305l113 -82l-207 -277z" />
<glyph unicode="&#x17b;" d="M102 0v100l643 1047h-618v129h788v-100l-632 -1049h575q33 0 48.5 4t27.5 16h14v-147h-846zM426 1516q0 43 30.5 73.5t73.5 30.5t75 -30.5t32 -73.5t-32 -74t-75 -31q-41 0 -72.5 31t-31.5 74z" />
<glyph unicode="&#x17c;" d="M102 0v100l580 707h-537v129h727v-100l-569 -709h528q33 0 48.5 4t27.5 16h15v-147h-820zM416 1237q0 45 29.5 75.5t74.5 30.5q43 0 75 -31.5t32 -74.5t-32 -73.5t-75 -30.5t-73.5 30.5t-30.5 73.5z" />
<glyph unicode="&#x17d;" d="M102 0v100l643 1047h-618v129h788v-100l-632 -1049h575q33 0 48.5 4t27.5 16h14v-147h-846zM249 1542l68 78l211 -145l229 139l58 -68l-269 -205h-45z" />
<glyph unicode="&#x17e;" d="M102 0v100l580 707h-537v129h727v-100l-569 -709h528q33 0 48.5 4t27.5 16h15v-147h-820zM201 1339l82 70l227 -225l228 225l81 -70l-284 -286h-49z" />
<glyph unicode="&#x18f;" d="M55 631q0 305 120 479t337 174t337 -174t120 -479q0 -313 -119 -483.5t-338 -170.5t-338 170t-119 484zM203 631q0 -254 81 -391.5t228 -137.5t228 137.5t81 391.5q0 244 -82 386t-227 142t-227 -142.5t-82 -385.5z" />
<glyph unicode="&#x192;" d="M37 -287l84 131q6 -2 19.5 -21.5t31.5 -31.5t51 -12q57 0 95 70.5t49 205.5l45 613h-248v116h256l14 189q16 205 98 305t222 100q139 0 229 -108l-68 -135q-16 0 -18 20q-8 47 -50 77t-91 30q-82 0 -125 -66t-56 -244l-12 -168h252v-116h-262l-49 -619 q-37 -408 -299 -407q-100 -1 -168 71z" />
<glyph unicode="&#x198;" d="M86 0v1276h172v-14q-12 -12 -15 -26.5t-3 -49.5v-518q188 330 345.5 473t297.5 143q41 0 71 -8l-2 -148v-2q-23 6 -42 9.5t-54 3.5q-61 0 -158.5 -74t-271.5 -307l539 -758l-185 -8l-440 645l-100 -150v-487h-154zM936 1112q0 6 16 6v-10h-14zM952 1118v8q11 -2 11 -4 t-4.5 -3t-6.5 -1z" />
<glyph unicode="&#x1a0;" d="M55 631q0 305 120 479t337 174q152 0 258 -88q33 4 47 20.5t18.5 53.5t4.5 119h118q0 -141 -20 -204t-84 -81q115 -170 115 -473q0 -313 -119 -483.5t-338 -170.5t-338 170t-119 484zM203 631q0 -254 81 -391.5t228 -137.5t228 137.5t81 391.5q0 244 -82 386t-227 142 t-227 -142.5t-82 -385.5z" />
<glyph unicode="&#x1a1;" d="M80 469q0 141 55 251.5t153.5 173t223.5 62.5q127 0 225 -63q33 2 46.5 37t13.5 135h131q0 -119 -19.5 -177.5t-74.5 -80.5q53 -66 81.5 -152t28.5 -186q0 -141 -55 -252t-153.5 -172t-223.5 -61t-223.5 61t-153.5 172t-55 252zM236 471q0 -104 35.5 -187t98 -130.5 t142.5 -47.5t142.5 47.5t98 130.5t35.5 187q0 160 -77.5 261.5t-198.5 101.5t-198.5 -101.5t-77.5 -261.5z" />
<glyph unicode="&#x1af;" d="M92 440v836h146v-14q-12 -12 -15.5 -26.5t-3.5 -49.5v-748q0 -164 57.5 -252t188.5 -88q133 0 190.5 88t57.5 258v832h102q39 0 56.5 15.5t22.5 53t5 123.5h119q0 -116 -12.5 -176.5t-50 -88t-117.5 -27.5v-730q0 -236 -99.5 -352.5t-275.5 -116.5q-182 0 -276.5 120 t-94.5 343z" />
<glyph unicode="&#x1b0;" d="M82 414l2 522h135v-522q0 -168 55.5 -243t147.5 -75q102 0 171 83t69 241v516h135v-791q0 -49 3 -80.5t17 -64.5h-135q-12 31 -15 63.5t-3 79.5q-43 -78 -116 -122t-161 -44q-141 0 -224 109t-81 328zM803 836v100q35 0 48 35t13 137h132q0 -106 -14.5 -162.5t-55.5 -83 t-123 -26.5z" />
<glyph unicode="&#x1b8;" d="M145 352q0 109 50.5 201t140.5 148.5t205 60.5l-361 385v129h625v-129h-465l352 -385v-107q-188 10 -293.5 -61.5t-105.5 -231.5q0 -119 71.5 -190.5t198.5 -71.5q117 0 172 64q49 59 49 65q0 2 -7 0t-9 7l8 10l17 -13l86 -110q-133 -145 -330 -146q-129 0 -220 51.5 t-137.5 136.5t-46.5 187z" />
<glyph unicode="&#x1b9;" d="M186 12q0 109 50.5 201t140.5 148.5t205 60.5l-361 385v129h625v-129h-465l352 -385v-107q-188 10 -293.5 -61.5t-105.5 -231.5q0 -119 71.5 -190.5t198.5 -71.5q117 0 172 64q49 59 49 65q0 2 -7 0t-9 7l8 10l17 -13l86 -110q-133 -145 -330 -146q-129 0 -220 51.5 t-137.5 136.5t-46.5 187z" />
<glyph unicode="&#x1c7;" d="M135 0v1276h168q0 -14 -9 -35.5t-9 -34.5v-1081h348v-125h-498zM285 -168l96 117q12 -10 19.5 -31.5t19.5 -34.5q18 -25 63 -45t101 -20q100 0 149 74.5t49 246.5v1016h-266v121h408v-1135q6 -229 -91.5 -339.5t-246.5 -110.5q-180 0 -301 141z" />
<glyph unicode="&#x1c8;" d="M135 0v1276h168q0 -14 -9 -35.5t-9 -34.5v-1081h327v-125h-477zM221 -225l96 127q8 -8 16.5 -31t26 -40t62.5 -38q49 -23 96 -22q96 0 153.5 65.5t57.5 200.5v778h-287v121h437v-891q0 -201 -101.5 -297t-269.5 -104q-181 0 -287 131zM680 1235q0 45 29.5 75.5t74.5 30.5 q43 0 75 -31.5t32 -74.5t-32 -74t-75 -31t-73.5 31t-30.5 74z" />
<glyph unicode="&#x1c9;" d="M39 0v119h133v1124h-121v119h271v-1243h253v-119h-536zM221 -225l96 127q8 -8 16.5 -31t26 -40t62.5 -38q49 -23 96 -22q96 0 153.5 65.5t57.5 200.5v778h-287v121h437v-891q0 -201 -101.5 -297t-269.5 -104q-181 0 -287 131zM678 1237q0 45 29.5 75.5t74.5 30.5 q43 0 75 -31.5t32 -74.5t-32 -73.5t-75 -30.5t-73.5 30.5t-30.5 73.5z" />
<glyph unicode="&#x1e6;" d="M74 623q-2 254 73.5 402.5t186 206.5t223.5 58q115 0 221.5 -59.5t159.5 -155.5l-100 -80l-2 -2q-70 92 -129.5 131t-147.5 39q-154 0 -249 -118.5t-95 -391.5q0 -262 93 -404.5t259 -142.5q61 0 129 19.5t113 58.5v303h-231v125h364v-499q-182 -133 -375 -133 q-152 0 -263 79.5t-170.5 225t-59.5 338.5zM278 1542l68 78l211 -145l229 139l58 -68l-269 -205h-45zM813 993q0 12 18 -2l-10 -10zM831 991l5 2q9 -14 -5 -2z" />
<glyph unicode="&#x1e7;" d="M78 -111q0 74 41 127.5t104 83.5q-68 45 -67 125q0 82 84 172q-51 45 -78 108.5t-27 139.5q0 90 40 165t115 118t173 43q150 0 239 -97q49 45 101.5 67t116.5 22l34 -2l19 -121q-18 2 -53 2q-98 0 -164 -43q35 -70 35 -154q0 -92 -40 -167t-115 -118t-173 -43 q-78 0 -146 29q-37 -45 -36 -86q0 -49 62.5 -70.5t223.5 -21.5q199 0 271.5 -60.5t72.5 -177.5q0 -121 -98 -201.5t-307 -80.5q-201 0 -314.5 61.5t-113.5 179.5zM152 1339l82 70l227 -225l228 225l81 -70l-284 -286h-49zM213 -94q0 -70 78 -109t217 -39q135 0 201.5 40 t66.5 110q0 49 -17.5 76.5t-68.5 41t-153 13.5q-147 0 -236 27q-49 -33 -68.5 -68t-19.5 -92zM258 645q0 -86 58.5 -145.5t146.5 -59.5t146.5 59.5t58.5 145.5t-58.5 145.5t-146.5 59.5t-146.5 -59.5t-58.5 -145.5z" />
<glyph unicode="&#x1ea;" d="M55 631q0 305 120 479t337 174t337 -174t120 -479q0 -250 -76 -411t-221 -216q-70 -57 -110 -119.5t-40 -115.5q0 -45 32 -76t95 -39l-33 -98q-104 14 -166.5 61t-62.5 123q0 123 137 237h-12q-219 0 -338 170t-119 484zM203 631q0 -254 81 -391.5t228 -137.5t228 137.5 t81 391.5q0 244 -82 386t-227 142t-227 -142.5t-82 -385.5z" />
<glyph unicode="&#x1eb;" d="M80 469q0 141 55 251.5t153.5 173t223.5 62.5t223.5 -62.5t153.5 -173t55 -251.5q0 -158 -69.5 -276.5t-188.5 -172.5q-78 -61 -122 -128.5t-44 -122.5q0 -45 32 -76t95 -39l-33 -98q-104 14 -166.5 61t-62.5 123q0 123 145 244h-18q-125 0 -223.5 61t-153.5 172t-55 252 zM236 471q0 -104 35.5 -187t98 -130.5t142.5 -47.5t142.5 47.5t98 130.5t35.5 187q0 160 -77.5 261.5t-198.5 101.5t-198.5 -101.5t-77.5 -261.5z" />
<glyph unicode="&#x1fa;" d="M33 0l461 1268q-72 8 -121 59t-49 121q0 74 56 127t132 53t131 -53t55 -129q0 -68 -48 -119t-120 -59l461 -1268h-147l-129 373h-412l-129 -373h-141zM315 1790l312 182l82 -143l-347 -125zM342 483h336l-168 488zM428 1448q0 -39 25.5 -65.5t60.5 -26.5t59.5 26.5 t24.5 65.5q0 41 -24.5 67.5t-59.5 26.5q-37 0 -61.5 -26.5t-24.5 -67.5z" />
<glyph unicode="&#x1fb;" d="M100 236q0 98 63.5 171.5t171 113.5t236.5 40q117 0 211 -12q-12 158 -82.5 222.5t-210.5 64.5q-70 0 -134 -27t-117 -78l-72 94q131 131 334 131q200 0 305.5 -104t105.5 -354v-498h-159v143q-86 -166 -320 -166q-156 0 -244 71t-88 188zM248 244q0 -154 198 -154 q152 0 240 89t96 257q-92 14 -198 15q-156 0 -246 -51.5t-90 -155.5zM324 1239q0 74 56.5 127t129.5 53q78 0 133.5 -52t55.5 -128q0 -74 -56.5 -127t-132.5 -53q-73 0 -129.5 53t-56.5 127zM419 1575l172 305l113 -82l-207 -277zM428 1241q0 -39 25 -66.5t59 -27.5 q35 0 60.5 27.5t25.5 66.5t-25.5 66.5t-60.5 27.5t-59.5 -27.5t-24.5 -66.5z" />
<glyph unicode="&#x1fc;" d="M31 0l401 1278h582v-127h-350v-420h297v-131h-297v-473h346v-127h-471v346h-267l-110 -346h-131zM301 465h238v686h-23zM354 1438l312 182l82 -143l-347 -125z" />
<glyph unicode="&#x1fd;" d="M20 252q0 150 109 230.5t324 88.5q0 137 -39 204t-123 67q-92 0 -156 -88l-72 90q88 113 238 112q74 0 134.5 -33.5t92.5 -93.5q35 59 93.5 93t119.5 34q262 0 263 -407v-78l-426 -14v-99q0 -119 57 -190.5t156 -71.5q94 0 149 76l72 -86q-90 -109 -234 -109 q-78 0 -146.5 38t-109.5 104q-35 -66 -96 -104t-135 -38q-137 0 -204 76t-67 199zM152 250q0 -82 34.5 -115t108.5 -33q98 0 128 87t30 260q-168 -8 -234.5 -50.5t-66.5 -148.5zM442 1092l172 305l113 -82l-207 -277zM578 571l307 11q0 131 -34 195.5t-110 64.5 q-78 0 -120.5 -71t-42.5 -200z" />
<glyph unicode="&#x1fe;" d="M55 631q0 305 120 479t337 174q135 0 242 -74l98 187l86 -45l-113 -211q70 -84 107 -214t37 -296q0 -313 -119 -483.5t-338 -170.5q-154 0 -260 84l-78 -147l-90 41l96 182q-125 168 -125 494zM203 631q0 -211 57 -344l426 798q-74 74 -174 74q-145 0 -227 -142.5 t-82 -385.5zM315 1438l312 182l82 -143l-347 -125zM319 188q78 -86 193 -86q147 0 228 137.5t81 391.5q0 229 -71 366z" />
<glyph unicode="&#x1ff;" d="M82 453q0 143 60.5 257.5t163 180t220.5 65.5q78 0 160 -34l76 141l108 -59l-79 -150q152 -139 151 -377q0 -154 -56.5 -267.5t-151.5 -174t-212 -60.5q-102 0 -190 45l-82 -151l-107 55l90 166q-152 145 -151 363zM238 481q0 -156 69 -256l316 580q-51 27 -107 26 q-74 0 -138.5 -45t-102 -124.5t-37.5 -180.5zM397 137q59 -35 125 -35q74 0 136.5 43t99.5 124t37 188q0 168 -76 268zM442 1092l172 305l113 -82l-207 -277z" />
<glyph unicode="&#x200;" d="M33 0l471 1298h16l471 -1298h-147l-129 373h-412l-129 -373h-141zM151 1655l113 82l172 -305l-78 -54zM342 483h336l-168 488zM479 1655l113 82l172 -305l-78 -54z" />
<glyph unicode="&#x201;" d="M100 236q0 98 63.5 171.5t171 113.5t236.5 40q117 0 211 -12q-12 158 -82.5 222.5t-210.5 64.5q-70 0 -134 -27t-117 -78l-72 94q131 131 334 131q200 0 305.5 -104t105.5 -354v-498h-159v143q-86 -166 -320 -166q-156 0 -244 71t-88 188zM151 1315l113 82l172 -305 l-78 -54zM248 244q0 -154 198 -154q152 0 240 89t96 257q-92 14 -198 15q-156 0 -246 -51.5t-90 -155.5zM479 1315l113 82l172 -305l-78 -54z" />
<glyph unicode="&#x202;" d="M33 0l471 1298h16l471 -1298h-147l-129 373h-412l-129 -373h-141zM222 1470q47 90 121.5 139.5t168.5 49.5t169 -49t122 -140l-106 -49q-33 72 -78 106t-107 34q-61 0 -106 -34t-78 -106zM342 483h336l-168 488z" />
<glyph unicode="&#x203;" d="M100 236q0 98 63.5 171.5t171 113.5t236.5 40q117 0 211 -12q-12 158 -82.5 222.5t-210.5 64.5q-70 0 -134 -27t-117 -78l-72 94q131 131 334 131q200 0 305.5 -104t105.5 -354v-498h-159v143q-86 -166 -320 -166q-156 0 -244 71t-88 188zM222 1130q47 90 121.5 139.5 t168.5 49.5t169 -49t122 -140l-106 -49q-33 72 -78 106t-107 34q-61 0 -106 -34t-78 -106zM248 244q0 -154 198 -154q152 0 240 89t96 257q-92 14 -198 15q-156 0 -246 -51.5t-90 -155.5z" />
<glyph unicode="&#x204;" d="M121 0v1278h782v-127h-647v-420h535v-131h-535v-473h641v-127h-776zM192 1655l113 82l172 -305l-78 -54zM520 1655l113 82l172 -305l-78 -54z" />
<glyph unicode="&#x205;" d="M100 465q0 154 57.5 265.5t155 169.5t217.5 58q170 0 275.5 -112.5t105.5 -331.5q0 -23 -4 -68h-665q8 -172 96 -260t223 -88q147 0 242 105l82 -80q-119 -143 -328 -143t-333 126.5t-124 358.5zM172 1315l113 82l172 -305l-78 -54zM248 561h514q0 131 -66.5 208 t-175.5 77q-102 0 -178 -72t-94 -213zM499 1315l113 82l172 -305l-78 -54z" />
<glyph unicode="&#x206;" d="M121 0v1278h782v-127h-647v-420h535v-131h-535v-473h641v-127h-776zM263 1470q47 90 121.5 139.5t168.5 49.5t169 -49t122 -140l-106 -49q-33 72 -78 106t-107 34q-61 0 -106 -34t-78 -106z" />
<glyph unicode="&#x207;" d="M100 465q0 154 57.5 265.5t155 169.5t217.5 58q170 0 275.5 -112.5t105.5 -331.5q0 -23 -4 -68h-665q8 -172 96 -260t223 -88q147 0 242 105l82 -80q-119 -143 -328 -143t-333 126.5t-124 358.5zM242 1130q47 90 121.5 139.5t168.5 49.5t169 -49t122 -140l-106 -49 q-33 72 -78 106t-107 34q-61 0 -106 -34t-78 -106zM248 561h514q0 131 -66.5 208t-175.5 77q-102 0 -178 -72t-94 -213z" />
<glyph unicode="&#x208;" d="M129 1655l113 82l172 -305l-78 -54zM166 0v121h252v1034h-238v121h633v-121h-252v-1036h264v-119h-659zM456 1655l113 82l172 -305l-78 -54z" />
<glyph unicode="&#x209;" d="M151 1315l113 82l172 -305l-78 -54zM205 0v119h239v698h-227v119h375v-817h219v-119h-606zM479 1315l113 82l172 -305l-78 -54z" />
<glyph unicode="&#x20a;" d="M166 0v121h252v1034h-238v121h633v-121h-252v-1036h264v-119h-659zM199 1470q47 90 121.5 139.5t168.5 49.5t169 -49t122 -140l-106 -49q-33 72 -78 106t-107 34q-61 0 -106 -34t-78 -106z" />
<glyph unicode="&#x20b;" d="M205 0v119h239v698h-227v119h375v-817h219v-119h-606zM222 1130q47 90 121.5 139.5t168.5 49.5t169 -49t122 -140l-106 -49q-33 72 -78 106t-107 34q-61 0 -106 -34t-78 -106z" />
<glyph unicode="&#x20c;" d="M55 631q0 305 120 479t337 174t337 -174t120 -479q0 -313 -119 -483.5t-338 -170.5t-338 170t-119 484zM151 1655l113 82l172 -305l-78 -54zM203 631q0 -254 81 -391.5t228 -137.5t228 137.5t81 391.5q0 244 -82 386t-227 142t-227 -142.5t-82 -385.5zM479 1655l113 82 l172 -305l-78 -54z" />
<glyph unicode="&#x20d;" d="M80 469q0 141 55 251.5t153.5 173t223.5 62.5t223.5 -62.5t153.5 -173t55 -251.5t-55 -252t-153.5 -172t-223.5 -61t-223.5 61t-153.5 172t-55 252zM151 1315l113 82l172 -305l-78 -54zM236 471q0 -104 35.5 -187t98 -130.5t142.5 -47.5t142.5 47.5t98 130.5t35.5 187 q0 160 -77.5 261.5t-198.5 101.5t-198.5 -101.5t-77.5 -261.5zM479 1315l113 82l172 -305l-78 -54z" />
<glyph unicode="&#x20e;" d="M55 631q0 305 120 479t337 174t337 -174t120 -479q0 -313 -119 -483.5t-338 -170.5t-338 170t-119 484zM203 631q0 -254 81 -391.5t228 -137.5t228 137.5t81 391.5q0 244 -82 386t-227 142t-227 -142.5t-82 -385.5zM222 1470q47 90 121.5 139.5t168.5 49.5t169 -49 t122 -140l-106 -49q-33 72 -78 106t-107 34q-61 0 -106 -34t-78 -106z" />
<glyph unicode="&#x20f;" d="M80 469q0 141 55 251.5t153.5 173t223.5 62.5t223.5 -62.5t153.5 -173t55 -251.5t-55 -252t-153.5 -172t-223.5 -61t-223.5 61t-153.5 172t-55 252zM222 1130q47 90 121.5 139.5t168.5 49.5t169 -49t122 -140l-106 -49q-33 72 -78 106t-107 34q-61 0 -106 -34t-78 -106z M236 471q0 -104 35.5 -187t98 -130.5t142.5 -47.5t142.5 47.5t98 130.5t35.5 187q0 160 -77.5 261.5t-198.5 101.5t-198.5 -101.5t-77.5 -261.5z" />
<glyph unicode="&#x210;" d="M115 0v1276h377q217 0 320 -96.5t103 -268.5q0 -113 -72.5 -213t-187.5 -129l295 -569h-159l-283 563h-248v-563h-145zM151 1655l113 82l172 -305l-78 -54zM260 690h248q133 0 196.5 58.5t63.5 162.5q0 102 -64.5 166t-195.5 64h-248v-451zM479 1655l113 82l172 -305 l-78 -54z" />
<glyph unicode="&#x211;" d="M151 1315l113 82l172 -305l-78 -54zM244 -2v938h153l-4 -172q39 92 120 143t177 51q150 0 248 -102l-66 -115v-2q-59 55 -99 73.5t-93 18.5q-74 0 -139.5 -36.5t-106.5 -111.5t-41 -187v-498h-149zM479 1315l113 82l172 -305l-78 -54zM850 731v2q0 6 6 5t12 -5l-4 -10z M868 733l4 6q15 -12 7.5 -10t-11.5 4z" />
<glyph unicode="&#x212;" d="M115 0v1276h377q217 0 320 -96.5t103 -268.5q0 -113 -72.5 -213t-187.5 -129l295 -569h-159l-283 563h-248v-563h-145zM222 1470q47 90 121.5 139.5t168.5 49.5t169 -49t122 -140l-106 -49q-33 72 -78 106t-107 34q-61 0 -106 -34t-78 -106zM260 690h248 q133 0 196.5 58.5t63.5 162.5q0 102 -64.5 166t-195.5 64h-248v-451z" />
<glyph unicode="&#x213;" d="M222 1130q47 90 121.5 139.5t168.5 49.5t169 -49t122 -140l-106 -49q-33 72 -78 106t-107 34q-61 0 -106 -34t-78 -106zM244 -2v938h153l-4 -172q39 92 120 143t177 51q150 0 248 -102l-66 -115v-2q-59 55 -99 73.5t-93 18.5q-74 0 -139.5 -36.5t-106.5 -111.5t-41 -187 v-498h-149zM850 731v2q0 6 6 5t12 -5l-4 -10zM868 733l4 6q15 -12 7.5 -10t-11.5 4z" />
<glyph unicode="&#x214;" d="M102 440v836h160v-14q-12 -12 -15 -26.5t-3 -49.5v-748q0 -164 63.5 -252t208.5 -88q147 0 212 88t65 258v832h137v-830q0 -236 -109.5 -352.5t-306.5 -116.5q-203 0 -307.5 121t-104.5 342zM151 1655l113 82l172 -305l-78 -54zM479 1655l113 82l172 -305l-78 -54z" />
<glyph unicode="&#x215;" d="M131 414l2 522h143v-522q0 -168 58.5 -243t154.5 -75q106 0 179 83t73 241v516h144v-791q0 -49 3 -80.5t17 -64.5h-141q-14 31 -17.5 63.5t-3.5 79.5q-45 -78 -121.5 -122t-168.5 -44q-148 0 -236 110t-86 327zM151 1315l113 82l172 -305l-78 -54zM479 1315l113 82 l172 -305l-78 -54z" />
<glyph unicode="&#x216;" d="M102 440v836h160v-14q-12 -12 -15 -26.5t-3 -49.5v-748q0 -164 63.5 -252t208.5 -88q147 0 212 88t65 258v832h137v-830q0 -236 -109.5 -352.5t-306.5 -116.5q-203 0 -307.5 121t-104.5 342zM222 1470q47 90 121.5 139.5t168.5 49.5t169 -49t122 -140l-106 -49 q-33 72 -78 106t-107 34q-61 0 -106 -34t-78 -106z" />
<glyph unicode="&#x217;" d="M131 414l2 522h143v-522q0 -168 58.5 -243t154.5 -75q106 0 179 83t73 241v516h144v-791q0 -49 3 -80.5t17 -64.5h-141q-14 31 -17.5 63.5t-3.5 79.5q-45 -78 -121.5 -122t-168.5 -44q-148 0 -236 110t-86 327zM222 1130q47 90 121.5 139.5t168.5 49.5t169 -49t122 -140 l-106 -49q-33 72 -78 106t-107 34q-61 0 -106 -34t-78 -106z" />
<glyph unicode="&#x218;" d="M106 141l74 129v2q2 0 2 -1v-1q55 -74 142.5 -117.5t201.5 -43.5q113 0 189 63.5t76 155.5q0 59 -24 99t-85 79t-184 92q-188 74 -269.5 168t-81.5 211q0 143 104.5 229t285.5 86q104 0 195 -42t159 -117l-80 -107l-2 -2q-61 84 -128 117t-167 33q-98 0 -158.5 -54.5 t-60.5 -132.5q0 -59 25.5 -103t93 -86t196.5 -93q183 -76 252.5 -156t69.5 -201q0 -94 -46 -178t-142.5 -137t-237.5 -53q-248 0 -400 161zM180 272q-12 17 4 9zM184 281l4 8l15 -8v-2q0 -6 -8.5 -2t-10.5 4zM383 -508q51 47 86 102.5t35 90.5q0 16 -9 27.5t-34 33.5 q-27 25 -39 41t-12 41q0 45 31 77t78 32q51 0 88 -44.5t37 -109.5q0 -143 -197 -346zM786 1018v2q0 6 8.5 2t10.5 -4l-6 -8zM805 1018l4 6q12 -16 5 -11t-9 5z" />
<glyph unicode="&#x219;" d="M117 127l82 139l2 2l2 -2q63 -82 130.5 -123t184.5 -41q111 0 174.5 40t63.5 110q0 59 -51.5 98t-184.5 82q-352 100 -352 291q0 109 89 172t255 63q127 0 214 -35.5t159 -111.5l-84 -102l-2 -2q-43 66 -122 103.5t-161 37.5q-88 0 -144.5 -31t-56.5 -86q0 -51 57.5 -94 t207.5 -86q176 -53 248.5 -115.5t72.5 -163.5q0 -127 -99.5 -209.5t-287.5 -82.5q-238 0 -397 147zM197 279q2 0 8 -5l-4 -6q-6 11 -4 11zM205 274l6 11l12 -9v-2q0 -8 -18 0zM360 -508q51 47 86 102.5t35 90.5q0 16 -9 27.5t-34 33.5q-27 25 -39 41t-12 41q0 45 31 77 t78 32q51 0 88 -44.5t37 -109.5q0 -143 -197 -346zM776 702q1 10 17 -2l-7 -8zM793 700l6 7q6 -9 5 -11t-5 0t-6 4z" />
<glyph unicode="&#x21a;" d="M63 1149v129h885v-129h-377v-1149h-145v1149h-363zM389 -508q51 47 86 102.5t35 90.5q0 16 -9 27.5t-34 33.5q-27 25 -39 41t-12 41q0 45 31 77t78 32q51 0 88 -44.5t37 -109.5q0 -143 -197 -346z" />
<glyph unicode="&#x21b;" d="M143 815v121h215l15 250l164 26l20 2l2 -12q-14 -20 -21.5 -34.5t-9.5 -45.5l-22 -186h311v-121h-319l-19 -317q-4 -82 -4 -109q0 -164 38 -222t122 -58q61 0 112.5 22.5t116.5 71.5l45 -117q-135 -100 -297 -100q-156 0 -220 94t-64 307q0 35 4 121l18 307h-207z M389 -508q51 47 86 102.5t35 90.5q0 16 -9 27.5t-34 33.5q-27 25 -39 41t-12 41q0 45 31 77t78 32q51 0 88 -44.5t37 -109.5q0 -143 -197 -346z" />
<glyph unicode="&#x22a;" d="M55 631q0 305 120 479t337 174t337 -174t120 -479q0 -313 -119 -483.5t-338 -170.5t-338 170t-119 484zM203 631q0 -254 81 -391.5t228 -137.5t228 137.5t81 391.5q0 244 -82 386t-227 142t-227 -142.5t-82 -385.5zM225 1511q0 41 31 73t72 32q43 0 73.5 -31t30.5 -74 q0 -41 -30.5 -71.5t-73.5 -30.5q-41 0 -72 30.5t-31 71.5zM248 1788v115h520v-115h-520zM592 1511q0 43 29.5 74t70.5 31q43 0 74 -31t31 -74q0 -41 -31 -71.5t-74 -30.5q-41 0 -70.5 29.5t-29.5 72.5z" />
<glyph unicode="&#x22b;" d="M80 469q0 141 55 251.5t153.5 173t223.5 62.5t223.5 -62.5t153.5 -173t55 -251.5t-55 -252t-153.5 -172t-223.5 -61t-223.5 61t-153.5 172t-55 252zM227 1257q0 41 31 73t74 32q41 0 71.5 -31t30.5 -74q0 -41 -30.5 -71.5t-71.5 -30.5q-43 0 -74 31t-31 71zM236 471 q0 -104 35.5 -187t98 -130.5t142.5 -47.5t142.5 47.5t98 130.5t35.5 187q0 160 -77.5 261.5t-198.5 101.5t-198.5 -101.5t-77.5 -261.5zM254 1460v115h520v-115h-520zM594 1257q0 43 29.5 74t72.5 31q41 0 72 -31t31 -74q0 -41 -31 -71.5t-72 -30.5q-43 0 -72.5 29.5 t-29.5 72.5z" />
<glyph unicode="&#x22c;" d="M55 631q0 305 120 479t337 174t337 -174t120 -479q0 -313 -119 -483.5t-338 -170.5t-338 170t-119 484zM203 631q0 -254 81 -391.5t228 -137.5t228 137.5t81 391.5q0 244 -82 386t-227 142t-227 -142.5t-82 -385.5zM213 1514q47 197 193 196q43 0 74.5 -18.5t68.5 -51.5 q25 -23 42.5 -34t35.5 -11q27 0 45.5 19.5t38.5 66.5l94 -49q-74 -145 -172 -145q-43 0 -76.5 19.5t-68.5 52.5q-33 27 -51.5 38t-38.5 11q-31 0 -50.5 -30t-33.5 -93zM242 1798v115h520v-115h-520z" />
<glyph unicode="&#x22d;" d="M80 469q0 141 55 251.5t153.5 173t223.5 62.5t223.5 -62.5t153.5 -173t55 -251.5t-55 -252t-153.5 -172t-223.5 -61t-223.5 61t-153.5 172t-55 252zM187 1235q31 74 83 119t128 45q43 0 73.5 -15.5t73.5 -44.5q35 -27 61.5 -39t57.5 -12q33 0 54.5 20.5t49.5 77.5l95 -57 q-45 -86 -87 -119.5t-104 -33.5q-43 0 -76.5 15t-78.5 46q-39 25 -62.5 37t-52.5 12q-37 0 -63.5 -21.5t-51.5 -74.5zM236 471q0 -104 35.5 -187t98 -130.5t142.5 -47.5t142.5 47.5t98 130.5t35.5 187q0 160 -77.5 261.5t-198.5 101.5t-198.5 -101.5t-77.5 -261.5zM252 1524 v115h520v-115h-520z" />
<glyph unicode="&#x230;" d="M55 631q0 305 120 479t337 174t337 -174t120 -479q0 -313 -119 -483.5t-338 -170.5t-338 170t-119 484zM203 631q0 -254 81 -391.5t228 -137.5t228 137.5t81 391.5q0 244 -82 386t-227 142t-227 -142.5t-82 -385.5zM248 1726v115h520v-115h-520zM406 1516q0 43 30.5 73.5 t73.5 30.5t75 -30.5t32 -73.5t-32 -74t-75 -31q-41 0 -72.5 31t-31.5 74z" />
<glyph unicode="&#x231;" d="M80 469q0 141 55 251.5t153.5 173t223.5 62.5t223.5 -62.5t153.5 -173t55 -251.5t-55 -252t-153.5 -172t-223.5 -61t-223.5 61t-153.5 172t-55 252zM236 471q0 -104 35.5 -187t98 -130.5t142.5 -47.5t142.5 47.5t98 130.5t35.5 187q0 160 -77.5 261.5t-198.5 101.5 t-198.5 -101.5t-77.5 -261.5zM252 1460v115h520v-115h-520zM406 1237q0 45 29.5 75.5t74.5 30.5q43 0 75 -31.5t32 -74.5t-32 -73.5t-75 -30.5t-73.5 30.5t-30.5 73.5z" />
<glyph unicode="&#x232;" d="M57 1276h164l314 -619l282 619h152l-363 -772v-504h-155v504zM252 1497v115h520v-115h-520z" />
<glyph unicode="&#x233;" d="M45 -276l64 100l2 2l2 -2q33 -31 69.5 -45.5t85.5 -14.5q76 0 121 53.5t88 176.5l-383 942h154l291 -750l123 377q45 141 66.5 216t31.5 157h147q-12 -84 -37.5 -166t-72.5 -217l-234 -659q-47 -131 -122.5 -190.5t-180.5 -59.5q-131 0 -215 80zM105.5 -166 q5.5 -2 7.5 -2l-2 -6q-11 10 -5.5 8zM113 -168l8 10l12 -8v-2q0 -4 -4 -4zM258 1157v115h520v-115h-520z" />
<glyph unicode="&#x237;" d="M98 -225l82 110l2 2l2 -2q41 -53 91.5 -83.5t119.5 -30.5q96 0 153.5 65.5t57.5 200.5v778h-348v121h498v-891q0 -203 -100.5 -302t-258.5 -99q-90 0 -167.5 32.5t-131.5 98.5zM178 -102q2 0 8 -4l-4 -7q-6 11 -4 11zM186 -106l7 8l12 -8v-3q0 -6 -6 -4t-13 7z" />
<glyph unicode="&#x24d;" d="M72 352v117h172v467h153l-4 -172q39 92 120 143t177 51q150 0 248 -102l-66 -115v-2q-59 55 -99 73.5t-93 18.5q-74 0 -139.5 -36.5t-106.5 -111.5t-41 -187v-27h232v-117h-232v-354h-149v354h-172zM850 731v2q0 6 6 5t12 -5l-4 -10zM868 733l4 6q15 -12 7.5 -10t-11.5 4 z" />
<glyph unicode="&#x259;" d="M113 422q0 23 4 67h665q-8 172 -96 260.5t-223 88.5q-145 0 -242 -105l-82 80q119 143 328 143t333 -127t124 -358q0 -154 -57.5 -265.5t-155 -170t-217.5 -58.5q-170 0 -275.5 113t-105.5 332zM262 375q0 -131 66.5 -208t175.5 -77q102 0 178 71.5t94 213.5h-514z" />
<glyph unicode="&#x27b;" d="M51 80l62 115v2q2 0 2 -1v-1q43 -49 79.5 -70t88.5 -21q68 0 128 37t99 113t39 186v498h149l4 -1022q0 -72 37 -112t95 -40q14 0 34.5 3.5t27.5 2.5t-5 -12q61 49 61 54h-9t-7 8l12 10l13 -16l38 -99q-72 -78 -188 -77q-106 0 -185 65.5t-77 212.5l2 260 q-37 -94 -113 -146.5t-166 -52.5q-63 0 -114.5 25t-106.5 78zM108.5 206q2.5 1 8.5 -1l-4 -8q-7 8 -4.5 9zM117 205l4 8l12 -6v-4q0 -4 -6 -3t-10 5z" />
<glyph unicode="&#x298;" d="M55 631q0 305 120 479t337 174t337 -174t120 -479q0 -313 -119 -483.5t-338 -170.5t-338 170t-119 484zM203 631q0 -254 81 -391.5t228 -137.5t228 137.5t81 391.5q0 244 -82 386t-227 142t-227 -142.5t-82 -385.5zM426 639q0 39 25.5 65.5t64.5 26.5t65.5 -27.5 t26.5 -64.5t-26.5 -63.5t-65.5 -26.5q-37 0 -63.5 26.5t-26.5 63.5z" />
<glyph unicode="&#x29a;" d="M113 293q0 86 48 145.5t132 77.5q-123 70 -123 189q0 72 46 129t126 89.5t178 32.5q127 0 224.5 -62.5t150.5 -173t53 -251.5t-55 -250.5t-154.5 -172t-230.5 -62.5q-115 0 -205 41t-140 111.5t-50 156.5zM272 281q0 -78 65.5 -126.5t166.5 -48.5q133 0 211 96.5 t78 268.5q0 162 -76 262.5t-203 100.5q-92 0 -139 -38t-47 -102q0 -127 186 -127q33 0 49 2v-137q-14 2 -35.5 4t-38.5 2q-98 0 -157.5 -40t-59.5 -117z" />
<glyph unicode="&#x2b9;" d="M408 1053l45 368h145l-100 -368h-90z" />
<glyph unicode="&#x2ba;" d="M285 1053l45 368h145l-100 -368h-90zM551 1053l45 368h145l-100 -368h-90z" />
<glyph unicode="&#x2bb;" d="M365 954q0 143 196 346l64 -55q-51 -47 -86 -102.5t-35 -89.5q0 -16 9 -27.5t34 -34.5q27 -25 39 -41t12 -41q0 -45 -30.5 -76.5t-78.5 -31.5q-51 0 -87.5 44t-36.5 109z" />
<glyph unicode="&#x2bc;" d="M369 979q47 41 76.5 92t29.5 82q0 14 -11 26.5t-26 24.5q-25 23 -36 37t-11 37q0 41 27.5 68.5t70.5 27.5q45 0 78 -39t33 -96q0 -135 -174 -309z" />
<glyph unicode="&#x2be;" d="M399 1268l2 94q90 0 156 -64.5t66 -156.5t-64.5 -155.5t-157.5 -63.5v98q47 0 81 37t34 86t-35 87t-82 38z" />
<glyph unicode="&#x2bf;" d="M401 1141q0 92 65.5 156.5t156.5 64.5l2 -94q-47 0 -82 -38t-35 -87t33.5 -86t81.5 -37v-98q-93 0 -157.5 63.5t-64.5 155.5z" />
<glyph unicode="&#x2c6;" d="M254 1116l248 287h45l246 -289l-91 -53l-180 211l-194 -217z" />
<glyph unicode="&#x2c7;" d="M274 1350l95 71l159 -211l166 209l78 -71l-227 -287h-45z" />
<glyph unicode="&#x2c8;" d="M453 911v451h145v-451h-145z" />
<glyph unicode="&#x2c9;" d="M252 1157v115h520v-115h-520z" />
<glyph unicode="&#x2ca;" d="M377 1143l186 299h146l-242 -299h-90z" />
<glyph unicode="&#x2cb;" d="M369 1346l129 86l180 -302l-103 -61z" />
<glyph unicode="&#x2cc;" d="M438 61h150v-450h-150v450z" />
<glyph unicode="&#x2d8;" d="M207 1231l74 92q41 -63 101 -103t130 -40q131 0 244 143l57 -86q-57 -76 -136 -120t-163 -44q-174 0 -307 158z" />
<glyph unicode="&#x2d9;" d="M416 1237q0 45 29.5 75.5t74.5 30.5q43 0 75 -31.5t32 -74.5t-32 -73.5t-75 -30.5t-73.5 30.5t-30.5 73.5z" />
<glyph unicode="&#x2da;" d="M338 1239q0 74 56.5 127t129.5 53q78 0 133.5 -52t55.5 -128q0 -74 -56.5 -127t-132.5 -53q-73 0 -129.5 53t-56.5 127zM442 1241q0 -39 25 -66.5t59 -27.5q35 0 60.5 27.5t25.5 66.5t-25.5 66.5t-60.5 27.5t-59.5 -27.5t-24.5 -66.5z" />
<glyph unicode="&#x2db;" d="M565 -236q0 102 164 236h135q-172 -154 -172 -209q0 -25 16.5 -41t41.5 -16q59 0 118 47v-94q-59 -47 -137 -47q-80 0 -123 34.5t-43 89.5z" />
<glyph unicode="&#x2dc;" d="M207 1235q31 74 83 119t128 45q43 0 73.5 -15.5t73.5 -44.5q35 -27 61.5 -39t57.5 -12q33 0 54.5 20.5t49.5 77.5l95 -57q-45 -86 -87 -119.5t-104 -33.5q-43 0 -76.5 15t-78.5 46q-39 25 -62.5 37t-52.5 12q-37 0 -63.5 -21.5t-51.5 -74.5z" />
<glyph unicode="&#x2dd;" d="M258 1130l180 302l129 -86l-207 -277zM575 1130l181 302l129 -86l-207 -277z" />
<glyph unicode="&#x300;" horiz-adv-x="0" d="M-709 1315l113 82l172 -305l-78 -54z" />
<glyph unicode="&#x301;" horiz-adv-x="0" d="M-582 1092l172 305l113 -82l-207 -277z" />
<glyph unicode="&#x302;" horiz-adv-x="0" d="M-821 1116l284 287h50l284 -287l-82 -69l-227 225l-227 -225z" />
<glyph unicode="&#x303;" horiz-adv-x="0" d="M-817 1235q31 74 83 119t128 45q43 0 73.5 -15.5t73.5 -44.5q35 -27 61.5 -39t57.5 -12q33 0 54.5 20.5t49.5 77.5l95 -57q-45 -86 -87 -119.5t-104 -33.5q-43 0 -76.5 15t-78.5 46q-39 25 -62.5 37t-52.5 12q-37 0 -63.5 -21.5t-51.5 -74.5z" />
<glyph unicode="&#x304;" horiz-adv-x="0" d="M-772 1157v115h520v-115h-520z" />
<glyph unicode="&#x306;" horiz-adv-x="0" d="M-786 1290l106 49q33 -72 78 -105.5t106 -33.5t106.5 34t78.5 105l106 -49q-47 -90 -121.5 -139t-169.5 -49q-94 0 -168.5 49t-121.5 139z" />
<glyph unicode="&#x307;" horiz-adv-x="0" d="M-608 1237q0 45 29.5 75.5t74.5 30.5q43 0 75 -31.5t32 -74.5t-32 -73.5t-75 -30.5t-73.5 30.5t-30.5 73.5z" />
<glyph unicode="&#x308;" horiz-adv-x="0" d="M-795 1257q0 41 31 73t74 32q41 0 71.5 -31t30.5 -74q0 -41 -30.5 -71.5t-71.5 -30.5q-43 0 -74 31t-31 71zM-428 1257q0 43 29.5 74t72.5 31q41 0 72 -31t31 -74q0 -41 -31 -71.5t-72 -30.5q-43 0 -72.5 29.5t-29.5 72.5z" />
<glyph unicode="&#x309;" horiz-adv-x="0" d="M-711 1356q37 45 79 65.5t97 20.5q70 0 118 -41t48 -111q0 -39 -14 -60.5t-45 -47.5q-29 -25 -42 -44.5t-13 -52.5v-14h-105v57q0 41 60 93q25 23 36 37t11 28q0 27 -18.5 42t-45.5 15q-70 0 -90 -65z" />
<glyph unicode="&#x30a;" horiz-adv-x="0" d="M-686 1239q0 74 56.5 127t129.5 53q78 0 133.5 -52t55.5 -128q0 -74 -56.5 -127t-132.5 -53q-73 0 -129.5 53t-56.5 127zM-582 1241q0 -39 25 -66.5t59 -27.5q35 0 60.5 27.5t25.5 66.5t-25.5 66.5t-60.5 27.5t-59.5 -27.5t-24.5 -66.5z" />
<glyph unicode="&#x30b;" horiz-adv-x="0" d="M-766 1130l180 302l129 -86l-207 -277zM-449 1130l181 302l129 -86l-207 -277z" />
<glyph unicode="&#x30c;" horiz-adv-x="0" d="M-811 1339l82 70l227 -225l228 225l81 -70l-284 -286h-49z" />
<glyph unicode="&#x30f;" horiz-adv-x="0" d="M-830 1315l113 82l172 -305l-78 -54zM-502 1315l113 82l172 -305l-78 -54z" />
<glyph unicode="&#x311;" horiz-adv-x="0" d="M-786 1130q47 90 121.5 139.5t168.5 49.5t169 -49t122 -140l-106 -49q-33 72 -78 106t-107 34q-61 0 -106 -34t-78 -106z" />
<glyph unicode="&#x312;" horiz-adv-x="0" d="M-684 1296q0 160 219 385l70 -61q-57 -53 -95 -114.5t-38 -100.5q0 -18 10 -30.5t37 -37.5q29 -27 43 -45t14 -45q0 -51 -34 -86t-87 -35q-55 0 -97 48.5t-42 121.5z" />
<glyph unicode="&#x31b;" horiz-adv-x="0" d="M-213 836v100q35 0 48 35t13 137h132q0 -106 -14.5 -162.5t-55.5 -83t-123 -26.5z" />
<glyph unicode="&#x323;" horiz-adv-x="0" d="M-647 -223q0 43 30.5 74.5t75.5 31.5q43 0 74 -31.5t31 -74.5t-31 -74t-74 -31q-45 0 -75.5 31t-30.5 74z" />
<glyph unicode="&#x324;" horiz-adv-x="0" d="M-795 -238q0 41 31 73t74 32q41 0 71.5 -31t30.5 -74q0 -41 -30.5 -71.5t-71.5 -30.5q-43 0 -74 31t-31 71zM-428 -238q0 43 29.5 74t72.5 31q41 0 72 -31t31 -74q0 -41 -31 -71.5t-72 -30.5q-43 0 -72.5 29.5t-29.5 72.5z" />
<glyph unicode="&#x326;" horiz-adv-x="0" d="M-664 -508q51 47 86 102.5t35 90.5q0 16 -9 27.5t-34 33.5q-27 25 -39 41t-12 41q0 45 31 77t78 32q51 0 88 -44.5t37 -109.5q0 -143 -197 -346z" />
<glyph unicode="&#x327;" horiz-adv-x="0" d="M-678 -340l51 86q76 -61 178 -61t103 73q0 33 -27.5 50.5t-77.5 17.5h-61l23 174h90l-13 -96q86 -8 130 -46t44 -87q0 -74 -61 -124t-176 -50q-109 0 -203 63z" />
<glyph unicode="&#x328;" horiz-adv-x="0" d="M-715 -281q0 82 64.5 164t183.5 152l55 -35q-78 -61 -123 -129t-45 -123q0 -45 32 -75.5t95 -39.5l-32 -98q-104 14 -167 61.5t-63 122.5z" />
<glyph unicode="&#x32e;" horiz-adv-x="0" d="M-786 -170l106 49q33 -72 78 -105.5t106 -33.5t106.5 33.5t78.5 105.5l106 -49q-47 -90 -121.5 -139t-169.5 -49q-94 0 -168.5 49t-121.5 139z" />
<glyph unicode="&#x331;" horiz-adv-x="0" d="M-772 -203h520v-114h-520v114z" />
<glyph unicode="&#x335;" horiz-adv-x="0" d="M-776 586v116h553v-116h-553z" />
<glyph unicode="&#x336;" horiz-adv-x="0" d="M-879 575v138h738v-138h-738z" />
<glyph unicode="&#x375;" d="M354 -156l127 369h146l-183 -369h-90z" />
<glyph unicode="&#x1e08;" d="M84 631q0 236 71.5 382t182.5 209.5t237 63.5q135 0 234.5 -67.5t151.5 -184.5l-123 -57q-2 0 -2 1v1q-53 106 -119 149t-146 43q-162 0 -255 -140t-93 -390q0 -158 47 -280.5t128 -190.5t180 -68q75 0 145 42t113 114l106 -70q-55 -92 -128 -143t-173 -63l-10 -78 q86 -8 130 -46t44 -87q0 -74 -61.5 -124t-176.5 -50q-109 0 -202 63l51 86q78 -61 178 -61q102 0 102 73q0 33 -27.5 50.5t-76.5 17.5h-62l21 154q-209 12 -337 175.5t-130 475.5zM356 1438l312 182l82 -143l-347 -125zM813 983l4 4q4 0 17 -12l-15 -6zM834 975l4 2 q8 -18 -4 -2z" />
<glyph unicode="&#x1e09;" d="M115 467q0 139 60.5 249.5t167 174t239.5 63.5q113 0 205 -46t149 -128l-92 -90l-2 -2q-59 78 -122 109.5t-155 31.5q-80 0 -148.5 -44t-109.5 -123.5t-41 -184.5q0 -104 42 -188t117 -131t167 -47q142 -1 244 114l86 -100q-117 -123 -269 -143l-10 -78q86 -8 130 -46 t44 -87q0 -74 -61.5 -124t-175.5 -50q-109 0 -203 63l51 86q78 -61 178 -61q102 0 103 73q0 33 -28 50.5t-77 17.5h-61l20 151q-129 4 -231.5 70t-159.5 175.5t-57 244.5zM494 1092l172 305l112 -82l-207 -277zM819 686q1 12 19 -2l-9 -8zM838 684l4 4q10 -14 5 -10t-9 6z " />
<glyph unicode="&#x1e0c;" d="M111 -2v1278h297q158 0 250 -42t159 -132q125 -168 125 -471q-12 -309 -143 -472t-416 -161h-272zM246 111h131q422 0 422 512q-2 260 -96.5 396t-303.5 136h-153v-1044zM400 -223q0 43 30.5 74.5t75.5 31.5q43 0 74 -31.5t31 -74.5t-31 -74t-74 -31q-45 0 -75.5 31 t-30.5 74z" />
<glyph unicode="&#x1e0d;" d="M92 477q0 162 57.5 270.5t147.5 161t190 52.5q94 0 165 -43.5t108 -118.5v563h155v-14q-12 -12 -15 -26.5t-3 -49.5l2 -1127q0 -49 3 -80.5t18 -64.5h-146q-14 33 -17 64.5t-3 80.5q-45 -78 -116 -121.5t-159 -43.5q-100 0 -188 56t-143.5 168.5t-55.5 272.5zM236 500 q0 -180 68.5 -285.5t197.5 -105.5q127 0 186.5 100t59.5 264q0 166 -65 266.5t-194 100.5q-123 0 -188 -91.5t-65 -248.5zM400 -223q0 43 30.5 74.5t75.5 31.5q43 0 74 -31.5t31 -74.5t-31 -74t-74 -31q-45 0 -75.5 31t-30.5 74z" />
<glyph unicode="&#x1e0e;" d="M111 -2v1278h297q158 0 250 -42t159 -132q125 -168 125 -471q-12 -309 -143 -472t-416 -161h-272zM246 111h131q422 0 422 512q-2 260 -96.5 396t-303.5 136h-153v-1044zM256 -203h520v-114h-520v114z" />
<glyph unicode="&#x1e0f;" d="M92 477q0 162 57.5 270.5t147.5 161t190 52.5q94 0 165 -43.5t108 -118.5v563h155v-14q-12 -12 -15 -26.5t-3 -49.5l2 -1127q0 -49 3 -80.5t18 -64.5h-146q-14 33 -17 64.5t-3 80.5q-45 -78 -116 -121.5t-159 -43.5q-100 0 -188 56t-143.5 168.5t-55.5 272.5zM236 500 q0 -180 68.5 -285.5t197.5 -105.5q127 0 186.5 100t59.5 264q0 166 -65 266.5t-194 100.5q-123 0 -188 -91.5t-65 -248.5zM256 -203h520v-114h-520v114z" />
<glyph unicode="&#x1e14;" d="M121 0v1278h782v-127h-647v-420h535v-131h-535v-473h641v-127h-776zM293 1497v115h520v-115h-520zM293 1792l82 143l313 -182l-47 -86z" />
<glyph unicode="&#x1e15;" d="M100 465q0 154 57.5 265.5t155 169.5t217.5 58q170 0 275.5 -112.5t105.5 -331.5q0 -23 -4 -68h-665q8 -172 96 -260t223 -88q147 0 242 105l82 -80q-119 -143 -328 -143t-333 126.5t-124 358.5zM248 561h514q0 131 -66.5 208t-175.5 77q-102 0 -178 -72t-94 -213z M272 1157v115h520v-115h-520zM313 1630l113 82l172 -305l-78 -54z" />
<glyph unicode="&#x1e16;" d="M121 0v1278h782v-127h-647v-420h535v-131h-535v-473h641v-127h-776zM293 1497v115h520v-115h-520zM356 1753l312 182l82 -143l-347 -125z" />
<glyph unicode="&#x1e17;" d="M100 465q0 154 57.5 265.5t155 169.5t217.5 58q170 0 275.5 -112.5t105.5 -331.5q0 -23 -4 -68h-665q8 -172 96 -260t223 -88q147 0 242 105l82 -80q-119 -143 -328 -143t-333 126.5t-124 358.5zM248 561h514q0 131 -66.5 208t-175.5 77q-102 0 -178 -72t-94 -213z M272 1157v115h520v-115h-520zM440 1407l172 305l113 -82l-207 -277z" />
<glyph unicode="&#x1e1c;" d="M121 0v1278h782v-127h-647v-420h535v-131h-535v-473h641v-127h-776zM262 1563l107 49q33 -72 78 -105.5t106 -33.5t106.5 33.5t77.5 105.5l107 -49q-47 -90 -122 -139.5t-169 -49.5t-169 49.5t-122 139.5zM303 -340l51 86q76 -61 178 -61t103 73q0 33 -27.5 50.5 t-77.5 17.5h-61l23 174h90l-13 -96q86 -8 130 -46t44 -87q0 -74 -61 -124t-176 -50q-109 0 -203 63z" />
<glyph unicode="&#x1e1d;" d="M100 465q0 154 57.5 265.5t155 169.5t217.5 58q170 0 275.5 -112.5t105.5 -331.5q0 -23 -4 -68h-665q8 -172 96 -260t223 -88q147 0 242 105l82 -80q-94 -113 -244 -137l-10 -82q86 -8 130 -46t44 -87q0 -74 -61.5 -124t-176.5 -50q-109 0 -202 63l51 86q78 -61 178 -61 q102 0 102 73q0 33 -27.5 50.5t-76.5 17.5h-62l21 154q-207 2 -329 129t-122 356zM242 1290l106 49q33 -72 78 -105.5t106 -33.5t106.5 34t78.5 105l106 -49q-47 -90 -121.5 -139t-169.5 -49q-94 0 -168.5 49t-121.5 139zM248 561h514q0 131 -66.5 208t-175.5 77 q-102 0 -178 -72t-94 -213z" />
<glyph unicode="&#x1e20;" d="M74 623q-2 254 73.5 402.5t186 206.5t223.5 58q115 0 221.5 -59.5t159.5 -155.5l-100 -80l-2 -2q-70 92 -129.5 131t-147.5 39q-154 0 -249 -118.5t-95 -391.5q0 -262 93 -404.5t259 -142.5q61 0 129 19.5t113 58.5v303h-231v125h364v-499q-182 -133 -375 -133 q-152 0 -263 79.5t-170.5 225t-59.5 338.5zM301 1497v115h520v-115h-520zM813 993q0 12 18 -2l-10 -10zM831 991l5 2q9 -14 -5 -2z" />
<glyph unicode="&#x1e21;" d="M78 -111q0 74 41 127.5t104 83.5q-68 45 -67 125q0 82 84 172q-51 45 -78 108.5t-27 139.5q0 90 40 165t115 118t173 43q150 0 239 -97q49 45 101.5 67t116.5 22l34 -2l19 -121q-18 2 -53 2q-98 0 -164 -43q35 -70 35 -154q0 -92 -40 -167t-115 -118t-173 -43 q-78 0 -146 29q-37 -45 -36 -86q0 -49 62.5 -70.5t223.5 -21.5q199 0 271.5 -60.5t72.5 -177.5q0 -121 -98 -201.5t-307 -80.5q-201 0 -314.5 61.5t-113.5 179.5zM203 1157v115h520v-115h-520zM213 -94q0 -70 78 -109t217 -39q135 0 201.5 40t66.5 110q0 49 -17.5 76.5 t-68.5 41t-153 13.5q-147 0 -236 27q-49 -33 -68.5 -68t-19.5 -92zM258 645q0 -86 58.5 -145.5t146.5 -59.5t146.5 59.5t58.5 145.5t-58.5 145.5t-146.5 59.5t-146.5 -59.5t-58.5 -145.5z" />
<glyph unicode="&#x1e24;" d="M102 0v1276h168v-14q-12 -12 -15 -26.5t-3 -49.5v-455h500v545h168v-14q-12 -12 -15.5 -26.5t-3.5 -49.5v-1186h-151v608h-498v-608h-150zM400 -223q0 43 30.5 74.5t75.5 31.5q43 0 74 -31.5t31 -74.5t-31 -74t-74 -31q-45 0 -75.5 31t-30.5 74z" />
<glyph unicode="&#x1e25;" d="M150 0v1362h161v-14q-12 -12 -15 -26.5t-3 -49.5v-502q55 86 138 137t169 51q133 0 209 -94t76 -297v-567h-144v563q0 139 -47 202.5t-125 63.5q-66 0 -129 -35.5t-105 -102t-42 -152.5v-539h-143zM400 -223q0 43 30.5 74.5t75.5 31.5q43 0 74 -31.5t31 -74.5t-31 -74 t-74 -31q-45 0 -75.5 31t-30.5 74z" />
<glyph unicode="&#x1e2a;" d="M102 0v1276h168v-14q-12 -12 -15 -26.5t-3 -49.5v-455h500v545h168v-14q-12 -12 -15.5 -26.5t-3.5 -49.5v-1186h-151v608h-498v-608h-150zM242 -170l106 49q33 -72 78 -105.5t106 -33.5t106.5 33.5t78.5 105.5l106 -49q-47 -90 -121.5 -139t-169.5 -49q-94 0 -168.5 49 t-121.5 139z" />
<glyph unicode="&#x1e2b;" d="M150 0v1362h161v-14q-12 -12 -15 -26.5t-3 -49.5v-502q55 86 138 137t169 51q133 0 209 -94t76 -297v-567h-144v563q0 139 -47 202.5t-125 63.5q-66 0 -129 -35.5t-105 -102t-42 -152.5v-539h-143zM242 -170l106 49q33 -72 78 -105.5t106 -33.5t106.5 33.5t78.5 105.5 l106 -49q-47 -90 -121.5 -139t-169.5 -49q-94 0 -168.5 49t-121.5 139z" />
<glyph unicode="&#x1e2e;" d="M166 0v121h252v1034h-238v121h633v-121h-252v-1036h264v-119h-659zM202 1511q0 41 31 73t72 32q43 0 73.5 -31t30.5 -74q0 -41 -30.5 -71.5t-73.5 -30.5q-41 0 -72 30.5t-31 71.5zM288 1729l312 182l82 -143l-347 -125zM569 1511q0 43 29.5 74t70.5 31q43 0 74 -31 t31 -74q0 -41 -31 -71.5t-74 -30.5q-41 0 -70.5 29.5t-29.5 72.5z" />
<glyph unicode="&#x1e2f;" d="M205 0v119h239v698h-227v119h375v-817h219v-119h-606zM227 1257q0 41 31 73t74 32q41 0 71.5 -31t30.5 -74q0 -41 -30.5 -71.5t-71.5 -30.5q-43 0 -74 31t-31 71zM422 1395l172 305l113 -82l-207 -277zM594 1257q0 43 29.5 74t72.5 31q41 0 72 -31t31 -74 q0 -41 -31 -71.5t-72 -30.5q-43 0 -72.5 29.5t-29.5 72.5z" />
<glyph unicode="&#x1e36;" d="M135 0v1276h168v-14q-12 -12 -15 -26.5t-3 -49.5v-1063h614v-123h-764zM400 -223q0 43 30.5 74.5t75.5 31.5q43 0 74 -31.5t31 -74.5t-31 -74t-74 -31q-45 0 -75.5 31t-30.5 74z" />
<glyph unicode="&#x1e37;" d="M162 0v119h276v1124h-264v119h414v-1243h274v-119h-700zM400 -223q0 43 30.5 74.5t75.5 31.5q43 0 74 -31.5t31 -74.5t-31 -74t-74 -31q-45 0 -75.5 31t-30.5 74z" />
<glyph unicode="&#x1e3a;" d="M135 0v1276h168v-14q-12 -12 -15 -26.5t-3 -49.5v-1063h614v-123h-764zM256 -203h520v-114h-520v114z" />
<glyph unicode="&#x1e3b;" d="M162 0v119h276v1124h-264v119h414v-1243h274v-119h-700zM256 -203h520v-114h-520v114z" />
<glyph unicode="&#x1e42;" d="M84 0v1276h113l315 -625l322 627h108v-1278h-135v963l-277 -514h-55l-258 507v-956h-133zM400 -223q0 43 30.5 74.5t75.5 31.5q43 0 74 -31.5t31 -74.5t-31 -74t-74 -31q-45 0 -75.5 31t-30.5 74z" />
<glyph unicode="&#x1e43;" d="M78 0v936h135v-92q33 51 84 82.5t106 31.5q61 0 107.5 -38.5t58.5 -98.5q27 61 84.5 99t126.5 38q92 0 138.5 -66.5t42.5 -172.5v-719h-136v664q0 117 -22.5 151.5t-65.5 34.5q-37 0 -71.5 -35t-56 -89t-21.5 -108v-618h-137v651q0 115 -21.5 155t-81.5 40 q-31 0 -62.5 -27.5t-52 -78t-20.5 -115.5v-625h-135zM400 -223q0 43 30.5 74.5t75.5 31.5q43 0 74 -31.5t31 -74.5t-31 -74t-74 -31q-45 0 -75.5 31t-30.5 74z" />
<glyph unicode="&#x1e44;" d="M102 0v1276h140l536 -946v946h156v-14q-12 -12 -15.5 -26.5t-3.5 -49.5v-1186h-112l-563 1004v-1004h-138zM406 1516q0 43 30.5 73.5t73.5 30.5t75 -30.5t32 -73.5t-32 -74t-75 -31q-41 0 -72.5 31t-31.5 74z" />
<glyph unicode="&#x1e45;" d="M147 0v936h144v-166q55 86 139 137t178 51q125 0 200 -95t75 -296v-567h-144v563q0 139 -47 202.5t-125 63.5q-63 0 -127.5 -36.5t-106.5 -103t-42 -150.5v-539h-144zM436 1237q0 45 29.5 75.5t74.5 30.5q43 0 75 -31.5t32 -74.5t-32 -73.5t-75 -30.5t-73.5 30.5 t-30.5 73.5z" />
<glyph unicode="&#x1e46;" d="M102 0v1276h140l536 -946v946h156v-14q-12 -12 -15.5 -26.5t-3.5 -49.5v-1186h-112l-563 1004v-1004h-138zM400 -223q0 43 30.5 74.5t75.5 31.5q43 0 74 -31.5t31 -74.5t-31 -74t-74 -31q-45 0 -75.5 31t-30.5 74z" />
<glyph unicode="&#x1e47;" d="M147 0v936h144v-166q55 86 139 137t178 51q125 0 200 -95t75 -296v-567h-144v563q0 139 -47 202.5t-125 63.5q-63 0 -127.5 -36.5t-106.5 -103t-42 -150.5v-539h-144zM420 -223q0 43 30.5 74.5t75.5 31.5q43 0 74 -31.5t31 -74.5t-31 -74t-74 -31q-45 0 -75.5 31 t-30.5 74z" />
<glyph unicode="&#x1e48;" d="M102 0v1276h140l536 -946v946h156v-14q-12 -12 -15.5 -26.5t-3.5 -49.5v-1186h-112l-563 1004v-1004h-138zM256 -203h520v-114h-520v114z" />
<glyph unicode="&#x1e49;" d="M147 0v936h144v-166q55 86 139 137t178 51q125 0 200 -95t75 -296v-567h-144v563q0 139 -47 202.5t-125 63.5q-63 0 -127.5 -36.5t-106.5 -103t-42 -150.5v-539h-144zM277 -203h520v-114h-520v114z" />
<glyph unicode="&#x1e4c;" d="M55 631q0 305 120 479t337 174t337 -174t120 -479q0 -313 -119 -483.5t-338 -170.5t-338 170t-119 484zM195 1468q31 74 83 119t128 45q43 0 73.5 -15t73.5 -44q35 -27 61.5 -39t57.5 -12q33 0 54.5 20.5t49.5 77.5l94 -57q-45 -86 -87 -120t-103 -34q-43 0 -77 15.5 t-79 45.5q-39 25 -62.5 37.5t-51.5 12.5q-37 0 -63.5 -21.5t-51.5 -75.5zM203 631q0 -254 81 -391.5t228 -137.5t228 137.5t81 391.5q0 244 -82 386t-227 142t-227 -142.5t-82 -385.5zM315 1755l312 182l82 -143l-347 -125z" />
<glyph unicode="&#x1e4d;" d="M80 469q0 141 55 251.5t153.5 173t223.5 62.5t223.5 -62.5t153.5 -173t55 -251.5t-55 -252t-153.5 -172t-223.5 -61t-223.5 61t-153.5 172t-55 252zM187 1235q31 74 83 119t128 45q43 0 73.5 -15.5t73.5 -44.5q35 -27 61.5 -39t57.5 -12q33 0 54.5 20.5t49.5 77.5l95 -57 q-45 -86 -87 -119.5t-104 -33.5q-43 0 -76.5 15t-78.5 46q-39 25 -62.5 37t-52.5 12q-37 0 -63.5 -21.5t-51.5 -74.5zM236 471q0 -104 35.5 -187t98 -130.5t142.5 -47.5t142.5 47.5t98 130.5t35.5 187q0 160 -77.5 261.5t-198.5 101.5t-198.5 -101.5t-77.5 -261.5zM419 1459 l172 305l113 -82l-207 -277z" />
<glyph unicode="&#x1e4e;" d="M55 631q0 305 120 479t337 174t337 -174t120 -479q0 -313 -119 -483.5t-338 -170.5t-338 170t-119 484zM195 1468q31 74 83 119t128 45q43 0 73.5 -15t73.5 -44q35 -27 61.5 -39t57.5 -12q33 0 54.5 20.5t49.5 77.5l94 -57q-45 -86 -87 -120t-103 -34q-43 0 -77 15.5 t-79 45.5q-39 25 -62.5 37.5t-51.5 12.5q-37 0 -63.5 -21.5t-51.5 -75.5zM203 631q0 -254 81 -391.5t228 -137.5t228 137.5t81 391.5q0 244 -82 386t-227 142t-227 -142.5t-82 -385.5zM225 1828q0 41 31 73t72 32q43 0 73.5 -31t30.5 -74q0 -41 -30.5 -71.5t-73.5 -30.5 q-41 0 -72 30.5t-31 71.5zM592 1828q0 43 29.5 74t70.5 31q43 0 74 -31t31 -74q0 -41 -31 -71.5t-74 -30.5q-41 0 -70.5 29.5t-29.5 72.5z" />
<glyph unicode="&#x1e4f;" d="M80 469q0 141 55 251.5t153.5 173t223.5 62.5t223.5 -62.5t153.5 -173t55 -251.5t-55 -252t-153.5 -172t-223.5 -61t-223.5 61t-153.5 172t-55 252zM187 1235q31 74 83 119t128 45q43 0 73.5 -15.5t73.5 -44.5q35 -27 61.5 -39t57.5 -12q33 0 54.5 20.5t49.5 77.5l95 -57 q-45 -86 -87 -119.5t-104 -33.5q-43 0 -76.5 15t-78.5 46q-39 25 -62.5 37t-52.5 12q-37 0 -63.5 -21.5t-51.5 -74.5zM227 1624q0 41 31 73t74 32q41 0 71.5 -31t30.5 -74q0 -41 -30.5 -71.5t-71.5 -30.5q-43 0 -74 31t-31 71zM236 471q0 -104 35.5 -187t98 -130.5 t142.5 -47.5t142.5 47.5t98 130.5t35.5 187q0 160 -77.5 261.5t-198.5 101.5t-198.5 -101.5t-77.5 -261.5zM594 1624q0 43 29.5 74t72.5 31q41 0 72 -31t31 -74q0 -41 -31 -71.5t-72 -30.5q-43 0 -72.5 29.5t-29.5 72.5z" />
<glyph unicode="&#x1e50;" d="M55 631q0 305 120 479t337 174t337 -174t120 -479q0 -313 -119 -483.5t-338 -170.5t-338 170t-119 484zM203 631q0 -254 81 -391.5t228 -137.5t228 137.5t81 391.5q0 244 -82 386t-227 142t-227 -142.5t-82 -385.5zM252 1497v115h520v-115h-520zM252 1792l82 143 l313 -182l-47 -86z" />
<glyph unicode="&#x1e51;" d="M80 469q0 141 55 251.5t153.5 173t223.5 62.5t223.5 -62.5t153.5 -173t55 -251.5t-55 -252t-153.5 -172t-223.5 -61t-223.5 61t-153.5 172t-55 252zM236 471q0 -104 35.5 -187t98 -130.5t142.5 -47.5t142.5 47.5t98 130.5t35.5 187q0 160 -77.5 261.5t-198.5 101.5 t-198.5 -101.5t-77.5 -261.5zM252 1157v115h520v-115h-520zM292 1630l113 82l172 -305l-78 -54z" />
<glyph unicode="&#x1e52;" d="M55 631q0 305 120 479t337 174t337 -174t120 -479q0 -313 -119 -483.5t-338 -170.5t-338 170t-119 484zM203 631q0 -254 81 -391.5t228 -137.5t228 137.5t81 391.5q0 244 -82 386t-227 142t-227 -142.5t-82 -385.5zM252 1497v115h520v-115h-520zM315 1753l312 182 l82 -143l-347 -125z" />
<glyph unicode="&#x1e53;" d="M80 469q0 141 55 251.5t153.5 173t223.5 62.5t223.5 -62.5t153.5 -173t55 -251.5t-55 -252t-153.5 -172t-223.5 -61t-223.5 61t-153.5 172t-55 252zM236 471q0 -104 35.5 -187t98 -130.5t142.5 -47.5t142.5 47.5t98 130.5t35.5 187q0 160 -77.5 261.5t-198.5 101.5 t-198.5 -101.5t-77.5 -261.5zM252 1157v115h520v-115h-520zM419 1407l172 305l113 -82l-207 -277z" />
<glyph unicode="&#x1e5a;" d="M115 0v1276h377q217 0 320 -96.5t103 -268.5q0 -113 -72.5 -213t-187.5 -129l295 -569h-159l-283 563h-248v-563h-145zM260 690h248q133 0 196.5 58.5t63.5 162.5q0 102 -64.5 166t-195.5 64h-248v-451zM400 -223q0 43 30.5 74.5t75.5 31.5q43 0 74 -31.5t31 -74.5 t-31 -74t-74 -31q-45 0 -75.5 31t-30.5 74z" />
<glyph unicode="&#x1e5b;" d="M244 -2v938h153l-4 -172q39 92 120 143t177 51q150 0 248 -102l-66 -115v-2q-59 55 -99 73.5t-93 18.5q-74 0 -139.5 -36.5t-106.5 -111.5t-41 -187v-498h-149zM440 -223q0 43 30.5 74.5t75.5 31.5q43 0 74 -31.5t31 -74.5t-31 -74t-74 -31q-45 0 -75.5 31t-30.5 74z M850 731v2q0 6 6 5t12 -5l-4 -10zM868 733l4 6q15 -12 7.5 -10t-11.5 4z" />
<glyph unicode="&#x1e5e;" d="M115 0v1276h377q217 0 320 -96.5t103 -268.5q0 -113 -72.5 -213t-187.5 -129l295 -569h-159l-283 563h-248v-563h-145zM256 -203h520v-114h-520v114zM260 690h248q133 0 196.5 58.5t63.5 162.5q0 102 -64.5 166t-195.5 64h-248v-451z" />
<glyph unicode="&#x1e5f;" d="M244 -2v938h153l-4 -172q39 92 120 143t177 51q150 0 248 -102l-66 -115v-2q-59 55 -99 73.5t-93 18.5q-74 0 -139.5 -36.5t-106.5 -111.5t-41 -187v-498h-149zM297 -203h520v-114h-520v114zM850 731v2q0 6 6 5t12 -5l-4 -10zM868 733l4 6q15 -12 7.5 -10t-11.5 4z" />
<glyph unicode="&#x1e60;" d="M106 141l74 129v2q2 0 2 -1v-1q55 -74 142.5 -117.5t201.5 -43.5q113 0 189 63.5t76 155.5q0 59 -24 99t-85 79t-184 92q-188 74 -269.5 168t-81.5 211q0 143 104.5 229t285.5 86q104 0 195 -42t159 -117l-80 -107l-2 -2q-61 84 -128 117t-167 33q-98 0 -158.5 -54.5 t-60.5 -132.5q0 -59 25.5 -103t93 -86t196.5 -93q183 -76 252.5 -156t69.5 -201q0 -94 -46 -178t-142.5 -137t-237.5 -53q-248 0 -400 161zM180 272q-12 17 4 9zM184 281l4 8l15 -8v-2q0 -6 -8.5 -2t-10.5 4zM428 1516q0 43 30.5 73.5t73.5 30.5t75 -30.5t32 -73.5t-32 -74 t-75 -31q-41 0 -72.5 31t-31.5 74zM786 1018v2q0 6 8.5 2t10.5 -4l-6 -8zM805 1018l4 6q12 -16 5 -11t-9 5z" />
<glyph unicode="&#x1e61;" d="M117 127l82 139l2 2l2 -2q63 -82 130.5 -123t184.5 -41q111 0 174.5 40t63.5 110q0 59 -51.5 98t-184.5 82q-352 100 -352 291q0 109 89 172t255 63q127 0 214 -35.5t159 -111.5l-84 -102l-2 -2q-43 66 -122 103.5t-161 37.5q-88 0 -144.5 -31t-56.5 -86q0 -51 57.5 -94 t207.5 -86q176 -53 248.5 -115.5t72.5 -163.5q0 -127 -99.5 -209.5t-287.5 -82.5q-238 0 -397 147zM197 279q2 0 8 -5l-4 -6q-6 11 -4 11zM205 274l6 11l12 -9v-2q0 -8 -18 0zM416 1237q0 45 29.5 75.5t74.5 30.5q43 0 75 -31.5t32 -74.5t-32 -73.5t-75 -30.5t-73.5 30.5 t-30.5 73.5zM776 702q1 10 17 -2l-7 -8zM793 700l6 7q6 -9 5 -11t-5 0t-6 4z" />
<glyph unicode="&#x1e62;" d="M106 141l74 129v2q2 0 2 -1v-1q55 -74 142.5 -117.5t201.5 -43.5q113 0 189 63.5t76 155.5q0 59 -24 99t-85 79t-184 92q-188 74 -269.5 168t-81.5 211q0 143 104.5 229t285.5 86q104 0 195 -42t159 -117l-80 -107l-2 -2q-61 84 -128 117t-167 33q-98 0 -158.5 -54.5 t-60.5 -132.5q0 -59 25.5 -103t93 -86t196.5 -93q183 -76 252.5 -156t69.5 -201q0 -94 -46 -178t-142.5 -137t-237.5 -53q-248 0 -400 161zM180 272q-12 17 4 9zM184 281l4 8l15 -8v-2q0 -6 -8.5 -2t-10.5 4zM393 -223q0 43 30.5 74.5t75.5 31.5q43 0 74 -31.5t31 -74.5 t-31 -74t-74 -31q-45 0 -75.5 31t-30.5 74zM786 1018v2q0 6 8.5 2t10.5 -4l-6 -8zM805 1018l4 6q12 -16 5 -11t-9 5z" />
<glyph unicode="&#x1e63;" d="M117 127l82 139l2 2l2 -2q63 -82 130.5 -123t184.5 -41q111 0 174.5 40t63.5 110q0 59 -51.5 98t-184.5 82q-352 100 -352 291q0 109 89 172t255 63q127 0 214 -35.5t159 -111.5l-84 -102l-2 -2q-43 66 -122 103.5t-161 37.5q-88 0 -144.5 -31t-56.5 -86q0 -51 57.5 -94 t207.5 -86q176 -53 248.5 -115.5t72.5 -163.5q0 -127 -99.5 -209.5t-287.5 -82.5q-238 0 -397 147zM197 279q2 0 8 -5l-4 -6q-6 11 -4 11zM205 274l6 11l12 -9v-2q0 -8 -18 0zM377 -223q0 43 30.5 74.5t75.5 31.5q43 0 74 -31.5t31 -74.5t-31 -74t-74 -31q-45 0 -75.5 31 t-30.5 74zM776 702q1 10 17 -2l-7 -8zM793 700l6 7q6 -9 5 -11t-5 0t-6 4z" />
<glyph unicode="&#x1e64;" d="M106 141l74 129v2q2 0 2 -1v-1q55 -74 142.5 -117.5t201.5 -43.5q113 0 189 63.5t76 155.5q0 59 -24 99t-85 79t-184 92q-188 74 -269.5 168t-81.5 211q0 143 104.5 229t285.5 86q104 0 195 -42t159 -117l-80 -107l-2 -2q-61 84 -128 117t-167 33q-98 0 -158.5 -54.5 t-60.5 -132.5q0 -59 25.5 -103t93 -86t196.5 -93q183 -76 252.5 -156t69.5 -201q0 -94 -46 -178t-142.5 -137t-237.5 -53q-248 0 -400 161zM180 272q-12 17 4 9zM184 281l4 8l15 -8v-2q0 -6 -8.5 -2t-10.5 4zM338 1438l312 182l82 -143l-347 -125zM428 1758q0 43 30.5 73.5 t73.5 30.5t75 -30.5t32 -73.5t-32 -74t-75 -31q-41 0 -72.5 31t-31.5 74zM786 1018v2q0 6 8.5 2t10.5 -4l-6 -8zM805 1018l4 6q12 -16 5 -11t-9 5z" />
<glyph unicode="&#x1e65;" d="M117 127l82 139l2 2l2 -2q63 -82 130.5 -123t184.5 -41q111 0 174.5 40t63.5 110q0 59 -51.5 98t-184.5 82q-352 100 -352 291q0 109 89 172t255 63q127 0 214 -35.5t159 -111.5l-84 -102l-2 -2q-43 66 -122 103.5t-161 37.5q-88 0 -144.5 -31t-56.5 -86q0 -51 57.5 -94 t207.5 -86q176 -53 248.5 -115.5t72.5 -163.5q0 -127 -99.5 -209.5t-287.5 -82.5q-238 0 -397 147zM197 279q2 0 8 -5l-4 -6q-6 11 -4 11zM205 274l6 11l12 -9v-2q0 -8 -18 0zM442 1092l172 305l113 -82l-207 -277zM467 1548q0 45 29.5 75.5t74.5 30.5q43 0 75 -31.5 t32 -74.5t-32 -73.5t-75 -30.5t-73.5 30.5t-30.5 73.5zM776 702q1 10 17 -2l-7 -8zM793 700l6 7q6 -9 5 -11t-5 0t-6 4z" />
<glyph unicode="&#x1e66;" d="M106 141l74 129v2q2 0 2 -1v-1q55 -74 142.5 -117.5t201.5 -43.5q113 0 189 63.5t76 155.5q0 59 -24 99t-85 79t-184 92q-188 74 -269.5 168t-81.5 211q0 143 104.5 229t285.5 86q104 0 195 -42t159 -117l-80 -107l-2 -2q-61 84 -128 117t-167 33q-98 0 -158.5 -54.5 t-60.5 -132.5q0 -59 25.5 -103t93 -86t196.5 -93q183 -76 252.5 -156t69.5 -201q0 -94 -46 -178t-142.5 -137t-237.5 -53q-248 0 -400 161zM180 272q-12 17 4 9zM184 281l4 8l15 -8v-2q0 -6 -8.5 -2t-10.5 4zM252 1542l68 78l211 -145l229 139l58 -68l-269 -205h-45z M428 1860q0 43 30.5 73.5t73.5 30.5t75 -30.5t32 -73.5t-32 -74t-75 -31q-41 0 -72.5 31t-31.5 74zM786 1018v2q0 6 8.5 2t10.5 -4l-6 -8zM805 1018l4 6q12 -16 5 -11t-9 5z" />
<glyph unicode="&#x1e67;" d="M117 127l82 139l2 2l2 -2q63 -82 130.5 -123t184.5 -41q111 0 174.5 40t63.5 110q0 59 -51.5 98t-184.5 82q-352 100 -352 291q0 109 89 172t255 63q127 0 214 -35.5t159 -111.5l-84 -102l-2 -2q-43 66 -122 103.5t-161 37.5q-88 0 -144.5 -31t-56.5 -86q0 -51 57.5 -94 t207.5 -86q176 -53 248.5 -115.5t72.5 -163.5q0 -127 -99.5 -209.5t-287.5 -82.5q-238 0 -397 147zM197 279q2 0 8 -5l-4 -6q-6 11 -4 11zM205 274l6 11l12 -9v-2q0 -8 -18 0zM213 1339l82 70l227 -225l228 225l81 -70l-284 -286h-49zM418 1538q0 45 29.5 75.5t74.5 30.5 q43 0 75 -31.5t32 -74.5t-32 -73.5t-75 -30.5t-73.5 30.5t-30.5 73.5zM776 702q1 10 17 -2l-7 -8zM793 700l6 7q6 -9 5 -11t-5 0t-6 4z" />
<glyph unicode="&#x1e68;" d="M106 141l74 129v2q2 0 2 -1v-1q55 -74 142.5 -117.5t201.5 -43.5q113 0 189 63.5t76 155.5q0 59 -24 99t-85 79t-184 92q-188 74 -269.5 168t-81.5 211q0 143 104.5 229t285.5 86q104 0 195 -42t159 -117l-80 -107l-2 -2q-61 84 -128 117t-167 33q-98 0 -158.5 -54.5 t-60.5 -132.5q0 -59 25.5 -103t93 -86t196.5 -93q183 -76 252.5 -156t69.5 -201q0 -94 -46 -178t-142.5 -137t-237.5 -53q-248 0 -400 161zM180 272q-12 17 4 9zM184 281l4 8l15 -8v-2q0 -6 -8.5 -2t-10.5 4zM393 -223q0 43 30.5 74.5t75.5 31.5q43 0 74 -31.5t31 -74.5 t-31 -74t-74 -31q-45 0 -75.5 31t-30.5 74zM428 1516q0 43 30.5 73.5t73.5 30.5t75 -30.5t32 -73.5t-32 -74t-75 -31q-41 0 -72.5 31t-31.5 74zM786 1018v2q0 6 8.5 2t10.5 -4l-6 -8zM805 1018l4 6q12 -16 5 -11t-9 5z" />
<glyph unicode="&#x1e69;" d="M117 127l82 139l2 2l2 -2q63 -82 130.5 -123t184.5 -41q111 0 174.5 40t63.5 110q0 59 -51.5 98t-184.5 82q-352 100 -352 291q0 109 89 172t255 63q127 0 214 -35.5t159 -111.5l-84 -102l-2 -2q-43 66 -122 103.5t-161 37.5q-88 0 -144.5 -31t-56.5 -86q0 -51 57.5 -94 t207.5 -86q176 -53 248.5 -115.5t72.5 -163.5q0 -127 -99.5 -209.5t-287.5 -82.5q-238 0 -397 147zM197 279q2 0 8 -5l-4 -6q-6 11 -4 11zM205 274l6 11l12 -9v-2q0 -8 -18 0zM377 -223q0 43 30.5 74.5t75.5 31.5q43 0 74 -31.5t31 -74.5t-31 -74t-74 -31q-45 0 -75.5 31 t-30.5 74zM416 1237q0 45 29.5 75.5t74.5 30.5q43 0 75 -31.5t32 -74.5t-32 -73.5t-75 -30.5t-73.5 30.5t-30.5 73.5zM776 702q1 10 17 -2l-7 -8zM793 700l6 7q6 -9 5 -11t-5 0t-6 4z" />
<glyph unicode="&#x1e6c;" d="M63 1149v129h885v-129h-377v-1149h-145v1149h-363zM400 -223q0 43 30.5 74.5t75.5 31.5q43 0 74 -31.5t31 -74.5t-31 -74t-74 -31q-45 0 -75.5 31t-30.5 74z" />
<glyph unicode="&#x1e6d;" d="M143 815v121h215l15 250l164 26l20 2l2 -12q-14 -20 -21.5 -34.5t-9.5 -45.5l-22 -186h311v-121h-319l-19 -317q-4 -82 -4 -109q0 -164 38 -222t122 -58q61 0 112.5 22.5t116.5 71.5l45 -117q-135 -100 -297 -100q-156 0 -220 94t-64 307q0 35 4 121l18 307h-207z M400 -223q0 43 30.5 74.5t75.5 31.5q43 0 74 -31.5t31 -74.5t-31 -74t-74 -31q-45 0 -75.5 31t-30.5 74z" />
<glyph unicode="&#x1e6e;" d="M63 1149v129h885v-129h-377v-1149h-145v1149h-363zM256 -203h520v-114h-520v114z" />
<glyph unicode="&#x1e6f;" d="M143 815v121h215l15 250l164 26l20 2l2 -12q-14 -20 -21.5 -34.5t-9.5 -45.5l-22 -186h311v-121h-319l-19 -317q-4 -82 -4 -109q0 -164 38 -222t122 -58q61 0 112.5 22.5t116.5 71.5l45 -117q-135 -100 -297 -100q-156 0 -220 94t-64 307q0 35 4 121l18 307h-207z M256 -203h520v-114h-520v114z" />
<glyph unicode="&#x1e78;" d="M102 440v836h160v-14q-12 -12 -15 -26.5t-3 -49.5v-748q0 -164 63.5 -252t208.5 -88q147 0 212 88t65 258v832h137v-830q0 -236 -109.5 -352.5t-306.5 -116.5q-203 0 -307.5 121t-104.5 342zM195 1468q31 74 83 119t128 45q43 0 73.5 -15t73.5 -44q35 -27 61.5 -39 t57.5 -12q33 0 54.5 20.5t49.5 77.5l94 -57q-45 -86 -87 -120t-103 -34q-43 0 -77 15.5t-79 45.5q-39 25 -62.5 37.5t-51.5 12.5q-37 0 -63.5 -21.5t-51.5 -75.5zM315 1755l312 182l82 -143l-347 -125z" />
<glyph unicode="&#x1e79;" d="M131 414l2 522h143v-522q0 -168 58.5 -243t154.5 -75q106 0 179 83t73 241v516h144v-791q0 -49 3 -80.5t17 -64.5h-141q-14 31 -17.5 63.5t-3.5 79.5q-45 -78 -121.5 -122t-168.5 -44q-148 0 -236 110t-86 327zM187 1235q31 74 83 119t128 45q43 0 73.5 -15.5t73.5 -44.5 q35 -27 61.5 -39t57.5 -12q33 0 54.5 20.5t49.5 77.5l95 -57q-45 -86 -87 -119.5t-104 -33.5q-43 0 -76.5 15t-78.5 46q-39 25 -62.5 37t-52.5 12q-37 0 -63.5 -21.5t-51.5 -74.5zM419 1459l172 305l113 -82l-207 -277z" />
<glyph unicode="&#x1e7a;" d="M102 440v836h160v-14q-12 -12 -15 -26.5t-3 -49.5v-748q0 -164 63.5 -252t208.5 -88q147 0 212 88t65 258v832h137v-830q0 -236 -109.5 -352.5t-306.5 -116.5q-203 0 -307.5 121t-104.5 342zM225 1826q0 41 31 73t72 32q43 0 73.5 -31t30.5 -74q0 -41 -30.5 -71.5 t-73.5 -30.5q-41 0 -72 30.5t-31 71.5zM252 1497v115h520v-115h-520zM592 1826q0 43 29.5 74t70.5 31q43 0 74 -31t31 -74q0 -41 -31 -71.5t-74 -30.5q-41 0 -70.5 29.5t-29.5 72.5z" />
<glyph unicode="&#x1e7b;" d="M131 414l2 522h143v-522q0 -168 58.5 -243t154.5 -75q106 0 179 83t73 241v516h144v-791q0 -49 3 -80.5t17 -64.5h-141q-14 31 -17.5 63.5t-3.5 79.5q-45 -78 -121.5 -122t-168.5 -44q-148 0 -236 110t-86 327zM227 1572q0 41 31 73t74 32q41 0 71.5 -31t30.5 -74 q0 -41 -30.5 -71.5t-71.5 -30.5q-43 0 -74 31t-31 71zM252 1157v115h520v-115h-520zM594 1572q0 43 29.5 74t72.5 31q41 0 72 -31t31 -74q0 -41 -31 -71.5t-72 -30.5q-43 0 -72.5 29.5t-29.5 72.5z" />
<glyph unicode="&#x1e80;" d="M35 1276h133l137 -862l205 768h45l207 -772l117 866h120l-202 -1276h-56l-219 834l-223 -834h-59zM272 1477l82 143l313 -182l-47 -86z" />
<glyph unicode="&#x1e81;" d="M33 936h129l151 -752l160 664h90l199 -662q57 383 71.5 503t14.5 216v31h137q-61 -475 -156 -938h-139l-172 606l-164 -606h-133zM292 1315l113 82l172 -305l-78 -54z" />
<glyph unicode="&#x1e82;" d="M35 1276h133l137 -862l205 768h45l207 -772l117 866h120l-202 -1276h-56l-219 834l-223 -834h-59zM336 1438l312 182l82 -143l-347 -125z" />
<glyph unicode="&#x1e83;" d="M33 936h129l151 -752l160 664h90l199 -662q57 383 71.5 503t14.5 216v31h137q-61 -475 -156 -938h-139l-172 606l-164 -606h-133zM419 1092l172 305l113 -82l-207 -277z" />
<glyph unicode="&#x1e84;" d="M35 1276h133l137 -862l205 768h45l207 -772l117 866h120l-202 -1276h-56l-219 834l-223 -834h-59zM245 1511q0 41 31 73t72 32q43 0 73.5 -31t30.5 -74q0 -41 -30.5 -71.5t-73.5 -30.5q-41 0 -72 30.5t-31 71.5zM612 1511q0 43 29.5 74t70.5 31q43 0 74 -31t31 -74 q0 -41 -31 -71.5t-74 -30.5q-41 0 -70.5 29.5t-29.5 72.5z" />
<glyph unicode="&#x1e85;" d="M33 936h129l151 -752l160 664h90l199 -662q57 383 71.5 503t14.5 216v31h137q-61 -475 -156 -938h-139l-172 606l-164 -606h-133zM227 1257q0 41 31 73t74 32q41 0 71.5 -31t30.5 -74q0 -41 -30.5 -71.5t-71.5 -30.5q-43 0 -74 31t-31 71zM594 1257q0 43 29.5 74t72.5 31 q41 0 72 -31t31 -74q0 -41 -31 -71.5t-72 -30.5q-43 0 -72.5 29.5t-29.5 72.5z" />
<glyph unicode="&#x1e8e;" d="M57 1276h164l314 -619l282 619h152l-363 -772v-504h-155v504zM406 1516q0 43 30.5 73.5t73.5 30.5t75 -30.5t32 -73.5t-32 -74t-75 -31q-41 0 -72.5 31t-31.5 74z" />
<glyph unicode="&#x1e8f;" d="M45 -276l64 100l2 2l2 -2q33 -31 69.5 -45.5t85.5 -14.5q76 0 121 53.5t88 176.5l-383 942h154l291 -750l123 377q45 141 66.5 216t31.5 157h147q-12 -84 -37.5 -166t-72.5 -217l-234 -659q-47 -131 -122.5 -190.5t-180.5 -59.5q-131 0 -215 80zM105.5 -166 q5.5 -2 7.5 -2l-2 -6q-11 10 -5.5 8zM113 -168l8 10l12 -8v-2q0 -4 -4 -4zM412 1237q0 45 29.5 75.5t74.5 30.5q43 0 75 -31.5t32 -74.5t-32 -73.5t-75 -30.5t-73.5 30.5t-30.5 73.5z" />
<glyph unicode="&#x1e92;" d="M102 0v100l643 1047h-618v129h788v-100l-632 -1049h575q33 0 48.5 4t27.5 16h14v-147h-846zM440 -223q0 43 30.5 74.5t75.5 31.5q43 0 74 -31.5t31 -74.5t-31 -74t-74 -31q-45 0 -75.5 31t-30.5 74z" />
<glyph unicode="&#x1e93;" d="M102 0v100l580 707h-537v129h727v-100l-569 -709h528q33 0 48.5 4t27.5 16h15v-147h-820zM400 -223q0 43 30.5 74.5t75.5 31.5q43 0 74 -31.5t31 -74.5t-31 -74t-74 -31q-45 0 -75.5 31t-30.5 74z" />
<glyph unicode="&#x1e97;" d="M143 815v121h215l15 250l164 26l20 2l2 -12q-14 -20 -21.5 -34.5t-9.5 -45.5l-22 -186h311v-121h-319l-19 -317q-4 -82 -4 -109q0 -164 38 -222t122 -58q61 0 112.5 22.5t116.5 71.5l45 -117q-135 -100 -297 -100q-156 0 -220 94t-64 307q0 35 4 121l18 307h-207z M209 1523q0 41 31 73t74 32q41 0 71.5 -31t30.5 -74q0 -41 -30.5 -71.5t-71.5 -30.5q-43 0 -74 31t-31 71zM576 1523q0 43 29.5 74t72.5 31q41 0 72 -31t31 -74q0 -41 -31 -71.5t-72 -30.5q-43 0 -72.5 29.5t-29.5 72.5z" />
<glyph unicode="&#x1e9e;" d="M113 0v946q0 219 113.5 321.5t277.5 102.5q172 0 264 -103.5t92 -256.5l-278 -236q178 -20 273 -121.5t95 -281.5q0 -197 -104.5 -294t-265.5 -97q-123 0 -218 63l46 115q35 -25 76.5 -37t80.5 -12q106 0 178 75.5t72 204.5q0 115 -69.5 194t-245.5 79h-62v116l283 248 q0 96 -52.5 160.5t-162.5 64.5q-106 0 -180 -67.5t-74 -210.5v-973h-139z" />
<glyph unicode="&#x1ea0;" d="M33 0l471 1298h16l471 -1298h-147l-129 373h-412l-129 -373h-141zM342 483h336l-168 488zM400 -223q0 43 30.5 74.5t75.5 31.5q43 0 74 -31.5t31 -74.5t-31 -74t-74 -31q-45 0 -75.5 31t-30.5 74z" />
<glyph unicode="&#x1ea1;" d="M100 236q0 98 63.5 171.5t171 113.5t236.5 40q117 0 211 -12q-12 158 -82.5 222.5t-210.5 64.5q-70 0 -134 -27t-117 -78l-72 94q131 131 334 131q200 0 305.5 -104t105.5 -354v-498h-159v143q-86 -166 -320 -166q-156 0 -244 71t-88 188zM248 244q0 -154 198 -154 q152 0 240 89t96 257q-92 14 -198 15q-156 0 -246 -51.5t-90 -155.5zM400 -223q0 43 30.5 74.5t75.5 31.5q43 0 74 -31.5t31 -74.5t-31 -74t-74 -31q-45 0 -75.5 31t-30.5 74z" />
<glyph unicode="&#x1ea2;" d="M33 0l471 1298h16l471 -1298h-147l-129 373h-412l-129 -373h-141zM342 483h336l-168 488zM344 1696q37 45 79 65.5t97 20.5q70 0 118 -41t48 -111q0 -39 -14 -60.5t-45 -47.5q-29 -25 -42 -44.5t-13 -52.5v-14h-105v57q0 41 60 93q25 23 36 37t11 28q0 27 -18.5 42 t-45.5 15q-70 0 -90 -65z" />
<glyph unicode="&#x1ea3;" d="M100 236q0 98 63.5 171.5t171 113.5t236.5 40q117 0 211 -12q-12 158 -82.5 222.5t-210.5 64.5q-70 0 -134 -27t-117 -78l-72 94q131 131 334 131q200 0 305.5 -104t105.5 -354v-498h-159v143q-86 -166 -320 -166q-156 0 -244 71t-88 188zM248 244q0 -154 198 -154 q152 0 240 89t96 257q-92 14 -198 15q-156 0 -246 -51.5t-90 -155.5zM344 1356q37 45 79 65.5t97 20.5q70 0 118 -41t48 -111q0 -39 -14 -60.5t-45 -47.5q-29 -25 -42 -44.5t-13 -52.5v-14h-105v57q0 41 60 93q25 23 36 37t11 28q0 27 -18.5 42t-45.5 15q-70 0 -90 -65z" />
<glyph unicode="&#x1ea4;" d="M33 0l471 1298h16l471 -1298h-147l-129 373h-412l-129 -373h-141zM186 1419l293 201h45l310 -203l-62 -74l-266 144l-252 -146zM342 483h336l-168 488zM708 1655l312 182l82 -143l-347 -125z" />
<glyph unicode="&#x1ea5;" d="M100 236q0 98 63.5 171.5t171 113.5t236.5 40q117 0 211 -12q-12 158 -82.5 222.5t-210.5 64.5q-70 0 -134 -27t-117 -78l-72 94q131 131 334 131q200 0 305.5 -104t105.5 -354v-498h-159v143q-86 -166 -320 -166q-156 0 -244 71t-88 188zM203 1116l284 287h50l284 -287 l-82 -69l-227 225l-227 -225zM248 244q0 -154 198 -154q152 0 240 89t96 257q-92 14 -198 15q-156 0 -246 -51.5t-90 -155.5zM710 1346l172 305l113 -82l-207 -277z" />
<glyph unicode="&#x1ea6;" d="M33 0l471 1298h16l471 -1298h-147l-129 373h-412l-129 -373h-141zM188 1419l293 201h45l310 -203l-62 -74l-266 144l-252 -146zM342 483h336l-168 488zM383 1760l82 143l313 -182l-47 -86z" />
<glyph unicode="&#x1ea7;" d="M100 236q0 98 63.5 171.5t171 113.5t236.5 40q117 0 211 -12q-12 158 -82.5 222.5t-210.5 64.5q-70 0 -134 -27t-117 -78l-72 94q131 131 334 131q200 0 305.5 -104t105.5 -354v-498h-159v143q-86 -166 -320 -166q-156 0 -244 71t-88 188zM207 1116l284 287h50l284 -287 l-82 -69l-227 225l-227 -225zM248 244q0 -154 198 -154q152 0 240 89t96 257q-92 14 -198 15q-156 0 -246 -51.5t-90 -155.5zM569 1612l113 82l172 -305l-78 -54z" />
<glyph unicode="&#x1ea8;" d="M33 0l471 1298h16l471 -1298h-147l-129 373h-412l-129 -373h-141zM180 1419l293 201h45l310 -203l-62 -74l-266 144l-252 -146zM342 483h336l-168 488zM579 1819q37 45 79 65.5t97 20.5q70 0 118 -41t48 -111q0 -39 -14 -60.5t-45 -47.5q-29 -25 -42 -44.5t-13 -52.5v-14 h-105v57q0 41 60 93q25 23 36 37t11 28q0 27 -18.5 42t-45.5 15q-70 0 -90 -65z" />
<glyph unicode="&#x1ea9;" d="M100 236q0 98 63.5 171.5t171 113.5t236.5 40q117 0 211 -12q-12 158 -82.5 222.5t-210.5 64.5q-70 0 -134 -27t-117 -78l-72 94q131 131 334 131q200 0 305.5 -104t105.5 -354v-498h-159v143q-86 -166 -320 -166q-156 0 -244 71t-88 188zM205 1116l284 287h50l284 -287 l-82 -69l-227 225l-227 -225zM248 244q0 -154 198 -154q152 0 240 89t96 257q-92 14 -198 15q-156 0 -246 -51.5t-90 -155.5zM592 1561q37 45 79 65.5t97 20.5q70 0 118 -41t48 -111q0 -39 -14 -60.5t-45 -47.5q-29 -25 -42 -44.5t-13 -52.5v-14h-105v57q0 41 60 93 q25 23 36 37t11 28q0 27 -18.5 42t-45.5 15q-70 0 -90 -65z" />
<glyph unicode="&#x1eaa;" d="M33 0l471 1298h16l471 -1298h-147l-129 373h-412l-129 -373h-141zM188 1419l293 201h45l310 -203l-62 -74l-266 144l-252 -146zM213 1686q47 197 193 196q43 0 74.5 -18.5t68.5 -51.5q25 -23 42.5 -34t35.5 -11q27 0 45.5 19.5t38.5 66.5l94 -49q-74 -145 -172 -145 q-43 0 -76.5 19.5t-68.5 52.5q-33 27 -51.5 38t-38.5 11q-31 0 -50.5 -30t-33.5 -93zM342 483h336l-168 488z" />
<glyph unicode="&#x1eab;" d="M100 236q0 98 63.5 171.5t171 113.5t236.5 40q117 0 211 -12q-12 158 -82.5 222.5t-210.5 64.5q-70 0 -134 -27t-117 -78l-72 94q131 131 334 131q200 0 305.5 -104t105.5 -354v-498h-159v143q-86 -166 -320 -166q-156 0 -244 71t-88 188zM205 1116l284 287h50l284 -287 l-82 -69l-227 225l-227 -225zM217 1463q47 197 193 196q43 0 74.5 -18.5t68.5 -51.5q25 -23 42.5 -34t35.5 -11q27 0 45.5 19.5t38.5 66.5l94 -49q-74 -145 -172 -145q-43 0 -76.5 19.5t-68.5 52.5q-33 27 -51.5 38t-38.5 11q-31 0 -50.5 -30t-33.5 -93zM248 244 q0 -154 198 -154q152 0 240 89t96 257q-92 14 -198 15q-156 0 -246 -51.5t-90 -155.5z" />
<glyph unicode="&#x1eac;" d="M33 0l471 1298h16l471 -1298h-147l-129 373h-412l-129 -373h-141zM188 1419l293 201h45l310 -203l-62 -74l-266 144l-252 -146zM342 483h336l-168 488zM400 -223q0 43 30.5 74.5t75.5 31.5q43 0 74 -31.5t31 -74.5t-31 -74t-74 -31q-45 0 -75.5 31t-30.5 74z" />
<glyph unicode="&#x1ead;" d="M100 236q0 98 63.5 171.5t171 113.5t236.5 40q117 0 211 -12q-12 158 -82.5 222.5t-210.5 64.5q-70 0 -134 -27t-117 -78l-72 94q131 131 334 131q200 0 305.5 -104t105.5 -354v-498h-159v143q-86 -166 -320 -166q-156 0 -244 71t-88 188zM203 1116l284 287h50l284 -287 l-82 -69l-227 225l-227 -225zM248 244q0 -154 198 -154q152 0 240 89t96 257q-92 14 -198 15q-156 0 -246 -51.5t-90 -155.5zM400 -223q0 43 30.5 74.5t75.5 31.5q43 0 74 -31.5t31 -74.5t-31 -74t-74 -31q-45 0 -75.5 31t-30.5 74z" />
<glyph unicode="&#x1eae;" d="M33 0l471 1298h16l471 -1298h-147l-129 373h-412l-129 -373h-141zM221 1563l107 49q33 -72 78 -105.5t106 -33.5t106.5 33.5t77.5 105.5l107 -49q-47 -90 -122 -139.5t-169 -49.5t-169 49.5t-122 139.5zM342 483h336l-168 488zM377 1665l312 182l82 -143l-347 -125z" />
<glyph unicode="&#x1eaf;" d="M100 236q0 98 63.5 171.5t171 113.5t236.5 40q117 0 211 -12q-12 158 -82.5 222.5t-210.5 64.5q-70 0 -134 -27t-117 -78l-72 94q131 131 334 131q200 0 305.5 -104t105.5 -354v-498h-159v143q-86 -166 -320 -166q-156 0 -244 71t-88 188zM222 1290l106 49 q33 -72 78 -105.5t106 -33.5t106.5 34t78.5 105l106 -49q-47 -90 -121.5 -139t-169.5 -49q-94 0 -168.5 49t-121.5 139zM248 244q0 -154 198 -154q152 0 240 89t96 257q-92 14 -198 15q-156 0 -246 -51.5t-90 -155.5zM442 1360l172 305l113 -82l-207 -277z" />
<glyph unicode="&#x1eb0;" d="M33 0l471 1298h16l471 -1298h-147l-129 373h-412l-129 -373h-141zM221 1563l107 49q33 -72 78 -105.5t106 -33.5t106.5 33.5t77.5 105.5l107 -49q-47 -90 -122 -139.5t-169 -49.5t-169 49.5t-122 139.5zM252 1813l82 143l313 -182l-47 -86zM342 483h336l-168 488z" />
<glyph unicode="&#x1eb1;" d="M100 236q0 98 63.5 171.5t171 113.5t236.5 40q117 0 211 -12q-12 158 -82.5 222.5t-210.5 64.5q-70 0 -134 -27t-117 -78l-72 94q131 131 334 131q200 0 305.5 -104t105.5 -354v-498h-159v143q-86 -166 -320 -166q-156 0 -244 71t-88 188zM222 1290l106 49 q33 -72 78 -105.5t106 -33.5t106.5 34t78.5 105l106 -49q-47 -90 -121.5 -139t-169.5 -49q-94 0 -168.5 49t-121.5 139zM248 244q0 -154 198 -154q152 0 240 89t96 257q-92 14 -198 15q-156 0 -246 -51.5t-90 -155.5zM315 1583l113 82l172 -305l-78 -54z" />
<glyph unicode="&#x1eb2;" d="M33 0l471 1298h16l471 -1298h-147l-129 373h-412l-129 -373h-141zM221 1563l107 49q33 -72 78 -105.5t106 -33.5t106.5 33.5t77.5 105.5l107 -49q-47 -90 -122 -139.5t-169 -49.5t-169 49.5t-122 139.5zM323 1862q37 45 79 65.5t97 20.5q70 0 118 -41t48 -111 q0 -39 -14 -60.5t-45 -47.5q-29 -25 -42 -44.5t-13 -52.5v-14h-105v57q0 41 60 93q25 23 36 37t11 28q0 27 -18.5 42t-45.5 15q-70 0 -90 -65zM342 483h336l-168 488z" />
<glyph unicode="&#x1eb3;" d="M100 236q0 98 63.5 171.5t171 113.5t236.5 40q117 0 211 -12q-12 158 -82.5 222.5t-210.5 64.5q-70 0 -134 -27t-117 -78l-72 94q131 131 334 131q200 0 305.5 -104t105.5 -354v-498h-159v143q-86 -166 -320 -166q-156 0 -244 71t-88 188zM222 1290l106 49 q33 -72 78 -105.5t106 -33.5t106.5 34t78.5 105l106 -49q-47 -90 -121.5 -139t-169.5 -49q-94 0 -168.5 49t-121.5 139zM248 244q0 -154 198 -154q152 0 240 89t96 257q-92 14 -198 15q-156 0 -246 -51.5t-90 -155.5zM331 1616q37 45 79 65.5t97 20.5q70 0 118 -41t48 -111 q0 -39 -14 -60.5t-45 -47.5q-29 -25 -42 -44.5t-13 -52.5v-14h-105v57q0 41 60 93q25 23 36 37t11 28q0 27 -18.5 42t-45.5 15q-70 0 -90 -65z" />
<glyph unicode="&#x1eb4;" d="M33 0l471 1298h16l471 -1298h-147l-129 373h-412l-129 -373h-141zM202 1680q47 197 193 196q43 0 74.5 -18.5t68.5 -51.5q25 -23 42.5 -34t35.5 -11q27 0 45.5 19.5t38.5 66.5l94 -49q-74 -145 -172 -145q-43 0 -76.5 19.5t-68.5 52.5q-33 27 -51.5 38t-38.5 11 q-31 0 -50.5 -30t-33.5 -93zM221 1563l107 49q33 -72 78 -105.5t106 -33.5t106.5 33.5t77.5 105.5l107 -49q-47 -90 -122 -139.5t-169 -49.5t-169 49.5t-122 139.5zM342 483h336l-168 488z" />
<glyph unicode="&#x1eb5;" d="M100 236q0 98 63.5 171.5t171 113.5t236.5 40q117 0 211 -12q-12 158 -82.5 222.5t-210.5 64.5q-70 0 -134 -27t-117 -78l-72 94q131 131 334 131q200 0 305.5 -104t105.5 -354v-498h-159v143q-86 -166 -320 -166q-156 0 -244 71t-88 188zM206 1418q47 197 193 196 q43 0 74.5 -18.5t68.5 -51.5q25 -23 42.5 -34t35.5 -11q27 0 45.5 19.5t38.5 66.5l94 -49q-74 -145 -172 -145q-43 0 -76.5 19.5t-68.5 52.5q-33 27 -51.5 38t-38.5 11q-31 0 -50.5 -30t-33.5 -93zM213 1290l106 49q33 -72 78 -105.5t106 -33.5t106.5 34t78.5 105l106 -49 q-47 -90 -121.5 -139t-169.5 -49q-94 0 -168.5 49t-121.5 139zM248 244q0 -154 198 -154q152 0 240 89t96 257q-92 14 -198 15q-156 0 -246 -51.5t-90 -155.5z" />
<glyph unicode="&#x1eb6;" d="M33 0l471 1298h16l471 -1298h-147l-129 373h-412l-129 -373h-141zM221 1563l107 49q33 -72 78 -105.5t106 -33.5t106.5 33.5t77.5 105.5l107 -49q-47 -90 -122 -139.5t-169 -49.5t-169 49.5t-122 139.5zM342 483h336l-168 488zM400 -223q0 43 30.5 74.5t75.5 31.5 q43 0 74 -31.5t31 -74.5t-31 -74t-74 -31q-45 0 -75.5 31t-30.5 74z" />
<glyph unicode="&#x1eb7;" d="M100 236q0 98 63.5 171.5t171 113.5t236.5 40q117 0 211 -12q-12 158 -82.5 222.5t-210.5 64.5q-70 0 -134 -27t-117 -78l-72 94q131 131 334 131q200 0 305.5 -104t105.5 -354v-498h-159v143q-86 -166 -320 -166q-156 0 -244 71t-88 188zM222 1290l106 49 q33 -72 78 -105.5t106 -33.5t106.5 34t78.5 105l106 -49q-47 -90 -121.5 -139t-169.5 -49q-94 0 -168.5 49t-121.5 139zM248 244q0 -154 198 -154q152 0 240 89t96 257q-92 14 -198 15q-156 0 -246 -51.5t-90 -155.5zM400 -223q0 43 30.5 74.5t75.5 31.5q43 0 74 -31.5 t31 -74.5t-31 -74t-74 -31q-45 0 -75.5 31t-30.5 74z" />
<glyph unicode="&#x1eb8;" d="M121 0v1278h782v-127h-647v-420h535v-131h-535v-473h641v-127h-776zM400 -223q0 43 30.5 74.5t75.5 31.5q43 0 74 -31.5t31 -74.5t-31 -74t-74 -31q-45 0 -75.5 31t-30.5 74z" />
<glyph unicode="&#x1eb9;" d="M100 465q0 154 57.5 265.5t155 169.5t217.5 58q170 0 275.5 -112.5t105.5 -331.5q0 -23 -4 -68h-665q8 -172 96 -260t223 -88q147 0 242 105l82 -80q-119 -143 -328 -143t-333 126.5t-124 358.5zM248 561h514q0 131 -66.5 208t-175.5 77q-102 0 -178 -72t-94 -213z M461 -223q0 43 30.5 74.5t75.5 31.5q43 0 74 -31.5t31 -74.5t-31 -74t-74 -31q-45 0 -75.5 31t-30.5 74z" />
<glyph unicode="&#x1eba;" d="M121 0v1278h782v-127h-647v-420h535v-131h-535v-473h641v-127h-776zM385 1696q37 45 79 65.5t97 20.5q70 0 118 -41t48 -111q0 -39 -14 -60.5t-45 -47.5q-29 -25 -42 -44.5t-13 -52.5v-14h-105v57q0 41 60 93q25 23 36 37t11 28q0 27 -18.5 42t-45.5 15q-70 0 -90 -65z " />
<glyph unicode="&#x1ebb;" d="M100 465q0 154 57.5 265.5t155 169.5t217.5 58q170 0 275.5 -112.5t105.5 -331.5q0 -23 -4 -68h-665q8 -172 96 -260t223 -88q147 0 242 105l82 -80q-119 -143 -328 -143t-333 126.5t-124 358.5zM248 561h514q0 131 -66.5 208t-175.5 77q-102 0 -178 -72t-94 -213z M364 1356q37 45 79 65.5t97 20.5q70 0 118 -41t48 -111q0 -39 -14 -60.5t-45 -47.5q-29 -25 -42 -44.5t-13 -52.5v-14h-105v57q0 41 60 93q25 23 36 37t11 28q0 27 -18.5 42t-45.5 15q-70 0 -90 -65z" />
<glyph unicode="&#x1ebc;" d="M121 0v1278h782v-127h-647v-420h535v-131h-535v-473h641v-127h-776zM236 1468q31 74 83 119t128 45q43 0 73.5 -15t73.5 -44q35 -27 61.5 -39t57.5 -12q33 0 54.5 20.5t49.5 77.5l94 -57q-45 -86 -87 -120t-103 -34q-43 0 -77 15.5t-79 45.5q-39 25 -62.5 37.5 t-51.5 12.5q-37 0 -63.5 -21.5t-51.5 -75.5z" />
<glyph unicode="&#x1ebd;" d="M100 465q0 154 57.5 265.5t155 169.5t217.5 58q170 0 275.5 -112.5t105.5 -331.5q0 -23 -4 -68h-665q8 -172 96 -260t223 -88q147 0 242 105l82 -80q-119 -143 -328 -143t-333 126.5t-124 358.5zM207 1235q31 74 83 119t128 45q43 0 73.5 -15.5t73.5 -44.5 q35 -27 61.5 -39t57.5 -12q33 0 54.5 20.5t49.5 77.5l95 -57q-45 -86 -87 -119.5t-104 -33.5q-43 0 -76.5 15t-78.5 46q-39 25 -62.5 37t-52.5 12q-37 0 -63.5 -21.5t-51.5 -74.5zM248 561h514q0 131 -66.5 208t-175.5 77q-102 0 -178 -72t-94 -213z" />
<glyph unicode="&#x1ebe;" d="M121 0v1278h782v-127h-647v-420h535v-131h-535v-473h641v-127h-776zM227 1419l293 201h45l310 -203l-62 -74l-266 144l-252 -146zM749 1655l312 182l82 -143l-347 -125z" />
<glyph unicode="&#x1ebf;" d="M100 465q0 154 57.5 265.5t155 169.5t217.5 58q170 0 275.5 -112.5t105.5 -331.5q0 -23 -4 -68h-665q8 -172 96 -260t223 -88q147 0 242 105l82 -80q-119 -143 -328 -143t-333 126.5t-124 358.5zM223 1116l284 287h50l284 -287l-82 -69l-227 225l-227 -225zM248 561h514 q0 131 -66.5 208t-175.5 77q-102 0 -178 -72t-94 -213zM731 1346l172 305l113 -82l-207 -277z" />
<glyph unicode="&#x1ec0;" d="M121 0v1278h782v-127h-647v-420h535v-131h-535v-473h641v-127h-776zM229 1419l293 201h45l310 -203l-62 -74l-266 144l-252 -146zM424 1760l82 143l313 -182l-47 -86z" />
<glyph unicode="&#x1ec1;" d="M100 465q0 154 57.5 265.5t155 169.5t217.5 58q170 0 275.5 -112.5t105.5 -331.5q0 -23 -4 -68h-665q8 -172 96 -260t223 -88q147 0 242 105l82 -80q-119 -143 -328 -143t-333 126.5t-124 358.5zM228 1116l284 287h50l284 -287l-82 -69l-227 225l-227 -225zM248 561h514 q0 131 -66.5 208t-175.5 77q-102 0 -178 -72t-94 -213zM589 1612l113 82l172 -305l-78 -54z" />
<glyph unicode="&#x1ec2;" d="M121 0v1278h782v-127h-647v-420h535v-131h-535v-473h641v-127h-776zM221 1419l293 201h45l310 -203l-62 -74l-266 144l-252 -146zM620 1819q37 45 79 65.5t97 20.5q70 0 118 -41t48 -111q0 -39 -14 -60.5t-45 -47.5q-29 -25 -42 -44.5t-13 -52.5v-14h-105v57q0 41 60 93 q25 23 36 37t11 28q0 27 -18.5 42t-45.5 15q-70 0 -90 -65z" />
<glyph unicode="&#x1ec3;" d="M100 465q0 154 57.5 265.5t155 169.5t217.5 58q170 0 275.5 -112.5t105.5 -331.5q0 -23 -4 -68h-665q8 -172 96 -260t223 -88q147 0 242 105l82 -80q-119 -143 -328 -143t-333 126.5t-124 358.5zM226 1116l284 287h50l284 -287l-82 -69l-227 225l-227 -225zM248 561h514 q0 131 -66.5 208t-175.5 77q-102 0 -178 -72t-94 -213zM612 1561q37 45 79 65.5t97 20.5q70 0 118 -41t48 -111q0 -39 -14 -60.5t-45 -47.5q-29 -25 -42 -44.5t-13 -52.5v-14h-105v57q0 41 60 93q25 23 36 37t11 28q0 27 -18.5 42t-45.5 15q-70 0 -90 -65z" />
<glyph unicode="&#x1ec4;" d="M121 0v1278h782v-127h-647v-420h535v-131h-535v-473h641v-127h-776zM229 1419l293 201h45l310 -203l-62 -74l-266 144l-252 -146zM253 1686q47 197 193 196q43 0 74.5 -18.5t68.5 -51.5q25 -23 42.5 -34t35.5 -11q27 0 45.5 19.5t38.5 66.5l94 -49q-74 -145 -172 -145 q-43 0 -76.5 19.5t-68.5 52.5q-33 27 -51.5 38t-38.5 11q-31 0 -50.5 -30t-33.5 -93z" />
<glyph unicode="&#x1ec5;" d="M100 465q0 154 57.5 265.5t155 169.5t217.5 58q170 0 275.5 -112.5t105.5 -331.5q0 -23 -4 -68h-665q8 -172 96 -260t223 -88q147 0 242 105l82 -80q-119 -143 -328 -143t-333 126.5t-124 358.5zM226 1116l284 287h50l284 -287l-82 -69l-227 225l-227 -225zM237 1463 q47 197 193 196q43 0 74.5 -18.5t68.5 -51.5q25 -23 42.5 -34t35.5 -11q27 0 45.5 19.5t38.5 66.5l94 -49q-74 -145 -172 -145q-43 0 -76.5 19.5t-68.5 52.5q-33 27 -51.5 38t-38.5 11q-31 0 -50.5 -30t-33.5 -93zM248 561h514q0 131 -66.5 208t-175.5 77q-102 0 -178 -72 t-94 -213z" />
<glyph unicode="&#x1ec6;" d="M121 0v1278h782v-127h-647v-420h535v-131h-535v-473h641v-127h-776zM229 1419l293 201h45l310 -203l-62 -74l-266 144l-252 -146zM400 -223q0 43 30.5 74.5t75.5 31.5q43 0 74 -31.5t31 -74.5t-31 -74t-74 -31q-45 0 -75.5 31t-30.5 74z" />
<glyph unicode="&#x1ec7;" d="M100 465q0 154 57.5 265.5t155 169.5t217.5 58q170 0 275.5 -112.5t105.5 -331.5q0 -23 -4 -68h-665q8 -172 96 -260t223 -88q147 0 242 105l82 -80q-119 -143 -328 -143t-333 126.5t-124 358.5zM223 1116l284 287h50l284 -287l-82 -69l-227 225l-227 -225zM248 561h514 q0 131 -66.5 208t-175.5 77q-102 0 -178 -72t-94 -213zM461 -223q0 43 30.5 74.5t75.5 31.5q43 0 74 -31.5t31 -74.5t-31 -74t-74 -31q-45 0 -75.5 31t-30.5 74z" />
<glyph unicode="&#x1ec8;" d="M166 0v121h252v1034h-238v121h633v-121h-252v-1036h264v-119h-659zM321 1696q37 45 79 65.5t97 20.5q70 0 118 -41t48 -111q0 -39 -14 -60.5t-45 -47.5q-29 -25 -42 -44.5t-13 -52.5v-14h-105v57q0 41 60 93q25 23 36 37t11 28q0 27 -18.5 42t-45.5 15q-70 0 -90 -65z " />
<glyph unicode="&#x1ec9;" d="M205 0v119h239v698h-227v119h375v-817h219v-119h-606zM344 1356q37 45 79 65.5t97 20.5q70 0 118 -41t48 -111q0 -39 -14 -60.5t-45 -47.5q-29 -25 -42 -44.5t-13 -52.5v-14h-105v57q0 41 60 93q25 23 36 37t11 28q0 27 -18.5 42t-45.5 15q-70 0 -90 -65z" />
<glyph unicode="&#x1eca;" d="M166 0v121h252v1034h-238v121h633v-121h-252v-1036h264v-119h-659zM400 -223q0 43 30.5 74.5t75.5 31.5q43 0 74 -31.5t31 -74.5t-31 -74t-74 -31q-45 0 -75.5 31t-30.5 74z" />
<glyph unicode="&#x1ecb;" d="M205 0v119h239v698h-227v119h375v-817h219v-119h-606zM400 -223q0 43 30.5 74.5t75.5 31.5q43 0 74 -31.5t31 -74.5t-31 -74t-74 -31q-45 0 -75.5 31t-30.5 74zM406 1237q0 45 29.5 75.5t74.5 30.5q43 0 75 -31.5t32 -74.5t-32 -73.5t-75 -30.5t-73.5 30.5t-30.5 73.5z " />
<glyph unicode="&#x1ecc;" d="M55 631q0 305 120 479t337 174t337 -174t120 -479q0 -313 -119 -483.5t-338 -170.5t-338 170t-119 484zM203 631q0 -254 81 -391.5t228 -137.5t228 137.5t81 391.5q0 244 -82 386t-227 142t-227 -142.5t-82 -385.5zM400 -223q0 43 30.5 74.5t75.5 31.5q43 0 74 -31.5 t31 -74.5t-31 -74t-74 -31q-45 0 -75.5 31t-30.5 74z" />
<glyph unicode="&#x1ecd;" d="M80 469q0 141 55 251.5t153.5 173t223.5 62.5t223.5 -62.5t153.5 -173t55 -251.5t-55 -252t-153.5 -172t-223.5 -61t-223.5 61t-153.5 172t-55 252zM236 471q0 -104 35.5 -187t98 -130.5t142.5 -47.5t142.5 47.5t98 130.5t35.5 187q0 160 -77.5 261.5t-198.5 101.5 t-198.5 -101.5t-77.5 -261.5zM400 -223q0 43 30.5 74.5t75.5 31.5q43 0 74 -31.5t31 -74.5t-31 -74t-74 -31q-45 0 -75.5 31t-30.5 74z" />
<glyph unicode="&#x1ece;" d="M55 631q0 305 120 479t337 174t337 -174t120 -479q0 -313 -119 -483.5t-338 -170.5t-338 170t-119 484zM203 631q0 -254 81 -391.5t228 -137.5t228 137.5t81 391.5q0 244 -82 386t-227 142t-227 -142.5t-82 -385.5zM344 1696q37 45 79 65.5t97 20.5q70 0 118 -41t48 -111 q0 -39 -14 -60.5t-45 -47.5q-29 -25 -42 -44.5t-13 -52.5v-14h-105v57q0 41 60 93q25 23 36 37t11 28q0 27 -18.5 42t-45.5 15q-70 0 -90 -65z" />
<glyph unicode="&#x1ecf;" d="M80 469q0 141 55 251.5t153.5 173t223.5 62.5t223.5 -62.5t153.5 -173t55 -251.5t-55 -252t-153.5 -172t-223.5 -61t-223.5 61t-153.5 172t-55 252zM236 471q0 -104 35.5 -187t98 -130.5t142.5 -47.5t142.5 47.5t98 130.5t35.5 187q0 160 -77.5 261.5t-198.5 101.5 t-198.5 -101.5t-77.5 -261.5zM344 1356q37 45 79 65.5t97 20.5q70 0 118 -41t48 -111q0 -39 -14 -60.5t-45 -47.5q-29 -25 -42 -44.5t-13 -52.5v-14h-105v57q0 41 60 93q25 23 36 37t11 28q0 27 -18.5 42t-45.5 15q-70 0 -90 -65z" />
<glyph unicode="&#x1ed0;" d="M55 631q0 305 120 479t337 174t337 -174t120 -479q0 -313 -119 -483.5t-338 -170.5t-338 170t-119 484zM186 1419l293 201h45l310 -203l-62 -74l-266 144l-252 -146zM203 631q0 -254 81 -391.5t228 -137.5t228 137.5t81 391.5q0 244 -82 386t-227 142t-227 -142.5 t-82 -385.5zM708 1655l312 182l82 -143l-347 -125z" />
<glyph unicode="&#x1ed1;" d="M80 469q0 141 55 251.5t153.5 173t223.5 62.5t223.5 -62.5t153.5 -173t55 -251.5t-55 -252t-153.5 -172t-223.5 -61t-223.5 61t-153.5 172t-55 252zM203 1116l284 287h50l284 -287l-82 -69l-227 225l-227 -225zM236 471q0 -104 35.5 -187t98 -130.5t142.5 -47.5 t142.5 47.5t98 130.5t35.5 187q0 160 -77.5 261.5t-198.5 101.5t-198.5 -101.5t-77.5 -261.5zM710 1346l172 305l113 -82l-207 -277z" />
<glyph unicode="&#x1ed2;" d="M55 631q0 305 120 479t337 174t337 -174t120 -479q0 -313 -119 -483.5t-338 -170.5t-338 170t-119 484zM188 1419l293 201h45l310 -203l-62 -74l-266 144l-252 -146zM203 631q0 -254 81 -391.5t228 -137.5t228 137.5t81 391.5q0 244 -82 386t-227 142t-227 -142.5 t-82 -385.5zM383 1760l82 143l313 -182l-47 -86z" />
<glyph unicode="&#x1ed3;" d="M80 469q0 141 55 251.5t153.5 173t223.5 62.5t223.5 -62.5t153.5 -173t55 -251.5t-55 -252t-153.5 -172t-223.5 -61t-223.5 61t-153.5 172t-55 252zM207 1116l284 287h50l284 -287l-82 -69l-227 225l-227 -225zM236 471q0 -104 35.5 -187t98 -130.5t142.5 -47.5 t142.5 47.5t98 130.5t35.5 187q0 160 -77.5 261.5t-198.5 101.5t-198.5 -101.5t-77.5 -261.5zM569 1612l113 82l172 -305l-78 -54z" />
<glyph unicode="&#x1ed4;" d="M55 631q0 305 120 479t337 174t337 -174t120 -479q0 -313 -119 -483.5t-338 -170.5t-338 170t-119 484zM180 1419l293 201h45l310 -203l-62 -74l-266 144l-252 -146zM203 631q0 -254 81 -391.5t228 -137.5t228 137.5t81 391.5q0 244 -82 386t-227 142t-227 -142.5 t-82 -385.5zM579 1819q37 45 79 65.5t97 20.5q70 0 118 -41t48 -111q0 -39 -14 -60.5t-45 -47.5q-29 -25 -42 -44.5t-13 -52.5v-14h-105v57q0 41 60 93q25 23 36 37t11 28q0 27 -18.5 42t-45.5 15q-70 0 -90 -65z" />
<glyph unicode="&#x1ed5;" d="M80 469q0 141 55 251.5t153.5 173t223.5 62.5t223.5 -62.5t153.5 -173t55 -251.5t-55 -252t-153.5 -172t-223.5 -61t-223.5 61t-153.5 172t-55 252zM205 1116l284 287h50l284 -287l-82 -69l-227 225l-227 -225zM236 471q0 -104 35.5 -187t98 -130.5t142.5 -47.5 t142.5 47.5t98 130.5t35.5 187q0 160 -77.5 261.5t-198.5 101.5t-198.5 -101.5t-77.5 -261.5zM592 1561q37 45 79 65.5t97 20.5q70 0 118 -41t48 -111q0 -39 -14 -60.5t-45 -47.5q-29 -25 -42 -44.5t-13 -52.5v-14h-105v57q0 41 60 93q25 23 36 37t11 28q0 27 -18.5 42 t-45.5 15q-70 0 -90 -65z" />
<glyph unicode="&#x1ed6;" d="M55 631q0 305 120 479t337 174t337 -174t120 -479q0 -313 -119 -483.5t-338 -170.5t-338 170t-119 484zM188 1419l293 201h45l310 -203l-62 -74l-266 144l-252 -146zM203 631q0 -254 81 -391.5t228 -137.5t228 137.5t81 391.5q0 244 -82 386t-227 142t-227 -142.5 t-82 -385.5zM213 1686q47 197 193 196q43 0 74.5 -18.5t68.5 -51.5q25 -23 42.5 -34t35.5 -11q27 0 45.5 19.5t38.5 66.5l94 -49q-74 -145 -172 -145q-43 0 -76.5 19.5t-68.5 52.5q-33 27 -51.5 38t-38.5 11q-31 0 -50.5 -30t-33.5 -93z" />
<glyph unicode="&#x1ed7;" d="M80 469q0 141 55 251.5t153.5 173t223.5 62.5t223.5 -62.5t153.5 -173t55 -251.5t-55 -252t-153.5 -172t-223.5 -61t-223.5 61t-153.5 172t-55 252zM205 1116l284 287h50l284 -287l-82 -69l-227 225l-227 -225zM217 1463q47 197 193 196q43 0 74.5 -18.5t68.5 -51.5 q25 -23 42.5 -34t35.5 -11q27 0 45.5 19.5t38.5 66.5l94 -49q-74 -145 -172 -145q-43 0 -76.5 19.5t-68.5 52.5q-33 27 -51.5 38t-38.5 11q-31 0 -50.5 -30t-33.5 -93zM236 471q0 -104 35.5 -187t98 -130.5t142.5 -47.5t142.5 47.5t98 130.5t35.5 187q0 160 -77.5 261.5 t-198.5 101.5t-198.5 -101.5t-77.5 -261.5z" />
<glyph unicode="&#x1ed8;" d="M55 631q0 305 120 479t337 174t337 -174t120 -479q0 -313 -119 -483.5t-338 -170.5t-338 170t-119 484zM188 1419l293 201h45l310 -203l-62 -74l-266 144l-252 -146zM203 631q0 -254 81 -391.5t228 -137.5t228 137.5t81 391.5q0 244 -82 386t-227 142t-227 -142.5 t-82 -385.5zM400 -223q0 43 30.5 74.5t75.5 31.5q43 0 74 -31.5t31 -74.5t-31 -74t-74 -31q-45 0 -75.5 31t-30.5 74z" />
<glyph unicode="&#x1ed9;" d="M80 469q0 141 55 251.5t153.5 173t223.5 62.5t223.5 -62.5t153.5 -173t55 -251.5t-55 -252t-153.5 -172t-223.5 -61t-223.5 61t-153.5 172t-55 252zM203 1116l284 287h50l284 -287l-82 -69l-227 225l-227 -225zM236 471q0 -104 35.5 -187t98 -130.5t142.5 -47.5 t142.5 47.5t98 130.5t35.5 187q0 160 -77.5 261.5t-198.5 101.5t-198.5 -101.5t-77.5 -261.5zM400 -223q0 43 30.5 74.5t75.5 31.5q43 0 74 -31.5t31 -74.5t-31 -74t-74 -31q-45 0 -75.5 31t-30.5 74z" />
<glyph unicode="&#x1eda;" d="M55 631q0 305 120 479t337 174q152 0 258 -88q33 4 47 20.5t18.5 53.5t4.5 119h118q0 -141 -20 -204t-84 -81q115 -170 115 -473q0 -313 -119 -483.5t-338 -170.5t-338 170t-119 484zM203 631q0 -254 81 -391.5t228 -137.5t228 137.5t81 391.5q0 244 -82 386t-227 142 t-227 -142.5t-82 -385.5zM315 1438l312 182l82 -143l-347 -125z" />
<glyph unicode="&#x1edb;" d="M80 469q0 141 55 251.5t153.5 173t223.5 62.5q127 0 225 -63q33 2 46.5 37t13.5 135h131q0 -119 -19.5 -177.5t-74.5 -80.5q53 -66 81.5 -152t28.5 -186q0 -141 -55 -252t-153.5 -172t-223.5 -61t-223.5 61t-153.5 172t-55 252zM236 471q0 -104 35.5 -187t98 -130.5 t142.5 -47.5t142.5 47.5t98 130.5t35.5 187q0 160 -77.5 261.5t-198.5 101.5t-198.5 -101.5t-77.5 -261.5zM419 1092l172 305l113 -82l-207 -277z" />
<glyph unicode="&#x1edc;" d="M55 631q0 305 120 479t337 174q152 0 258 -88q33 4 47 20.5t18.5 53.5t4.5 119h118q0 -141 -20 -204t-84 -81q115 -170 115 -473q0 -313 -119 -483.5t-338 -170.5t-338 170t-119 484zM203 631q0 -254 81 -391.5t228 -137.5t228 137.5t81 391.5q0 244 -82 386t-227 142 t-227 -142.5t-82 -385.5zM252 1477l82 143l313 -182l-47 -86z" />
<glyph unicode="&#x1edd;" d="M80 469q0 141 55 251.5t153.5 173t223.5 62.5q127 0 225 -63q33 2 46.5 37t13.5 135h131q0 -119 -19.5 -177.5t-74.5 -80.5q53 -66 81.5 -152t28.5 -186q0 -141 -55 -252t-153.5 -172t-223.5 -61t-223.5 61t-153.5 172t-55 252zM236 471q0 -104 35.5 -187t98 -130.5 t142.5 -47.5t142.5 47.5t98 130.5t35.5 187q0 160 -77.5 261.5t-198.5 101.5t-198.5 -101.5t-77.5 -261.5zM292 1315l113 82l172 -305l-78 -54z" />
<glyph unicode="&#x1ede;" d="M55 631q0 305 120 479t337 174q152 0 258 -88q33 4 47 20.5t18.5 53.5t4.5 119h118q0 -141 -20 -204t-84 -81q115 -170 115 -473q0 -313 -119 -483.5t-338 -170.5t-338 170t-119 484zM203 631q0 -254 81 -391.5t228 -137.5t228 137.5t81 391.5q0 244 -82 386t-227 142 t-227 -142.5t-82 -385.5zM344 1696q37 45 79 65.5t97 20.5q70 0 118 -41t48 -111q0 -39 -14 -60.5t-45 -47.5q-29 -25 -42 -44.5t-13 -52.5v-14h-105v57q0 41 60 93q25 23 36 37t11 28q0 27 -18.5 42t-45.5 15q-70 0 -90 -65z" />
<glyph unicode="&#x1edf;" d="M80 469q0 141 55 251.5t153.5 173t223.5 62.5q127 0 225 -63q33 2 46.5 37t13.5 135h131q0 -119 -19.5 -177.5t-74.5 -80.5q53 -66 81.5 -152t28.5 -186q0 -141 -55 -252t-153.5 -172t-223.5 -61t-223.5 61t-153.5 172t-55 252zM236 471q0 -104 35.5 -187t98 -130.5 t142.5 -47.5t142.5 47.5t98 130.5t35.5 187q0 160 -77.5 261.5t-198.5 101.5t-198.5 -101.5t-77.5 -261.5zM344 1356q37 45 79 65.5t97 20.5q70 0 118 -41t48 -111q0 -39 -14 -60.5t-45 -47.5q-29 -25 -42 -44.5t-13 -52.5v-14h-105v57q0 41 60 93q25 23 36 37t11 28 q0 27 -18.5 42t-45.5 15q-70 0 -90 -65z" />
<glyph unicode="&#x1ee0;" d="M55 631q0 305 120 479t337 174q152 0 258 -88q33 4 47 20.5t18.5 53.5t4.5 119h118q0 -141 -20 -204t-84 -81q115 -170 115 -473q0 -313 -119 -483.5t-338 -170.5t-338 170t-119 484zM195 1468q31 74 83 119t128 45q43 0 73.5 -15t73.5 -44q35 -27 61.5 -39t57.5 -12 q33 0 54.5 20.5t49.5 77.5l94 -57q-45 -86 -87 -120t-103 -34q-43 0 -77 15.5t-79 45.5q-39 25 -62.5 37.5t-51.5 12.5q-37 0 -63.5 -21.5t-51.5 -75.5zM203 631q0 -254 81 -391.5t228 -137.5t228 137.5t81 391.5q0 244 -82 386t-227 142t-227 -142.5t-82 -385.5z" />
<glyph unicode="&#x1ee1;" d="M80 469q0 141 55 251.5t153.5 173t223.5 62.5q127 0 225 -63q33 2 46.5 37t13.5 135h131q0 -119 -19.5 -177.5t-74.5 -80.5q53 -66 81.5 -152t28.5 -186q0 -141 -55 -252t-153.5 -172t-223.5 -61t-223.5 61t-153.5 172t-55 252zM187 1235q31 74 83 119t128 45 q43 0 73.5 -15.5t73.5 -44.5q35 -27 61.5 -39t57.5 -12q33 0 54.5 20.5t49.5 77.5l95 -57q-45 -86 -87 -119.5t-104 -33.5q-43 0 -76.5 15t-78.5 46q-39 25 -62.5 37t-52.5 12q-37 0 -63.5 -21.5t-51.5 -74.5zM236 471q0 -104 35.5 -187t98 -130.5t142.5 -47.5t142.5 47.5 t98 130.5t35.5 187q0 160 -77.5 261.5t-198.5 101.5t-198.5 -101.5t-77.5 -261.5z" />
<glyph unicode="&#x1ee2;" d="M55 631q0 305 120 479t337 174q152 0 258 -88q33 4 47 20.5t18.5 53.5t4.5 119h118q0 -141 -20 -204t-84 -81q115 -170 115 -473q0 -313 -119 -483.5t-338 -170.5t-338 170t-119 484zM203 631q0 -254 81 -391.5t228 -137.5t228 137.5t81 391.5q0 244 -82 386t-227 142 t-227 -142.5t-82 -385.5zM400 -223q0 43 30.5 74.5t75.5 31.5q43 0 74 -31.5t31 -74.5t-31 -74t-74 -31q-45 0 -75.5 31t-30.5 74z" />
<glyph unicode="&#x1ee3;" d="M80 469q0 141 55 251.5t153.5 173t223.5 62.5q127 0 225 -63q33 2 46.5 37t13.5 135h131q0 -119 -19.5 -177.5t-74.5 -80.5q53 -66 81.5 -152t28.5 -186q0 -141 -55 -252t-153.5 -172t-223.5 -61t-223.5 61t-153.5 172t-55 252zM236 471q0 -104 35.5 -187t98 -130.5 t142.5 -47.5t142.5 47.5t98 130.5t35.5 187q0 160 -77.5 261.5t-198.5 101.5t-198.5 -101.5t-77.5 -261.5zM400 -223q0 43 30.5 74.5t75.5 31.5q43 0 74 -31.5t31 -74.5t-31 -74t-74 -31q-45 0 -75.5 31t-30.5 74z" />
<glyph unicode="&#x1ee4;" d="M102 440v836h160v-14q-12 -12 -15 -26.5t-3 -49.5v-748q0 -164 63.5 -252t208.5 -88q147 0 212 88t65 258v832h137v-830q0 -236 -109.5 -352.5t-306.5 -116.5q-203 0 -307.5 121t-104.5 342zM400 -223q0 43 30.5 74.5t75.5 31.5q43 0 74 -31.5t31 -74.5t-31 -74t-74 -31 q-45 0 -75.5 31t-30.5 74z" />
<glyph unicode="&#x1ee5;" d="M131 414l2 522h143v-522q0 -168 58.5 -243t154.5 -75q106 0 179 83t73 241v516h144v-791q0 -49 3 -80.5t17 -64.5h-141q-14 31 -17.5 63.5t-3.5 79.5q-45 -78 -121.5 -122t-168.5 -44q-148 0 -236 110t-86 327zM361 -223q0 43 30.5 74.5t75.5 31.5q43 0 74 -31.5 t31 -74.5t-31 -74t-74 -31q-45 0 -75.5 31t-30.5 74z" />
<glyph unicode="&#x1ee6;" d="M102 440v836h160v-14q-12 -12 -15 -26.5t-3 -49.5v-748q0 -164 63.5 -252t208.5 -88q147 0 212 88t65 258v832h137v-830q0 -236 -109.5 -352.5t-306.5 -116.5q-203 0 -307.5 121t-104.5 342zM344 1696q37 45 79 65.5t97 20.5q70 0 118 -41t48 -111q0 -39 -14 -60.5 t-45 -47.5q-29 -25 -42 -44.5t-13 -52.5v-14h-105v57q0 41 60 93q25 23 36 37t11 28q0 27 -18.5 42t-45.5 15q-70 0 -90 -65z" />
<glyph unicode="&#x1ee7;" d="M131 414l2 522h143v-522q0 -168 58.5 -243t154.5 -75q106 0 179 83t73 241v516h144v-791q0 -49 3 -80.5t17 -64.5h-141q-14 31 -17.5 63.5t-3.5 79.5q-45 -78 -121.5 -122t-168.5 -44q-148 0 -236 110t-86 327zM344 1356q37 45 79 65.5t97 20.5q70 0 118 -41t48 -111 q0 -39 -14 -60.5t-45 -47.5q-29 -25 -42 -44.5t-13 -52.5v-14h-105v57q0 41 60 93q25 23 36 37t11 28q0 27 -18.5 42t-45.5 15q-70 0 -90 -65z" />
<glyph unicode="&#x1ee8;" d="M92 440v836h146v-14q-12 -12 -15.5 -26.5t-3.5 -49.5v-748q0 -164 57.5 -252t188.5 -88q133 0 190.5 88t57.5 258v832h102q39 0 56.5 15.5t22.5 53t5 123.5h119q0 -116 -12.5 -176.5t-50 -88t-117.5 -27.5v-730q0 -236 -99.5 -352.5t-275.5 -116.5q-182 0 -276.5 120 t-94.5 343zM260 1438l312 182l82 -143l-347 -125z" />
<glyph unicode="&#x1ee9;" d="M82 414l2 522h135v-522q0 -168 55.5 -243t147.5 -75q102 0 171 83t69 241v516h135v-791q0 -49 3 -80.5t17 -64.5h-135q-12 31 -15 63.5t-3 79.5q-43 -78 -116 -122t-161 -44q-141 0 -224 109t-81 328zM379 1092l172 305l113 -82l-207 -277zM803 836v100q35 0 48 35 t13 137h132q0 -106 -14.5 -162.5t-55.5 -83t-123 -26.5z" />
<glyph unicode="&#x1eea;" d="M92 440v836h146v-14q-12 -12 -15.5 -26.5t-3.5 -49.5v-748q0 -164 57.5 -252t188.5 -88q133 0 190.5 88t57.5 258v832h102q39 0 56.5 15.5t22.5 53t5 123.5h119q0 -116 -12.5 -176.5t-50 -88t-117.5 -27.5v-730q0 -236 -99.5 -352.5t-275.5 -116.5q-182 0 -276.5 120 t-94.5 343zM197 1477l82 143l313 -182l-47 -86z" />
<glyph unicode="&#x1eeb;" d="M82 414l2 522h135v-522q0 -168 55.5 -243t147.5 -75q102 0 171 83t69 241v516h135v-791q0 -49 3 -80.5t17 -64.5h-135q-12 31 -15 63.5t-3 79.5q-43 -78 -116 -122t-161 -44q-141 0 -224 109t-81 328zM252 1315l113 82l172 -305l-78 -54zM803 836v100q35 0 48 35t13 137 h132q0 -106 -14.5 -162.5t-55.5 -83t-123 -26.5z" />
<glyph unicode="&#x1eec;" d="M92 440v836h146v-14q-12 -12 -15.5 -26.5t-3.5 -49.5v-748q0 -164 57.5 -252t188.5 -88q133 0 190.5 88t57.5 258v832h102q39 0 56.5 15.5t22.5 53t5 123.5h119q0 -116 -12.5 -176.5t-50 -88t-117.5 -27.5v-730q0 -236 -99.5 -352.5t-275.5 -116.5q-182 0 -276.5 120 t-94.5 343zM288 1696q37 45 79 65.5t97 20.5q70 0 118 -41t48 -111q0 -39 -14 -60.5t-45 -47.5q-29 -25 -42 -44.5t-13 -52.5v-14h-105v57q0 41 60 93q25 23 36 37t11 28q0 27 -18.5 42t-45.5 15q-70 0 -90 -65z" />
<glyph unicode="&#x1eed;" d="M82 414l2 522h135v-522q0 -168 55.5 -243t147.5 -75q102 0 171 83t69 241v516h135v-791q0 -49 3 -80.5t17 -64.5h-135q-12 31 -15 63.5t-3 79.5q-43 -78 -116 -122t-161 -44q-141 0 -224 109t-81 328zM303 1356q37 45 79 65.5t97 20.5q70 0 118 -41t48 -111 q0 -39 -14 -60.5t-45 -47.5q-29 -25 -42 -44.5t-13 -52.5v-14h-105v57q0 41 60 93q25 23 36 37t11 28q0 27 -18.5 42t-45.5 15q-70 0 -90 -65zM803 836v100q35 0 48 35t13 137h132q0 -106 -14.5 -162.5t-55.5 -83t-123 -26.5z" />
<glyph unicode="&#x1eee;" d="M92 440v836h146v-14q-12 -12 -15.5 -26.5t-3.5 -49.5v-748q0 -164 57.5 -252t188.5 -88q133 0 190.5 88t57.5 258v832h102q39 0 56.5 15.5t22.5 53t5 123.5h119q0 -116 -12.5 -176.5t-50 -88t-117.5 -27.5v-730q0 -236 -99.5 -352.5t-275.5 -116.5q-182 0 -276.5 120 t-94.5 343zM140 1468q31 74 83 119t128 45q43 0 73.5 -15t73.5 -44q35 -27 61.5 -39t57.5 -12q33 0 54.5 20.5t49.5 77.5l94 -57q-45 -86 -87 -120t-103 -34q-43 0 -77 15.5t-79 45.5q-39 25 -62.5 37.5t-51.5 12.5q-37 0 -63.5 -21.5t-51.5 -75.5z" />
<glyph unicode="&#x1eef;" d="M82 414l2 522h135v-522q0 -168 55.5 -243t147.5 -75q102 0 171 83t69 241v516h135v-791q0 -49 3 -80.5t17 -64.5h-135q-12 31 -15 63.5t-3 79.5q-43 -78 -116 -122t-161 -44q-141 0 -224 109t-81 328zM172 1174q47 197 193 196q43 0 74.5 -18.5t68.5 -51.5 q25 -23 42.5 -34t35.5 -11q27 0 45.5 19.5t38.5 66.5l94 -49q-74 -145 -172 -145q-43 0 -76.5 19.5t-68.5 52.5q-33 27 -51.5 38t-38.5 11q-31 0 -50.5 -30t-33.5 -93zM803 836v100q35 0 48 35t13 137h132q0 -106 -14.5 -162.5t-55.5 -83t-123 -26.5z" />
<glyph unicode="&#x1ef0;" d="M92 440v836h146v-14q-12 -12 -15.5 -26.5t-3.5 -49.5v-748q0 -164 57.5 -252t188.5 -88q133 0 190.5 88t57.5 258v832h102q39 0 56.5 15.5t22.5 53t5 123.5h119q0 -116 -12.5 -176.5t-50 -88t-117.5 -27.5v-730q0 -236 -99.5 -352.5t-275.5 -116.5q-182 0 -276.5 120 t-94.5 343zM342 -223q0 43 30.5 74.5t75.5 31.5q43 0 74 -31.5t31 -74.5t-31 -74t-74 -31q-45 0 -75.5 31t-30.5 74z" />
<glyph unicode="&#x1ef1;" d="M82 414l2 522h135v-522q0 -168 55.5 -243t147.5 -75q102 0 171 83t69 241v516h135v-791q0 -49 3 -80.5t17 -64.5h-135q-12 31 -15 63.5t-3 79.5q-43 -78 -116 -122t-161 -44q-141 0 -224 109t-81 328zM338 -223q0 43 30.5 74.5t75.5 31.5q43 0 74 -31.5t31 -74.5t-31 -74 t-74 -31q-45 0 -75.5 31t-30.5 74zM803 836v100q35 0 48 35t13 137h132q0 -106 -14.5 -162.5t-55.5 -83t-123 -26.5z" />
<glyph unicode="&#x1ef2;" d="M57 1276h164l314 -619l282 619h152l-363 -772v-504h-155v504zM252 1477l82 143l313 -182l-47 -86z" />
<glyph unicode="&#x1ef3;" d="M45 -276l64 100l2 2l2 -2q33 -31 69.5 -45.5t85.5 -14.5q76 0 121 53.5t88 176.5l-383 942h154l291 -750l123 377q45 141 66.5 216t31.5 157h147q-12 -84 -37.5 -166t-72.5 -217l-234 -659q-47 -131 -122.5 -190.5t-180.5 -59.5q-131 0 -215 80zM105.5 -166 q5.5 -2 7.5 -2l-2 -6q-11 10 -5.5 8zM113 -168l8 10l12 -8v-2q0 -4 -4 -4zM299 1315l113 82l172 -305l-78 -54z" />
<glyph unicode="&#x1ef4;" d="M57 1276h164l314 -619l282 619h152l-363 -772v-504h-155v504zM416 -223q0 43 30.5 74.5t75.5 31.5q43 0 74 -31.5t31 -74.5t-31 -74t-74 -31q-45 0 -75.5 31t-30.5 74z" />
<glyph unicode="&#x1ef5;" d="M45 -276l64 100l2 2l2 -2q33 -31 69.5 -45.5t85.5 -14.5q76 0 121 53.5t88 176.5l-383 942h154l291 -750l123 377q45 141 66.5 216t31.5 157h147q-12 -84 -37.5 -166t-72.5 -217l-234 -659q-47 -131 -122.5 -190.5t-180.5 -59.5q-131 0 -215 80zM105.5 -166 q5.5 -2 7.5 -2l-2 -6q-11 10 -5.5 8zM113 -168l8 10l12 -8v-2q0 -4 -4 -4zM645 -223q0 43 30.5 74.5t75.5 31.5q43 0 74 -31.5t31 -74.5t-31 -74t-74 -31q-45 0 -75.5 31t-30.5 74z" />
<glyph unicode="&#x1ef6;" d="M57 1276h164l314 -619l282 619h152l-363 -772v-504h-155v504zM344 1696q37 45 79 65.5t97 20.5q70 0 118 -41t48 -111q0 -39 -14 -60.5t-45 -47.5q-29 -25 -42 -44.5t-13 -52.5v-14h-105v57q0 41 60 93q25 23 36 37t11 28q0 27 -18.5 42t-45.5 15q-70 0 -90 -65z" />
<glyph unicode="&#x1ef7;" d="M45 -276l64 100l2 2l2 -2q33 -31 69.5 -45.5t85.5 -14.5q76 0 121 53.5t88 176.5l-383 942h154l291 -750l123 377q45 141 66.5 216t31.5 157h147q-12 -84 -37.5 -166t-72.5 -217l-234 -659q-47 -131 -122.5 -190.5t-180.5 -59.5q-131 0 -215 80zM105.5 -166 q5.5 -2 7.5 -2l-2 -6q-11 10 -5.5 8zM113 -168l8 10l12 -8v-2q0 -4 -4 -4zM350 1356q37 45 79 65.5t97 20.5q70 0 118 -41t48 -111q0 -39 -14 -60.5t-45 -47.5q-29 -25 -42 -44.5t-13 -52.5v-14h-105v57q0 41 60 93q25 23 36 37t11 28q0 27 -18.5 42t-45.5 15q-70 0 -90 -65 z" />
<glyph unicode="&#x1ef8;" d="M57 1276h164l314 -619l282 619h152l-363 -772v-504h-155v504zM195 1468q31 74 83 119t128 45q43 0 73.5 -15t73.5 -44q35 -27 61.5 -39t57.5 -12q33 0 54.5 20.5t49.5 77.5l94 -57q-45 -86 -87 -120t-103 -34q-43 0 -77 15.5t-79 45.5q-39 25 -62.5 37.5t-51.5 12.5 q-37 0 -63.5 -21.5t-51.5 -75.5z" />
<glyph unicode="&#x1ef9;" d="M45 -276l64 100l2 2l2 -2q33 -31 69.5 -45.5t85.5 -14.5q76 0 121 53.5t88 176.5l-383 942h154l291 -750l123 377q45 141 66.5 216t31.5 157h147q-12 -84 -37.5 -166t-72.5 -217l-234 -659q-47 -131 -122.5 -190.5t-180.5 -59.5q-131 0 -215 80zM105.5 -166 q5.5 -2 7.5 -2l-2 -6q-11 10 -5.5 8zM113 -168l8 10l12 -8v-2q0 -4 -4 -4zM193 1235q31 74 83 119t128 45q43 0 73.5 -15.5t73.5 -44.5q35 -27 61.5 -39t57.5 -12q33 0 54.5 20.5t49.5 77.5l95 -57q-45 -86 -87 -119.5t-104 -33.5q-43 0 -76.5 15t-78.5 46q-39 25 -62.5 37 t-52.5 12q-37 0 -63.5 -21.5t-51.5 -74.5z" />
<glyph unicode="&#x2000;" horiz-adv-x="986" />
<glyph unicode="&#x2001;" horiz-adv-x="1972" />
<glyph unicode="&#x2002;" horiz-adv-x="986" />
<glyph unicode="&#x2003;" horiz-adv-x="1972" />
<glyph unicode="&#x2004;" horiz-adv-x="657" />
<glyph unicode="&#x2005;" horiz-adv-x="493" />
<glyph unicode="&#x2006;" horiz-adv-x="328" />
<glyph unicode="&#x2007;" />
<glyph unicode="&#x2008;" />
<glyph unicode="&#x2009;" />
<glyph unicode="&#x200a;" />
<glyph unicode="&#x200b;" />
<glyph unicode="&#x2010;" d="M145 575v138h738v-138h-738z" />
<glyph unicode="&#x2011;" d="M145 575v138h738v-138h-738z" />
<glyph unicode="&#x2012;" d="M41 575v138h942v-138h-942z" />
<glyph unicode="&#x2013;" d="M145 575v138h738v-138h-738z" />
<glyph unicode="&#x2014;" d="M20 575v138h984v-138h-984z" />
<glyph unicode="&#x2015;" d="M20 575v138h984v-138h-984z" />
<glyph unicode="&#x2018;" d="M373 922q0 168 217 385l72 -64q-55 -49 -94.5 -112.5t-39.5 -102.5q0 -18 10.5 -30.5t36.5 -36.5q29 -27 43.5 -45.5t14.5 -45.5q0 -49 -34 -83.5t-87 -34.5q-55 0 -97 48t-42 122z" />
<glyph unicode="&#x2019;" d="M338 813q57 53 95 114.5t38 100.5q0 18 -11 32.5t-36 37.5q-27 25 -42 44t-15 44q0 51 33.5 86t86.5 35q55 0 97.5 -48.5t42.5 -121.5q0 -160 -219 -385z" />
<glyph unicode="&#x201a;" d="M338 -283q57 53 95 115t38 100q0 16 -11 28.5t-32 29.5q-31 27 -46 47t-15 53q0 51 33.5 86t86.5 35q68 0 104 -46t36 -124q0 -160 -219 -385z" />
<glyph unicode="&#x201c;" d="M162 922q0 168 217 385l70 -64q-55 -49 -94.5 -112.5t-39.5 -102.5q0 -16 12.5 -31.5t34.5 -33.5q29 -25 44.5 -45.5t15.5 -47.5q0 -49 -35 -83.5t-88 -34.5q-55 0 -96 48t-41 122zM586 922q0 168 217 385l69 -64q-55 -49 -94 -112.5t-39 -102.5q0 -16 12.5 -31.5 t34.5 -33.5q29 -25 44.5 -45.5t15.5 -47.5q0 -49 -35 -83.5t-88 -34.5q-55 0 -96 48t-41 122z" />
<glyph unicode="&#x201d;" d="M168 815q55 49 94 112.5t39 102.5q0 16 -12.5 31.5t-34.5 34.5q-29 25 -44 45t-15 47q0 49 34.5 84t87.5 35q56 0 97 -48.5t41 -121.5q0 -168 -217 -385zM592 815q55 49 94 112.5t39 102.5q0 16 -12.5 31.5t-34.5 34.5q-29 25 -44.5 45t-15.5 47q0 49 35 84t88 35 q56 0 97 -48.5t41 -121.5q0 -168 -217 -385z" />
<glyph unicode="&#x201e;" d="M125 -283q59 53 96 115t37 100q0 18 -11 33t-36 37q-27 25 -42 44.5t-15 43.5q0 51 33.5 86t86.5 35q57 0 98.5 -48t41.5 -122q0 -168 -217 -385zM549 -283q59 53 96 115t37 100q0 18 -10 30.5t-37 37.5q-29 27 -43 45t-14 45q0 51 33.5 86t86.5 35q57 0 98.5 -48 t41.5 -122q0 -168 -217 -385z" />
<glyph unicode="&#x2020;" d="M100 813v123h344v399h138v-399h340v-123h-340v-1122h-138v1122h-344z" />
<glyph unicode="&#x2021;" d="M100 125v123h344v565h-344v123h344v399h138v-399h340v-123h-340v-565h340v-123h-340v-434h-138v434h-344z" />
<glyph unicode="&#x2022;" d="M350 606q0 72 52.5 122t121.5 50q72 0 123 -51t51 -121t-51 -120t-123 -50q-71 0 -122.5 50.5t-51.5 119.5z" />
<glyph unicode="&#x2026;" d="M14 94q0 47 36 83t85 36t85 -35t36 -84q0 -47 -35 -82t-86 -35q-53 0 -87 34t-34 83zM367 94q0 49 35.5 84t84.5 35t86 -35t37 -84q0 -47 -35.5 -82t-87.5 -35q-51 0 -85.5 34t-34.5 83zM721 94q0 49 36 84t85 35t85 -35t36 -84q0 -47 -35 -82t-86 -35t-86 34t-35 83z " />
<glyph unicode="&#x202f;" horiz-adv-x="394" />
<glyph unicode="&#x2030;" d="M41 463v115l942 532v-115zM53 227q0 104 62.5 176t150.5 72t150.5 -72.5t62.5 -177.5q0 -109 -60.5 -178.5t-152.5 -69.5q-88 0 -150.5 72t-62.5 178zM53 1047q0 104 62.5 175.5t150.5 71.5t150.5 -72.5t62.5 -177.5q0 -109 -60.5 -178t-152.5 -69q-88 0 -150.5 71.5 t-62.5 178.5zM172 227q0 -74 27.5 -108.5t66.5 -34.5q37 0 63.5 35t26.5 108q0 74 -27.5 109t-66.5 35q-37 0 -63.5 -35t-26.5 -109zM172 1047q0 -74 27.5 -109t66.5 -35q37 0 63.5 35t26.5 109t-27.5 108.5t-66.5 34.5q-37 0 -63.5 -35t-26.5 -108zM555 227q0 104 62.5 176 t150.5 72t150.5 -72.5t62.5 -177.5q0 -106 -60.5 -177t-152.5 -71q-88 0 -150.5 72t-62.5 178zM674 227q0 -72 27.5 -107.5t66.5 -35.5t64.5 35t25.5 108q0 74 -27.5 109t-66.5 35q-37 0 -63.5 -36t-26.5 -108z" />
<glyph unicode="&#x2032;" d="M408 1053l45 368h145l-100 -368h-90z" />
<glyph unicode="&#x2033;" d="M285 1053l45 368h145l-100 -368h-90zM551 1053l45 368h145l-100 -368h-90z" />
<glyph unicode="&#x2039;" d="M297 471v47l311 301l80 -84l-248 -241l262 -287l-81 -82z" />
<glyph unicode="&#x203a;" d="M297 207l262 287l-248 241l80 84l311 -301v-47l-323 -346z" />
<glyph unicode="&#x2044;" d="M156 -33l641 1395l98 -55l-643 -1393z" />
<glyph unicode="&#x205f;" horiz-adv-x="493" />
<glyph unicode="&#x2070;" d="M246 909q0 188 73.5 295t208.5 107q134 0 208.5 -107.5t74.5 -294.5q0 -195 -72.5 -299t-210.5 -104q-137 0 -209.5 104.5t-72.5 298.5zM369 909q0 -86 14 -141l266 346q-41 84 -121 84q-73 0 -116 -78t-43 -211zM418 682q41 -63 110 -64q76 0 118 76t42 215q0 66 -8 107 z" />
<glyph unicode="&#x2074;" d="M186 702v107l414 487h102v-485h129v-111h-129v-182h-120v184h-396zM315 811h267v307z" />
<glyph unicode="&#x2075;" d="M252 647l94 70l2 2q39 -55 74 -78t82 -23q70 0 111.5 47.5t41.5 120.5q0 68 -35.5 106t-97.5 38q-100 0 -157 -58l-80 31l30 393h433v-110h-326l-12 -178q57 35 135 34q108 0 176 -70.5t68 -185.5q0 -125 -78 -202.5t-199 -77.5q-84 0 -152.5 38t-109.5 103zM348 719 q-10 14 4 2zM352 721l10 8l9 -10q-1 -12 -19 2z" />
<glyph unicode="&#x2076;" d="M248 879q0 203 82 317.5t217 114.5q68 0 117 -19.5t96 -64.5l-66 -90l-2 -2q-59 66 -133 65q-70 0 -122 -58.5t-62 -156.5q76 51 149 51q115 0 185.5 -70.5t70.5 -191.5q0 -119 -75.5 -193.5t-188.5 -74.5q-121 0 -194.5 100.5t-73.5 272.5zM375 846q0 -98 44 -160.5 t113 -62.5q60 0 93.5 37.5t33.5 111.5q0 76 -39.5 119t-103.5 43q-70 0 -139 -47q-2 -14 -2 -41zM670 1128v2q0 6 6 4.5t12 -6.5l-6 -8zM688 1128l4 7q15 -17 6.5 -13t-10.5 6z" />
<glyph unicode="&#x2077;" d="M299 1186v110h459v-63q-178 -412 -271 -715h-135q88 265 256 668h-309z" />
<glyph unicode="&#x2078;" d="M260 721q0 133 148 213q-49 31 -81 78t-32 98q0 84 63.5 142.5t155.5 58.5q90 0 156.5 -56.5t66.5 -136.5q0 -51 -32.5 -100t-86.5 -82q70 -39 108 -88t38 -127q0 -92 -69.5 -152.5t-184.5 -60.5t-182.5 60.5t-67.5 152.5zM375 737q0 -49 34.5 -84t102.5 -35 q70 0 102.5 31t32.5 84q0 59 -39 95t-114 59q-57 -25 -88 -59.5t-31 -90.5zM412 1102q0 -41 28.5 -66.5t89.5 -56.5q48 27 69.5 54.5t21.5 74.5q0 39 -29 65.5t-76 26.5q-49 0 -76.5 -27.5t-27.5 -70.5z" />
<glyph unicode="&#x2079;" d="M299 1049q0 111 66.5 186.5t162.5 75.5q121 0 187.5 -91.5t66.5 -269.5q0 -213 -73.5 -328.5t-200.5 -115.5q-117 0 -203 80l60 104v2q39 -39 70.5 -55t76.5 -16q72 0 111 59t47 184q-61 -68 -152 -67q-94 0 -156.5 71.5t-62.5 180.5zM358 702q4 0 11 -4l-4 -6 q-11 10 -7 10zM369 698l4 11l12 -9v-4q0 -6 -16 2zM403 1051q0 -70 33 -105t84 -35q43 0 80 22.5t64 63.5q2 12 2 35q0 78 -35 122t-99 44q-59 0 -94 -40t-35 -107z" />
<glyph unicode="&#x207b;" d="M92 578v124h842v-124h-842z" />
<glyph unicode="&#x207f;" d="M147 0v936h144v-166q55 86 139 137t178 51q125 0 200 -95t75 -296v-567h-144v563q0 139 -47 202.5t-125 63.5q-63 0 -127.5 -36.5t-106.5 -103t-42 -150.5v-539h-144z" />
<glyph unicode="&#x2080;" d="M246 393q0 188 73.5 295t208.5 107q134 0 208.5 -107.5t74.5 -294.5q0 -195 -72.5 -299t-210.5 -104q-137 0 -209.5 104.5t-72.5 298.5zM369 393q0 -86 14 -141l266 346q-41 84 -121 84q-73 0 -116 -78t-43 -211zM418 166q41 -63 110 -64q76 0 118 76t42 215q0 66 -8 107 z" />
<glyph unicode="&#x2081;" d="M250 606l272 152h90v-778h-131v634l-198 -71z" />
<glyph unicode="&#x2082;" d="M227 617q49 82 132 129t188 47q119 0 183.5 -65.5t64.5 -170.5q0 -66 -38 -124t-95.5 -109t-163.5 -133q-23 -18 -49.5 -38t-53.5 -42h334q33 0 48.5 4t27.5 16h14v-131h-571v111q162 133 246 209.5t124.5 133t40.5 103.5q0 57 -30.5 87t-83.5 30q-61 0 -118.5 -20.5 t-66.5 -38.5q-37 -72 -36 -74q0 -2 2 -2t8 3t8 -5l-6 -13l-19 11z" />
<glyph unicode="&#x2083;" d="M229 112l84 96l2 2q43 -68 90.5 -97.5t126.5 -29.5q76 0 123 34t47 89q0 63 -49 96t-129 33q-16 0 -61 -4v113q14 -2 41 -2q82 0 117.5 28.5t35.5 84.5q0 104 -131 104q-113 0 -192 -98l-82 90q106 125 276 125q115 0 186.5 -53.5t71.5 -143.5q0 -63 -24.5 -106 t-75.5 -72q68 -16 108 -65.5t40 -118.5q0 -68 -41 -124.5t-111 -89t-152 -32.5q-184 0 -301 141zM310 221q1 2 5 0t7 -4l-7 -7q-6 9 -5 11zM322 217l6 8l10 -10q0 -10 -16 2z" />
<glyph unicode="&#x2084;" d="M186 186v107l414 487h102v-485h129v-111h-129v-182h-120v184h-396zM315 295h267v307z" />
<glyph unicode="&#x2085;" d="M252 131l94 70l2 2q2 0 2 -1v-1q37 -53 72 -76t82 -23q70 0 111.5 47.5t41.5 120.5q0 68 -35.5 106t-97.5 38q-100 0 -157 -58l-80 31l30 393h433v-110h-326l-12 -178q57 35 135 34q108 0 176 -70.5t68 -185.5q0 -125 -78 -202.5t-199 -77.5q-84 0 -152.5 38t-109.5 103z M344 210q4 -3 8 -5l-4 -2q-8 10 -4 7zM352 205l10 8l9 -10q-1 -12 -19 2z" />
<glyph unicode="&#x2086;" d="M248 362q0 203 82 318t217 115q68 0 117 -19.5t96 -64.5l-66 -90l-2 -3q-59 66 -133 66q-70 0 -122 -58.5t-62 -156.5q76 51 149 51q115 0 185.5 -70.5t70.5 -191.5q0 -119 -75.5 -193.5t-188.5 -74.5q-121 0 -194.5 100t-73.5 272zM375 330q0 -98 44 -161t113 -63 q60 0 93.5 38t33.5 112q0 76 -39.5 119t-103.5 43q-68 0 -139 -47q-2 -14 -2 -41zM670 612v2q0 8 18 -2l-6 -8zM688 612l4 6q16 -18 -4 -6z" />
<glyph unicode="&#x2087;" d="M299 670v110h459v-63q-178 -412 -271 -715h-135q88 265 256 668h-309z" />
<glyph unicode="&#x2088;" d="M260 205q0 133 148 213q-49 31 -81 78t-32 98q0 84 63.5 142.5t155.5 58.5q90 0 156.5 -56.5t66.5 -136.5q0 -51 -32.5 -100t-86.5 -82q70 -39 108 -88t38 -127q0 -92 -69.5 -152.5t-184.5 -60.5t-182.5 60.5t-67.5 152.5zM375 221q0 -49 34.5 -84t102.5 -35 q70 0 102.5 31t32.5 84q0 59 -39 95t-114 59q-57 -25 -88 -60t-31 -90zM412 586q0 -41 28.5 -66.5t89.5 -56.5q48 26 69.5 54t21.5 75q0 39 -29 65.5t-76 26.5q-49 0 -76.5 -27.5t-27.5 -70.5z" />
<glyph unicode="&#x2089;" d="M299 532q0 111 66.5 187t162.5 76q121 0 187.5 -91.5t66.5 -269.5q0 -213 -73.5 -328.5t-200.5 -115.5q-117 0 -203 80l60 104v2l2 -2q37 -37 68.5 -53.5t76.5 -16.5q72 0 111 59.5t47 184.5q-61 -68 -152 -67q-94 0 -156.5 71.5t-62.5 179.5zM358 186q4 0 11 -4l-4 -6 q-11 10 -7 10zM369 182l4 11l12 -9v-4q0 -6 -16 2zM403 535q0 -70 33 -105t84 -35q43 0 80 22.5t64 63.5q2 12 2 35q0 78 -35 122t-99 44q-59 0 -94 -40t-35 -107z" />
<glyph unicode="&#x20a1;" d="M84 631q0 236 71.5 382t182.5 209.5t237 63.5h19l27 96h75l-28 -104q49 -12 61 -18l33 122h76l-41 -155q111 -66 164 -193l-123 -57q-2 0 -2 1v1q-37 74 -76 113l-262 -977q41 -12 80 -13q75 0 145 42t113 114l106 -70q-63 -104 -149 -156t-209 -52q-61 0 -119 12 l-37 -137h-76l43 159q-29 10 -57 31l-51 -190h-76l63 235q-90 82 -139 217t-51 324zM223 641q0 -115 25.5 -211t70.5 -168l244 909q-158 -4 -249 -144t-91 -386zM377 190q22 -23 53 -43l266 994q-31 16 -59 22zM813 983l4 4q4 0 17 -12l-15 -6zM834 975l4 2q8 -18 -4 -2z " />
<glyph unicode="&#x20a3;" d="M43 299v117h117v862h735v-125h-592v-401h477v-125h-477v-211h293v-117h-293v-299h-143v299h-117z" />
<glyph unicode="&#x20a4;" d="M80 100q127 61 175 136t48 219q0 78 -31 202h-135v117h107q-14 66 -15 131q0 109 48.5 194t131.5 131t181 46q154 0 266 -105l-90 -112q-43 51 -86 75.5t-127 24.5t-135 -67.5t-51 -184.5q0 -45 16 -133h266v-117h-237q27 -109 26 -198q0 -154 -73 -275q12 2 34 2 q47 0 93.5 -11t107.5 -34q61 -20 95 -28.5t69 -8.5q76 0 145 58l54 -107q-106 -86 -213 -86q-35 0 -156 39q-86 27 -135 40t-90 13q-90 0 -236 -77z" />
<glyph unicode="&#x20a6;" d="M29 563v105h112v608h125l312 -608h172v608h141v-14q-12 -12 -15.5 -26.5t-3.5 -49.5v-518h129v-105h-129v-563h-100l-285 563h-223v-563h-123v563h-112zM264 668h170l-170 336v-336zM631 563l119 -233v233h-119z" />
<glyph unicode="&#x20a7;" d="M111 0v1276h153q141 0 216 -87t75 -218q0 -146 -71.5 -236t-209.5 -90h-47v-645h-116zM227 752h31q180 0 180 215q0 84 -45 139t-133 55h-33v-409zM260 432l14 98h103v95l127 24l2 -14q-12 -20 -17.5 -34.5t-5.5 -45.5v-25h123l-16 -98h-111l-14 -172q-2 -27 -2 -72 q0 -63 14.5 -87.5t48.5 -24.5q31 0 70 24l41 76v2q31 -43 47 -60.5t44 -30.5t71 -13q49 0 74.5 16t25.5 45q2 29 -22.5 52.5t-83.5 43.5q-92 31 -134.5 68t-42.5 98q0 68 50.5 107t130.5 39q68 0 117 -22.5t87 -74.5l-61 -81l-2 -3q-35 51 -65.5 69t-71.5 18q-78 0 -78 -50 q0 -25 24.5 -41t86.5 -39q94 -36 133 -73t39 -96q0 -80 -57.5 -129.5t-151.5 -49.5q-88 0 -156 43q-57 -39 -127 -39q-82 0 -120 50.5t-38 158.5q0 39 2 62l15 186h-113zM632 191.5q3 1.5 9 -3.5l-4 -10q-8 12 -5 13.5zM641 188l4 7l12 -7v-4q0 -2 -5 -1t-11 5zM915 356v2 q0 6 8.5 2t10.5 -4l-6 -8zM934 356l4 6q12 -18 -4 -6z" />
<glyph unicode="&#x20a9;" d="M29 586v82h133l-88 608h121l86 -608h98l123 514h41l125 -514h92l74 608h108l-86 -608h145v-82h-157l-84 -586h-49l-140 586h-118l-142 -586h-53l-84 586h-145zM293 586l24 -172l41 172h-65zM471 668h80l-39 166zM686 586l43 -176l21 176h-64z" />
<glyph unicode="&#x20ab;" d="M133 600q0 129 45 217t118 129t153 41q76 0 132 -34.5t87 -94.5v197h-318v110h318v144h127v-15q-12 -12 -15.5 -26.5t-3.5 -48.5v-54h127v-110h-127l2 -719q0 -39 3 -64.5t14 -52.5h-117q-10 27 -13 52.5t-3 64.5q-37 -61 -93.5 -97t-126.5 -36q-80 0 -150.5 45 t-114.5 135t-44 217zM188 0v111h658v-111h-658zM248 618q0 -143 55 -228t158 -85q102 0 149 81t47 212q0 133 -51 213t-155 80q-98 0 -150.5 -73t-52.5 -200z" />
<glyph unicode="&#x20ac;" d="M68 446l26 119h82q-4 74 4 164h-112l26 119h105q45 223 178 330.5t297 107.5q168 0 276 -110l-51 -140q-20 10 -39 45q-27 43 -65.5 65.5t-128.5 22.5q-121 0 -213.5 -80.5t-126.5 -240.5h505l-45 -119h-479q-4 -27 -4 -84v-80h422l-47 -119h-363q29 -168 123 -257 t232 -89q123 0 219 84l59 -102q-119 -104 -286 -105q-185 0 -316 122t-160 347h-118z" />
<glyph unicode="&#x20ad;" d="M29 670v104h98v502h172v-14q-12 -12 -15 -26.5t-3 -49.5v-498l532 598q51 -10 107 -10h53l-441 -502h388v-104h-392l478 -670l-185 -8l-440 647l-100 -111v-528h-154v670h-98z" />
<glyph unicode="&#x20b1;" d="M27 788v84h94v82h-94v84h94v238h409q160 0 256.5 -63.5t131.5 -174.5h102v-84h-88q2 -12 2 -39q0 -29 -2 -43h88v-84h-105q-35 -104 -128 -164.5t-246 -60.5h-273v-563h-147v788h-94zM268 690h256q173 0 232 98h-488v-98zM268 872h516q2 12 2 39q0 14 -4 43h-514v-82z M268 1038h484q-29 47 -85.5 75t-140.5 28h-258v-103z" />
<glyph unicode="&#x20b2;" d="M74 623q-2 223 58.5 366.5t151.5 211t191 83.5v98h117v-94q113 -12 205 -68.5t141 -144.5l-115 -117q-12 16 -32 50q-49 70 -89 105.5t-110 45.5v-1053q123 10 217 78v303h-129v125h262v-499q-170 -125 -350 -133v-125h-117v133q-186 35 -293.5 204.5t-107.5 430.5z M215 653q0 -217 70.5 -355t189.5 -177v1034q-115 -27 -187.5 -147.5t-72.5 -354.5z" />
<glyph unicode="&#x20b5;" d="M84 631q0 311 120 466.5t298 182.5v102h116v-98q119 -10 208 -76.5t135 -173.5l-123 -57q-2 0 -2 1v1q-45 92 -98.5 135t-119.5 53v-1061q66 11 123.5 50t94.5 102l106 -70q-57 -98 -136 -149t-188 -57v-127h-116v131q-188 29 -302 190.5t-116 454.5zM223 641 q0 -205 78 -348t201 -180v1050q-131 -29 -205 -165t-74 -357zM813 983l4 4q4 0 17 -12l-15 -6zM834 975l4 2q8 -18 -4 -2z" />
<glyph unicode="&#x20b9;" d="M104 842v125h535q-16 80 -79.5 127t-174.5 47h-281v135h842v-125h-289q102 -61 129 -184h160v-125h-158q-16 -94 -85.5 -171t-170.5 -102l295 -569h-159l-283 563h-279v127h279q213 0 252 152h-533z" />
<glyph unicode="&#x20ba;" d="M51 512v125l166 59v115l-166 -59v125l166 59v340h168q0 -14 -9 -35.5t-9 -34.5v-219l383 135v-125l-383 -135v-114l383 135v-125l-383 -135v-498q197 0 308 77t111 269h121q0 -233 -145.5 -352t-394.5 -119h-150v571z" />
<glyph unicode="&#x20bc;" d="M102 0v733q0 203 87 320.5t255 138.5v170h138v-170q166 -18 257 -135t91 -330v-727h-137v729q0 150 -49.5 236t-161.5 104v-866h-138v866q-106 -20 -153 -105t-47 -229v-669q0 -23 7 -41.5t7 -24.5h-156z" />
<glyph unicode="&#x20bd;" d="M39 322v127h102v114h-102v127h102v586h410q203 0 303 -100.5t100 -260.5q0 -158 -98 -255t-295 -97h-272v-114h323v-127h-323v-322h-148v322h-102zM289 690h256q135 0 198.5 58.5t63.5 162.5q0 100 -65.5 165t-194.5 65h-258v-451z" />
<glyph unicode="&#x2113;" d="M47 420v123q115 31 193 61v457q0 164 76.5 249t224.5 85q143 0 216.5 -82t73.5 -240q0 -375 -423 -543v-182q0 -127 40.5 -184.5t124.5 -57.5t122 59.5t44 172.5h140q-8 -174 -83 -264t-249 -90q-154 0 -230.5 95t-76.5 263v137q-121 -43 -193 -59zM408 659 q266 131 266 418q0 201 -133 201t-133 -193v-426z" />
<glyph unicode="&#x2116;" d="M98 0v1276h129l181 -821v821h137q0 -6 -7.5 -22.5t-7.5 -32.5v-1221h-98l-207 889v-889h-127zM608 727v86h346v-86h-346zM608 1083q0 94 52.5 154.5t123.5 60.5q74 0 122 -55t48 -151q0 -98 -51 -155.5t-125 -57.5q-71 0 -120.5 57t-49.5 147zM690 1087q0 -57 26.5 -89.5 t63.5 -32.5q39 0 64.5 32.5t25.5 89.5t-25.5 92t-62.5 35q-39 0 -65.5 -34.5t-26.5 -92.5z" />
<glyph unicode="&#x2122;" d="M37 1219v81h452v-81h-184v-564h-92v564h-176zM549 655v645h72l147 -296l154 296h67v-645h-86v441l-123 -222l-32 3l-113 219v-441h-86z" />
<glyph unicode="&#x2124;" d="M102 0v100l531 1088h-527v88h844v-100l-522 -1090h430q33 0 48.5 4t27.5 16h14v-106h-846zM201 86h125l528 1102h-121z" />
<glyph unicode="&#x2126;" d="M41 723q0 324 127 491.5t356 167.5q223 0 349 -166.5t126 -494.5q0 -203 -74.5 -354.5t-203.5 -229.5h237v-137h-372v141q137 70 207.5 216.5t70.5 344.5q0 268 -89 405.5t-251 137.5q-164 0 -255 -139t-91 -401q0 -190 79 -343t196 -221v-141h-369v137h235 q-125 82 -201.5 233.5t-76.5 352.5z" />
<glyph unicode="&#x212e;" d="M51 481q0 164 67.5 275.5t174 166t223.5 54.5q133 0 238.5 -60.5t166 -173t60.5 -262.5h-725v-313q43 -45 113.5 -77t146.5 -32q123 0 203 50.5t145 154.5l62 -35q-74 -117 -165 -180t-245 -63q-145 0 -250.5 67.5t-160 181t-54.5 246.5zM256 555h522v244 q-41 41 -109.5 72.5t-154.5 31.5q-152 0 -258 -102v-246z" />
</font>
</defs>
</svg>
